<svg width="34" height="34" viewBox="0 0 34 34" fill="none" xmlns="http://www.w3.org/2000/svg">
<rect width="34" height="34" rx="8" fill="#2373E6"/>
<g clip-path="url(#clip0_1815_16448)">
<path fill-rule="evenodd" clip-rule="evenodd" d="M12.9121 21.19L12.5842 20.9055C12.5097 20.8381 12.3755 20.8531 12.3084 20.9504L11.8613 21.6542C11.8017 21.7515 11.7793 21.8713 11.8538 21.9312L12.0849 22.1334L12.3159 22.3355C12.3904 22.4029 12.5022 22.3655 12.5917 22.2906L13.2251 21.7515C13.3146 21.6767 13.3071 21.5344 13.2326 21.4745L12.9121 21.19Z" fill="#FFC900"/>
<path fill-rule="evenodd" clip-rule="evenodd" d="M7.95573 25.5325C7.99299 25.263 8.10479 25.1881 8.30601 25.001L11.4287 22.1558C11.548 22.0435 11.6821 21.9836 11.7566 22.0435C11.9057 22.1708 12.0547 22.3056 12.2038 22.4329C12.2783 22.5003 12.2336 22.6425 12.1367 22.7773L9.76675 26.2813C9.61024 26.5134 9.55807 26.6332 9.28977 26.708C7.598 27.1722 7.7396 27.292 7.95573 25.5325Z" fill="white"/>
<path fill-rule="evenodd" clip-rule="evenodd" d="M16.2507 22.0136C14.3056 22.0136 12.5467 20.7782 11.876 18.9364C11.1978 17.0721 11.7642 14.9757 13.292 13.7179C13.2994 13.7104 13.3069 13.7104 13.3143 13.7104C13.3218 13.7104 13.3367 13.7179 13.3441 13.7254C13.3591 13.7403 13.3591 13.7628 13.3441 13.7778C12.2411 14.9832 11.8983 16.6828 12.4573 18.2176C13.0758 19.9247 14.708 21.0702 16.519 21.0702C17.0258 21.0702 17.5251 20.9804 18.0021 20.8082C19.5821 20.2317 20.6926 18.7642 20.8267 17.0796C20.8267 17.0571 20.8416 17.0422 20.864 17.0422C20.8863 17.0422 20.9012 17.0571 20.9012 17.0796C21.0205 19.1535 19.7908 21.0178 17.8456 21.7366C17.3388 21.9163 16.7948 22.0136 16.2507 22.0136Z" fill="white"/>
<path d="M13.3217 13.7478C12.2485 14.9158 11.846 16.6303 12.4274 18.2251C13.0757 19.9995 14.7452 21.1001 16.5264 21.1001C17.0257 21.1001 17.525 21.0178 18.0244 20.8306C19.6789 20.2242 20.7446 18.7192 20.8713 17.0721C20.9831 19.0636 19.7981 20.9729 17.8455 21.6916C17.3238 21.8863 16.7872 21.9761 16.2581 21.9761C14.3725 21.9761 12.6062 20.8081 11.9206 18.9289C11.22 17.0271 11.846 14.9607 13.3217 13.7478ZM13.3217 13.6729C13.3068 13.6729 13.2919 13.6804 13.277 13.6879C11.7417 14.9532 11.1678 17.0721 11.846 18.9513C12.5168 20.8081 14.2905 22.051 16.2581 22.051C16.8096 22.051 17.3462 21.9537 17.8679 21.7665C18.8367 21.4146 19.6342 20.7707 20.1931 19.9022C20.7297 19.0636 20.998 18.0604 20.9459 17.0721C20.9459 17.0346 20.9086 17.0047 20.8713 17.0047C20.8341 17.0047 20.7968 17.0346 20.7968 17.0721C20.6626 18.7417 19.5596 20.1942 17.9946 20.7707C17.5176 20.9429 17.0257 21.0328 16.5264 21.0328C14.7303 21.0328 13.113 19.8947 12.5019 18.2026C11.9504 16.6753 12.2858 14.9906 13.3813 13.8002C13.4111 13.7702 13.4111 13.7253 13.3813 13.6954C13.3589 13.6804 13.3366 13.6729 13.3217 13.6729Z" fill="white"/>
<path fill-rule="evenodd" clip-rule="evenodd" d="M19.023 19.7075C19.0156 19.7075 19.0007 19.7 18.9932 19.6925C18.9783 19.6776 18.9783 19.6551 18.9932 19.6401C19.9248 18.6294 20.2155 17.1918 19.7385 15.8966C19.2168 14.459 17.8381 13.4932 16.3177 13.4932C15.8929 13.4932 15.4681 13.5681 15.0656 13.7178C13.7316 14.2045 12.8 15.4399 12.6882 16.8624C12.6882 16.8849 12.6733 16.8998 12.6509 16.8998C12.6286 16.8998 12.6137 16.8849 12.6137 16.8624C12.5168 15.1104 13.5527 13.5306 15.1923 12.9317C15.632 12.7744 16.0792 12.6921 16.5413 12.6921C18.1883 12.6921 19.6714 13.7328 20.2378 15.2901C20.8117 16.8624 20.3273 18.6369 19.038 19.7C19.0454 19.7 19.038 19.7075 19.023 19.7075Z" fill="#FFC900"/>
<path d="M16.5491 12.7221C18.1365 12.7221 19.6345 13.7104 20.2084 15.2977C20.7897 16.8999 20.268 18.6444 19.0234 19.6701C19.9326 18.6818 20.268 17.2368 19.7761 15.8891C19.2321 14.3917 17.8235 13.4633 16.3181 13.4633C15.9007 13.4633 15.4759 13.5382 15.0585 13.6879C13.6649 14.1971 12.7631 15.4699 12.6513 16.8625C12.5544 15.1854 13.5531 13.5756 15.2076 12.9692C15.6548 12.797 16.1094 12.7221 16.5491 12.7221ZM16.5491 12.6472C16.087 12.6472 15.6249 12.7296 15.1852 12.8943C14.3654 13.1938 13.6872 13.7403 13.2177 14.4666C12.7631 15.1704 12.5395 16.0239 12.5842 16.8625C12.5842 16.8999 12.6215 16.9299 12.6588 16.9299C12.696 16.9299 12.7333 16.8999 12.7333 16.8625C12.8451 15.4549 13.7692 14.2345 15.0883 13.7553C15.4908 13.6056 15.9007 13.5307 16.3255 13.5307C17.831 13.5307 19.1948 14.4891 19.7091 15.9116C20.1786 17.1919 19.8879 18.6145 18.9712 19.6177C18.9414 19.6477 18.9414 19.6926 18.9712 19.7226C18.9861 19.7375 19.0085 19.745 19.0234 19.745C19.0383 19.745 19.0532 19.7375 19.0681 19.73C20.3724 18.6594 20.8568 16.8625 20.2755 15.2752C19.7091 13.7029 18.2111 12.6472 16.5491 12.6472Z" fill="#FFC900"/>
<path d="M17.0335 17.2293H16.4969C16.2807 17.4614 15.9752 17.6037 15.6398 17.6037H15.0659V15.2527H15.6398C16.1839 15.2527 16.6459 15.6346 16.7726 16.1437H17.0335C17.2049 16.1437 17.3763 16.1736 17.5328 16.226C17.4359 15.2677 16.6236 14.519 15.6473 14.519H14.4846C14.4027 14.519 14.3356 14.5864 14.3356 14.6612L14.3281 17.9032C14.3281 18.1428 14.5219 18.3374 14.7604 18.3374H15.6324C16.3553 18.3374 16.9888 17.9331 17.3092 17.3341C17.2422 17.2742 17.1378 17.2293 17.0335 17.2293Z" fill="#FFAC00"/>
<path d="M17.2792 19.0263C17.9872 18.8915 18.5089 18.2027 18.3673 17.424C18.2481 16.7726 17.6519 16.3159 16.9886 16.3159H15.3564C15.2968 16.3159 15.2446 16.3683 15.2446 16.4282V17.424H15.6396C15.7514 17.424 15.8632 17.4016 15.975 17.3641V17.0497H17.0184C17.2941 17.0497 17.5475 17.2144 17.6295 17.4764C17.7637 17.9107 17.4432 18.315 17.0333 18.3075H16.534C16.2582 18.4348 15.9601 18.5096 15.6396 18.5096H15.4086C15.3192 18.5096 15.2446 18.5845 15.2446 18.6744V19.3931C15.2446 19.7974 15.5726 20.1269 15.975 20.1269V19.0412H16.2731C16.7575 19.5279 17.3612 19.8723 18.0245 20.0445L18.3897 20.1344L17.2792 19.0263Z" fill="white"/>
<path d="M15.6474 14.519H14.5295C14.4326 14.519 14.3581 14.6088 14.3805 14.7062C14.4699 15.2003 14.7233 15.6421 15.0736 15.979V15.2602H15.6474C16.1915 15.2602 16.6535 15.6421 16.7802 16.1512H17.0411C17.2125 16.1512 17.3839 16.1811 17.5404 16.2335C17.4361 15.2677 16.6237 14.519 15.6474 14.519Z" fill="#FFC900"/>
<path d="M17.2867 19.0337C17.1153 19.0711 16.9439 19.0936 16.765 19.0936C16.2433 19.0936 15.7589 18.9214 15.3713 18.6219C15.3192 18.5845 15.2446 18.6219 15.2446 18.6893V19.4006C15.2446 19.8049 15.5726 20.1343 15.975 20.1343V19.0487H16.2731L16.6234 19.4006C17.0929 19.8722 17.7264 20.1343 18.3897 20.1418L17.2867 19.0337Z" fill="white"/>
<path d="M17.0334 16.3234H15.5503C15.6025 16.7127 15.7515 17.0721 15.9676 17.379H15.9751V17.0646H17.0334C17.3762 17.0646 17.6594 17.3491 17.6594 17.6935C17.6594 17.9556 17.4955 18.1802 17.2719 18.2775C17.4582 18.3224 17.652 18.3524 17.8532 18.3524C17.9873 18.3524 18.114 18.3449 18.2482 18.3224C18.3451 18.1353 18.3972 17.9256 18.3972 17.701C18.3898 16.9373 17.7861 16.3234 17.0334 16.3234Z" fill="white"/>
<path d="M17.4881 16.5255C17.6148 16.6004 17.667 16.7352 17.6148 16.825C17.5626 16.9149 17.4136 16.9223 17.2869 16.84C17.1602 16.7651 17.108 16.6303 17.1602 16.5405C17.2124 16.4581 17.3614 16.4507 17.4881 16.5255Z" fill="#F1F1F1"/>
<path d="M17.9129 16.8774C17.9427 16.9373 17.9129 17.0121 17.8533 17.0346C17.7936 17.0645 17.7191 17.0346 17.6968 16.9747C17.6669 16.9148 17.6968 16.8399 17.7564 16.8175C17.816 16.7875 17.8831 16.8175 17.9129 16.8774Z" fill="#F1F1F1"/>
<path d="M17.3166 17.3342C17.3166 17.3342 16.8396 18.3449 15.6397 18.3374H14.7528C14.5218 18.3374 14.3354 18.1503 14.3354 17.9182V17.8358C14.3354 17.8358 15.8558 18.2027 17.3166 17.3342Z" fill="#FF9100"/>
<path d="M27.9593 16.5555C27.9593 16.548 27.9593 16.548 27.9593 16.5555C28.7046 16.2859 29.2933 15.9415 29.6883 15.5297C30.1429 15.0655 30.374 14.489 30.374 13.8301C30.374 12.9766 30.0386 12.2803 29.3753 11.7712C28.712 11.2546 27.8028 11 26.6625 11H6.43572C6.2345 11 6.06308 11.1647 6.06308 11.3744C6.06308 11.4792 6.1078 11.569 6.17487 11.6364C6.24195 11.7038 6.33138 11.7487 6.43572 11.7487H7.13628C7.4642 11.7487 7.69524 11.7787 7.81448 11.846C7.92627 11.9059 7.97844 12.0407 7.97844 12.2504V19.6776C7.97844 20.4488 7.79212 21.0627 7.42694 21.497C7.06175 21.9312 6.57732 22.1483 5.9811 22.1483C5.42215 22.1483 4.94517 21.9986 4.56508 21.6991C4.18499 21.3996 3.99867 21.0627 3.99867 20.6659C3.99867 20.3589 4.11791 20.3215 4.22225 20.3215C4.23716 20.3215 4.29678 20.329 4.51291 20.3964C4.68432 20.4488 4.81847 20.4787 4.90791 20.4787C5.1762 20.4787 5.41469 20.3664 5.60101 20.1418C5.78733 19.9172 5.88422 19.6476 5.88422 19.3257C5.88422 18.9438 5.75752 18.6294 5.51903 18.3973C5.27309 18.1652 4.96753 18.0454 4.59489 18.0454C4.11791 18.0454 3.72292 18.2326 3.43226 18.6069C3.14906 18.9588 3 19.4455 3 20.0295C3 20.8531 3.30556 21.5419 3.90924 22.0884C4.51291 22.635 5.288 22.9045 6.20468 22.9045C7.27043 22.9045 8.13495 22.6125 8.78334 22.036C9.43918 21.4595 9.7671 20.6958 9.7671 19.7674V12.2504C9.7671 11.9134 10.0056 11.7487 10.4826 11.7487H21.6841C21.699 11.7487 21.7139 11.7487 21.7288 11.7487H25.3359C25.3955 11.7487 25.4477 11.7487 25.5073 11.7487C25.5297 11.7487 25.5446 11.7487 25.5669 11.7487C26.6029 11.7562 27.3258 11.8835 27.7059 12.1306C28.1605 12.4151 28.3841 12.9916 28.3841 13.8526C28.3841 15.5073 27.691 16.3084 26.2675 16.3084H24.7024V17.0496H26.4538C27.2364 17.0496 27.8624 17.2667 28.3021 17.701C28.7418 18.1352 28.9654 18.7417 28.9654 19.5054C28.9654 20.3215 28.7418 20.9429 28.3096 21.3472C27.8773 21.7515 27.2065 21.9612 26.3271 21.9612H24.926C24.4118 21.9612 24.1584 21.7815 24.1584 21.4071V12.3402H22.3772V21.5793C22.3772 21.8489 22.4815 22.0884 22.6529 22.2681C22.8243 22.4478 23.0628 22.5601 23.3311 22.5751L26.4687 22.7024C27.84 22.7024 28.943 22.4029 29.7554 21.8114C30.5752 21.2124 30.9925 20.4488 30.9925 19.5278C31 18.0529 29.979 17.0496 27.9593 16.5555Z" fill="white"/>
</g>
<defs>
<clipPath id="clip0_1815_16448">
<rect width="28" height="16" fill="white" transform="translate(3 11)"/>
</clipPath>
</defs>
</svg>
