<svg width="1440" height="316" viewBox="0 0 1440 316" fill="none" xmlns="http://www.w3.org/2000/svg">
<g clip-path="url(#clip0_372_6392)">
<path d="M0 0V316H764V0H0ZM674.167 0.595328H718.49V45.0663H674.167V0.595328ZM718.49 90.1326H674.167V45.6616H718.49V90.1326ZM718.49 135.139H674.167V90.6684H718.49V135.139ZM718.49 180.206H674.167V135.735H718.49V180.206ZM718.49 225.272H674.167V180.801H718.49V225.272ZM718.49 270.338H674.167V225.867H718.49V270.338ZM45.5101 225.867H89.8335V270.338H45.5101V225.867ZM45.5101 180.801H89.8335V225.272H45.5101V180.801ZM45.5101 135.735H89.8335V180.206H45.5101V135.735ZM45.5101 90.728H89.8335V135.139H45.5101V90.728ZM45.5101 45.6616H89.8335V90.1326H45.5101V45.6616ZM673.573 90.1326H629.25V45.6616H673.573V90.1326ZM673.573 135.139H629.25V90.6684H673.573V135.139ZM673.573 180.206H629.25V135.735H673.573V180.206ZM673.573 225.272H629.25V180.801H673.573V225.272ZM90.4268 180.801H134.691V225.272H90.3675V180.801H90.4268ZM90.4268 135.735H134.691V180.206H90.3675V135.735H90.4268ZM90.4268 90.728H134.691V135.139H90.3675V90.728H90.4268ZM628.656 135.139H584.333V90.6684H628.656V135.139ZM628.656 180.206H584.333V135.735H628.656V180.206ZM135.284 135.735H179.608V180.206H135.284V135.735ZM180.201 135.735H224.524V180.206H180.201V135.735ZM225.118 135.735H269.441V180.206H225.118V135.735ZM270.034 135.735H314.358V180.206H270.034V135.735ZM314.951 135.735H359.275V180.206H314.951V135.735ZM359.868 135.735H404.191V180.206H359.868V135.735ZM404.725 135.735H449.049V180.206H404.725V135.735ZM449.642 135.735H493.966V180.206H449.642V135.735ZM494.559 135.735H538.882V180.206H494.559V135.735ZM539.476 135.735H583.799V180.206H539.476V135.735ZM583.799 135.139H539.476V90.6684H583.799V135.139ZM538.882 135.139H494.559V90.6684H538.882V135.139ZM493.966 135.139H449.642V90.6684H493.966V135.139ZM449.049 135.139H404.725V90.6684H449.049V135.139ZM404.132 135.139H359.809V90.6684H404.132V135.139ZM359.275 135.139H314.951V90.6684H359.275V135.139ZM314.358 135.139H270.034V90.6684H314.358V135.139ZM269.441 135.139H225.118V90.6684H269.441V135.139ZM224.524 135.139H180.201V90.6684H224.524V135.139ZM179.608 135.139H135.284V90.6684H179.608V135.139ZM135.284 180.801H179.608V225.272H135.284V180.801ZM180.201 180.801H224.524V225.272H180.201V180.801ZM225.118 180.801H269.441V225.272H225.118V180.801ZM270.034 180.801H314.358V225.272H270.034V180.801ZM314.951 180.801H359.275V225.272H314.951V180.801ZM359.868 180.801H404.191V225.272H359.868V180.801ZM404.725 180.801H449.049V225.272H404.725V180.801ZM449.642 180.801H493.966V225.272H449.642V180.801ZM494.559 180.801H538.882V225.272H494.559V180.801ZM539.476 180.801H583.799V225.272H539.476V180.801ZM584.392 180.801H628.716V225.272H584.392V180.801ZM628.656 90.1326H584.333V45.6616H628.656V90.1326ZM583.799 90.1326H539.476V45.6616H583.799V90.1326ZM538.882 90.1326H494.559V45.6616H538.882V90.1326ZM493.966 90.1326H449.642V45.6616H493.966V90.1326ZM449.049 90.1326H404.725V45.6616H449.049V90.1326ZM404.132 90.1326H359.809V45.6616H404.132V90.1326ZM359.275 90.1326H314.951V45.6616H359.275V90.1326ZM314.358 90.1326H270.034V45.6616H314.358V90.1326ZM269.441 90.1326H225.118V45.6616H269.441V90.1326ZM224.524 90.1326H180.201V45.6616H224.524V90.1326ZM179.608 90.1326H135.284V45.6616H179.608V90.1326ZM134.691 90.1326H90.3675V45.6616H134.691V90.1326ZM90.4268 225.867H134.691V270.338H90.3675V225.867H90.4268ZM135.284 225.867H179.608V270.338H135.284V225.867ZM180.201 225.867H224.524V270.338H180.201V225.867ZM225.118 225.867H269.441V270.338H225.118V225.867ZM270.034 225.867H314.358V270.338H270.034V225.867ZM314.951 225.867H359.275V270.338H314.951V225.867ZM359.868 225.867H404.191V270.338H359.868V225.867ZM404.725 225.867H449.049V270.338H404.725V225.867ZM449.642 225.867H493.966V270.338H449.642V225.867ZM494.559 225.867H538.882V270.338H494.559V225.867ZM539.476 225.867H583.799V270.338H539.476V225.867ZM584.392 225.867H628.716V270.338H584.392V225.867ZM629.25 225.867H673.573V270.338H629.25V225.867ZM629.25 0.595328H673.573V45.0663H629.25V0.595328ZM584.392 0.595328H628.716V45.0663H584.392V0.595328ZM539.476 0.595328H583.799V45.0663H539.476V0.595328ZM494.559 0.595328H538.882V45.0663H494.559V0.595328ZM449.642 0.595328H493.966V45.0663H449.642V0.595328ZM404.725 0.595328H449.049V45.0663H404.725V0.595328ZM359.868 0.595328H404.191V45.0663H359.868V0.595328ZM314.951 0.595328H359.275V45.0663H314.951V0.595328ZM270.034 0.595328H314.358V45.0663H270.034V0.595328ZM225.118 0.595328H269.441V45.0663H225.118V0.595328ZM180.201 0.595328H224.524V45.0663H180.201V0.595328ZM135.284 0.595328H179.608V45.0663H135.284V0.595328ZM90.4268 0.595328H134.691V45.0663H90.3675V0.595328H90.4268ZM45.5101 0.595328H89.8335V45.0663H45.5101V0.595328ZM0.593352 0.595328H44.9167V45.0663H0.593352V0.595328ZM0.593352 45.6616H44.9167V90.1326H0.593352V45.6616ZM0.593352 90.728H44.9167V135.139H0.593352V90.728ZM0.593352 135.735H44.9167V180.206H0.593352V135.735ZM0.593352 180.801H44.9167V225.272H0.593352V180.801ZM0.593352 225.867H44.9167V270.338H0.593352V225.867ZM44.9167 315.405H0.593352V270.934H44.9167V315.405ZM89.8335 315.405H45.5101V270.934H89.8335V315.405ZM134.691 315.405H90.3675V270.934H134.691V315.405ZM179.608 315.405H135.284V270.934H179.608V315.405ZM224.524 315.405H180.201V270.934H224.524V315.405ZM269.441 315.405H225.118V270.934H269.441V315.405ZM314.358 315.405H270.034V270.934H314.358V315.405ZM359.275 315.405H314.951V270.934H359.275V315.405ZM404.132 315.405H359.809V270.934H404.132V315.405ZM449.049 315.405H404.725V270.934H449.049V315.405ZM493.966 315.405H449.642V270.934H493.966V315.405ZM538.882 315.405H494.559V270.934H538.882V315.405ZM583.799 315.405H539.476V270.934H583.799V315.405ZM628.656 315.405H584.333V270.934H628.656V315.405ZM673.573 315.405H629.25V270.934H673.573V315.405ZM718.49 315.405H674.167V270.934H718.49V315.405ZM763.407 315.405H719.083V270.934H763.407V315.405ZM763.407 270.338H719.083V225.867H763.407V270.338ZM763.407 225.272H719.083V180.801H763.407V225.272ZM763.407 180.206H719.083V135.735H763.407V180.206ZM763.407 135.139H719.083V90.6684H763.407V135.139ZM763.407 90.1326H719.083V45.6616H763.407V90.1326ZM719.083 45.0663V0.595328H763.407V45.0663H719.083Z" fill="#C2DBFF"/>
<g clip-path="url(#clip1_372_6392)">
<path d="M763 0V316H1527V0H763ZM1437.17 0.595328H1481.49V45.0663H1437.17V0.595328ZM1481.49 90.1326H1437.17V45.6616H1481.49V90.1326ZM1481.49 135.139H1437.17V90.6684H1481.49V135.139ZM1481.49 180.206H1437.17V135.735H1481.49V180.206ZM1481.49 225.272H1437.17V180.801H1481.49V225.272ZM1481.49 270.338H1437.17V225.867H1481.49V270.338ZM808.51 225.867H852.833V270.338H808.51V225.867ZM808.51 180.801H852.833V225.272H808.51V180.801ZM808.51 135.735H852.833V180.206H808.51V135.735ZM808.51 90.728H852.833V135.139H808.51V90.728ZM808.51 45.6616H852.833V90.1326H808.51V45.6616ZM1436.57 90.1326H1392.25V45.6616H1436.57V90.1326ZM1436.57 135.139H1392.25V90.6684H1436.57V135.139ZM1436.57 180.206H1392.25V135.735H1436.57V180.206ZM1436.57 225.272H1392.25V180.801H1436.57V225.272ZM853.427 180.801H897.691V225.272H853.368V180.801H853.427ZM853.427 135.735H897.691V180.206H853.368V135.735H853.427ZM853.427 90.728H897.691V135.139H853.368V90.728H853.427ZM1391.66 135.139H1347.33V90.6684H1391.66V135.139ZM1391.66 180.206H1347.33V135.735H1391.66V180.206ZM898.284 135.735H942.608V180.206H898.284V135.735ZM943.201 135.735H987.524V180.206H943.201V135.735ZM988.118 135.735H1032.44V180.206H988.118V135.735ZM1033.03 135.735H1077.36V180.206H1033.03V135.735ZM1077.95 135.735H1122.27V180.206H1077.95V135.735ZM1122.87 135.735H1167.19V180.206H1122.87V135.735ZM1167.73 135.735H1212.05V180.206H1167.73V135.735ZM1212.64 135.735H1256.97V180.206H1212.64V135.735ZM1257.56 135.735H1301.88V180.206H1257.56V135.735ZM1302.48 135.735H1346.8V180.206H1302.48V135.735ZM1346.8 135.139H1302.48V90.6684H1346.8V135.139ZM1301.88 135.139H1257.56V90.6684H1301.88V135.139ZM1256.97 135.139H1212.64V90.6684H1256.97V135.139ZM1212.05 135.139H1167.73V90.6684H1212.05V135.139ZM1167.13 135.139H1122.81V90.6684H1167.13V135.139ZM1122.27 135.139H1077.95V90.6684H1122.27V135.139ZM1077.36 135.139H1033.03V90.6684H1077.36V135.139ZM1032.44 135.139H988.118V90.6684H1032.44V135.139ZM987.524 135.139H943.201V90.6684H987.524V135.139ZM942.608 135.139H898.284V90.6684H942.608V135.139ZM898.284 180.801H942.608V225.272H898.284V180.801ZM943.201 180.801H987.524V225.272H943.201V180.801ZM988.118 180.801H1032.44V225.272H988.118V180.801ZM1033.03 180.801H1077.36V225.272H1033.03V180.801ZM1077.95 180.801H1122.27V225.272H1077.95V180.801ZM1122.87 180.801H1167.19V225.272H1122.87V180.801ZM1167.73 180.801H1212.05V225.272H1167.73V180.801ZM1212.64 180.801H1256.97V225.272H1212.64V180.801ZM1257.56 180.801H1301.88V225.272H1257.56V180.801ZM1302.48 180.801H1346.8V225.272H1302.48V180.801ZM1347.39 180.801H1391.72V225.272H1347.39V180.801ZM1391.66 90.1326H1347.33V45.6616H1391.66V90.1326ZM1346.8 90.1326H1302.48V45.6616H1346.8V90.1326ZM1301.88 90.1326H1257.56V45.6616H1301.88V90.1326ZM1256.97 90.1326H1212.64V45.6616H1256.97V90.1326ZM1212.05 90.1326H1167.73V45.6616H1212.05V90.1326ZM1167.13 90.1326H1122.81V45.6616H1167.13V90.1326ZM1122.27 90.1326H1077.95V45.6616H1122.27V90.1326ZM1077.36 90.1326H1033.03V45.6616H1077.36V90.1326ZM1032.44 90.1326H988.118V45.6616H1032.44V90.1326ZM987.524 90.1326H943.201V45.6616H987.524V90.1326ZM942.608 90.1326H898.284V45.6616H942.608V90.1326ZM897.691 90.1326H853.368V45.6616H897.691V90.1326ZM853.427 225.867H897.691V270.338H853.368V225.867H853.427ZM898.284 225.867H942.608V270.338H898.284V225.867ZM943.201 225.867H987.524V270.338H943.201V225.867ZM988.118 225.867H1032.44V270.338H988.118V225.867ZM1033.03 225.867H1077.36V270.338H1033.03V225.867ZM1077.95 225.867H1122.27V270.338H1077.95V225.867ZM1122.87 225.867H1167.19V270.338H1122.87V225.867ZM1167.73 225.867H1212.05V270.338H1167.73V225.867ZM1212.64 225.867H1256.97V270.338H1212.64V225.867ZM1257.56 225.867H1301.88V270.338H1257.56V225.867ZM1302.48 225.867H1346.8V270.338H1302.48V225.867ZM1347.39 225.867H1391.72V270.338H1347.39V225.867ZM1392.25 225.867H1436.57V270.338H1392.25V225.867ZM1392.25 0.595328H1436.57V45.0663H1392.25V0.595328ZM1347.39 0.595328H1391.72V45.0663H1347.39V0.595328ZM1302.48 0.595328H1346.8V45.0663H1302.48V0.595328ZM1257.56 0.595328H1301.88V45.0663H1257.56V0.595328ZM1212.64 0.595328H1256.97V45.0663H1212.64V0.595328ZM1167.73 0.595328H1212.05V45.0663H1167.73V0.595328ZM1122.87 0.595328H1167.19V45.0663H1122.87V0.595328ZM1077.95 0.595328H1122.27V45.0663H1077.95V0.595328ZM1033.03 0.595328H1077.36V45.0663H1033.03V0.595328ZM988.118 0.595328H1032.44V45.0663H988.118V0.595328ZM943.201 0.595328H987.524V45.0663H943.201V0.595328ZM898.284 0.595328H942.608V45.0663H898.284V0.595328ZM853.427 0.595328H897.691V45.0663H853.368V0.595328H853.427ZM808.51 0.595328H852.833V45.0663H808.51V0.595328ZM763.593 0.595328H807.917V45.0663H763.593V0.595328ZM763.593 45.6616H807.917V90.1326H763.593V45.6616ZM763.593 90.728H807.917V135.139H763.593V90.728ZM763.593 135.735H807.917V180.206H763.593V135.735ZM763.593 180.801H807.917V225.272H763.593V180.801ZM763.593 225.867H807.917V270.338H763.593V225.867ZM807.917 315.405H763.593V270.934H807.917V315.405ZM852.833 315.405H808.51V270.934H852.833V315.405ZM897.691 315.405H853.368V270.934H897.691V315.405ZM942.608 315.405H898.284V270.934H942.608V315.405ZM987.524 315.405H943.201V270.934H987.524V315.405ZM1032.44 315.405H988.118V270.934H1032.44V315.405ZM1077.36 315.405H1033.03V270.934H1077.36V315.405ZM1122.27 315.405H1077.95V270.934H1122.27V315.405ZM1167.13 315.405H1122.81V270.934H1167.13V315.405ZM1212.05 315.405H1167.73V270.934H1212.05V315.405ZM1256.97 315.405H1212.64V270.934H1256.97V315.405ZM1301.88 315.405H1257.56V270.934H1301.88V315.405ZM1346.8 315.405H1302.48V270.934H1346.8V315.405ZM1391.66 315.405H1347.33V270.934H1391.66V315.405ZM1436.57 315.405H1392.25V270.934H1436.57V315.405ZM1481.49 315.405H1437.17V270.934H1481.49V315.405ZM1526.41 315.405H1482.08V270.934H1526.41V315.405ZM1526.41 270.338H1482.08V225.867H1526.41V270.338ZM1526.41 225.272H1482.08V180.801H1526.41V225.272ZM1526.41 180.206H1482.08V135.735H1526.41V180.206ZM1526.41 135.139H1482.08V90.6684H1526.41V135.139ZM1526.41 90.1326H1482.08V45.6616H1526.41V90.1326ZM1482.08 45.0663V0.595328H1526.41V45.0663H1482.08Z" fill="#C2DBFF"/>
</g>
<path d="M257.55 331C122.332 294.92 -87.8791 223.098 153.018 224.444C454.14 226.126 800.995 295.668 647.761 180.139C494.528 64.6097 658.452 41.616 779.613 75.2653C900.775 108.915 1231.59 182.943 1544 -24" stroke="url(#paint0_linear_372_6392)" stroke-opacity="0.2" stroke-width="20"/>
</g>
<defs>
<linearGradient id="paint0_linear_372_6392" x1="1532.37" y1="-24.0001" x2="88.7385" y2="404.05" gradientUnits="userSpaceOnUse">
<stop offset="0.065" stop-color="#76ACF9"/>
<stop offset="0.16" stop-color="#BCD8FF"/>
<stop offset="0.33" stop-color="#5894EA"/>
<stop offset="0.55" stop-color="#BCD8FF"/>
<stop offset="0.605" stop-color="#BCD8FF"/>
<stop offset="0.725" stop-color="#76ACF9"/>
<stop offset="0.96" stop-color="#BCD8FF"/>
</linearGradient>
<clipPath id="clip0_372_6392">
<rect width="1440" height="316" fill="white"/>
</clipPath>
<clipPath id="clip1_372_6392">
<rect width="763" height="316" fill="white" transform="translate(764)"/>
</clipPath>
</defs>
</svg>
