<svg width="1143" height="305" viewBox="0 0 1143 305" fill="none" xmlns="http://www.w3.org/2000/svg">
<g clip-path="url(#clip0_378_7565)">
<rect width="1142" height="305" transform="translate(0.5)" fill="#D6E6FF"/>
<g opacity="0.3" clip-path="url(#clip1_378_7565)">
<path d="M153.771 87.6825L143.559 92.0589L139.182 102.271L134.441 92.0589L124.594 87.6825L134.441 82.9413L139.182 73.0942L143.559 82.9413L153.771 87.6825Z" stroke="#2373E6" stroke-width="0.5" stroke-miterlimit="10" stroke-linecap="round" stroke-linejoin="round"/>
</g>
<g opacity="0.1" clip-path="url(#clip2_378_7565)">
<path d="M569.787 140.439L591.052 85.1912L547.042 91.0173L542.43 81.1391L531.636 84.8232L503.89 47.3877L480.204 102.902L481.65 102.412L569.787 140.439Z" fill="#E88F00"/>
<path d="M483.169 100.708L542.184 82.2112L569.041 138.319" stroke="#1E2B37" stroke-miterlimit="10" stroke-linecap="round" stroke-linejoin="round"/>
<path d="M503.89 47.3877L591.052 85.1912L537.195 92.3537L503.89 47.3877Z" fill="#F4C500"/>
</g>
<g opacity="0.1" clip-path="url(#clip3_378_7565)">
<path d="M-2.70007 90.8002L6.39993 111.4C6.89993 112.5 8.89993 112.8 10.7999 111.9C12.6999 111.1 13.8999 109.5 13.3999 108.3L4.29993 87.7002L-2.70007 90.8002Z" fill="#E04C32"/>
<path d="M-2.01887 89.7159C14.8328 84.0358 23.8892 65.7702 18.2092 48.9185C12.5291 32.0667 -5.73652 23.0103 -22.5882 28.6904C-39.4399 34.3705 -48.4963 52.6361 -42.8163 69.4878C-37.1362 86.3395 -18.8706 95.3959 -2.01887 89.7159Z" fill="#E04C32"/>
<path d="M10.1 49.4002C15.5 61.8002 9.89999 76.2002 -2.50001 81.6002C-14.9 87.0002 -29.3 81.4002 -34.7 69.0002C-40.1 56.6002 -34.5 42.2002 -22.1 36.8002C-9.70001 31.4002 4.69999 37.0002 10.1 49.4002Z" fill="white"/>
<path d="M-4.20007 90.4003C-4.20007 90.4003 0.899928 89.1003 5.19993 86.3003" stroke="#1E2B37" stroke-miterlimit="10" stroke-linecap="round" stroke-linejoin="round"/>
<path d="M-1.80005 32.8003C-1.80005 32.8003 12.7999 34.5003 16.2999 57.1003" stroke="#1E2B37" stroke-miterlimit="10" stroke-linecap="round" stroke-linejoin="round"/>
<path d="M5 111.6L21.2 147.4C21.9 148.9 24.5 149.2 27.1 148.1C29.7 147 31.3 144.8 30.6 143.3L14.5 107.5L5 111.6Z" fill="#E04C32"/>
<path d="M13.3999 108.3L6.29993 111.4" stroke="#1E2B37" stroke-miterlimit="10" stroke-linecap="round" stroke-linejoin="round"/>
</g>
<g opacity="0.1" clip-path="url(#clip4_378_7565)">
<path d="M892.132 48.227L802.91 24.9834L771.473 145.656L860.695 168.899L892.132 48.227Z" fill="white"/>
<path d="M839.8 43.8999L812.7 151.8" stroke="#1E2B37" stroke-miterlimit="10" stroke-linecap="round" stroke-linejoin="round"/>
<path d="M865.21 88.0059C874.059 83.8523 877.866 73.3111 873.713 64.4614C869.559 55.6116 859.018 51.8047 850.168 55.9583C841.318 60.1119 837.511 70.6531 841.665 79.5028C845.819 88.3525 856.36 92.1595 865.21 88.0059Z" fill="#F5E5D9"/>
<mask id="mask0_378_7565" style="mask-type:luminance" maskUnits="userSpaceOnUse" x="839" y="40" width="37" height="50">
<path d="M840.6 67.1997C837.9 76.5997 843.4 86.3997 852.8 88.9997C862.2 91.6997 872 86.1997 874.6 76.7997C877.3 67.3997 875.8 43.6997 866.4 40.9997C857.1 38.3997 843.3 57.7997 840.6 67.1997Z" fill="white"/>
</mask>
<g mask="url(#mask0_378_7565)">
<path d="M862.7 69.1999C863 69.3999 863.3 69.1999 863.6 68.9999C863.9 69.3999 864.5 69.4999 865 69.4999C865.2 69.4999 865.5 69.3999 865.6 69.2999C865.8 69.0999 865.9 68.7999 866 68.5999C866.1 68.3999 866.1 68.0999 866.1 67.8999C866 67.4999 865.7 67.2999 865.4 67.0999C865.1 66.8999 864.8 66.6999 864.5 66.5999C864.2 66.4999 863.8 66.4999 863.5 66.5999C863.1 66.7999 862.7 67.2999 862.6 67.7999C862.5 68.0999 862.3 68.9999 862.7 69.1999Z" fill="#1E2B37"/>
</g>
<mask id="mask1_378_7565" style="mask-type:luminance" maskUnits="userSpaceOnUse" x="839" y="40" width="37" height="50">
<path d="M840.6 67.1997C837.9 76.5997 843.4 86.3997 852.8 88.9997C862.2 91.6997 872 86.1997 874.6 76.7997C877.3 67.3997 875.8 43.6997 866.4 40.9997C857.1 38.3997 843.3 57.7997 840.6 67.1997Z" fill="white"/>
</mask>
<g mask="url(#mask1_378_7565)">
<path d="M869.3 77.9999L868.6 77.4999C868.3 77.2999 868.1 77.0999 867.8 76.9999L867.7 76.8999C867.2 76.5999 866.6 76.2999 866.1 75.9999L866 75.8999C865.4 75.5999 864.7 75.2999 864.1 74.9999C863.1 74.5999 862.1 74.1999 861 73.8999C858 73.0999 854 71.9999 851 71.0999C850.6 70.9999 850.2 70.8999 849.8 70.7999C849.6 70.7999 849.5 70.6999 849.3 70.6999V70.5999L848.2 70.4999C847.8 70.4999 847.5 70.3999 847.1 70.3999H847C846.3 70.3999 845.5 70.3999 844.8 70.5999C843.9 70.7999 843 70.9999 842.2 71.3999L837.3 73.5999L836.3 84.3999L840.1 85.4999L843.3 86.4999L844.1 86.7999L845.8 87.2999L858.8 91.0999L864.6 92.7999L868.3 93.8999L873 80.5999L869.3 77.9999Z" fill="#E04C32"/>
<path d="M851.6 62.8999C851.6 62.8999 849.8 60.5999 852.7 59.3999L851.6 62.8999Z" fill="#EC9189"/>
<path d="M863.3 66.3998L854.7 63.7998L852.6 71.4998C854.3 74.4998 858.2 75.5998 861.2 73.9998L863.3 66.3998Z" fill="#EC9189"/>
<path d="M857.2 52.6997C858.5 52.8997 861.6 53.2997 866.5 55.8997C866.6 56.1997 867 56.5997 867 56.8997C867.1 58.4997 866.7 60.0997 866.2 61.5997C866.6 61.8997 867 62.1997 867.4 62.5997C868.4 63.7997 868.2 65.3997 867.3 66.5997C866.1 68.0997 864 68.5997 862.4 67.4997C860.4 68.4997 854.5 71.0997 852.2 66.4997C851.7 65.4997 851.5 64.2997 851.6 63.0997C851.6 62.7997 851.7 62.4997 851.8 62.1997C852.3 59.5997 853.9 54.9997 857.2 52.6997Z" fill="#EC9189"/>
<path d="M860.5 62.8996C860.6 62.5996 860.4 62.3995 860.2 62.2995C859.9 62.1995 859.7 62.3995 859.6 62.5995C859.5 62.8995 859.7 63.0995 859.9 63.1995C860.1 63.2995 860.4 63.1996 860.5 62.8996Z" fill="#1E2B37"/>
<path d="M855 61.2999C855.1 60.9999 854.9 60.7999 854.7 60.6999C854.4 60.5999 854.2 60.7999 854.1 60.9999C854 61.2999 854.2 61.4999 854.4 61.5999C854.6 61.6999 854.9 61.5999 855 61.2999Z" fill="#1E2B37"/>
<path d="M852.5 62.3997C853.4 62.6997 854 63.3997 853.8 63.8997C853.6 64.4997 852.8 64.6997 851.9 64.3997C851.8 64.3997 851.6 64.2997 851.6 64.2997C851.5 62.9997 851.6 62.7997 851.8 62.1997C851.9 62.2997 852.2 62.2997 852.5 62.3997Z" fill="#F17874"/>
<path d="M858.4 65.3996C858.4 66.0996 859.1 66.6996 860 66.6996C860.9 66.6996 861.6 66.0996 861.6 65.3996C861.6 64.6996 860.9 64.0996 860 64.0996C859.1 64.1996 858.4 64.6996 858.4 65.3996Z" fill="#F17874"/>
<path d="M857.4 61.0996C857.2 61.4996 857 62.0996 856.8 62.3996C856.4 62.9996 856.1 62.8996 856 63.0996C855.7 63.5996 856.6 63.8996 856.9 63.5996" stroke="#1E2B37" stroke-width="0.75" stroke-miterlimit="10" stroke-linecap="round" stroke-linejoin="round"/>
<path d="M856.3 59.1995L854.2 58.9995" stroke="#1E2B37" stroke-width="0.75" stroke-miterlimit="10" stroke-linecap="round" stroke-linejoin="round"/>
<path d="M861.7 61.3998L859.4 60.2998" stroke="#1E2B37" stroke-width="0.75" stroke-miterlimit="10" stroke-linecap="round" stroke-linejoin="round"/>
<path d="M865.7 64.8999L863.7 65.9999" stroke="#1E2B37" stroke-width="0.75" stroke-miterlimit="10" stroke-linecap="round" stroke-linejoin="round"/>
<path d="M853.5 68.1997C853.5 68.1997 856.2 70.0997 861 68.1997C861 68.1997 859.3 72.4997 853 70.2997L853.5 68.1997Z" fill="#1E2B37"/>
<path d="M858.7 65.4999C858.7 65.4999 857.2 66.6999 854.8 65.3999" stroke="#1E2B37" stroke-width="0.75" stroke-miterlimit="10" stroke-linecap="round" stroke-linejoin="round"/>
<path d="M853.2 56.5996C852.9 56.5996 852.6 56.5996 852.5 56.8996C852.4 56.9996 852.4 57.1996 852.5 57.3996C852.6 57.5996 852.7 57.6996 852.8 57.8996C852.4 57.7996 851.9 58.1996 851.8 58.5996C851.7 58.6996 851.7 58.8996 851.7 58.9996C851.7 59.4996 852.1 59.8996 852.6 59.8996C852.6 59.8996 853.4 57.3996 854 56.8996L853.2 56.5996Z" fill="#1E2B37"/>
<path d="M851.9 71.5996C851.9 71.5996 854.6 79.3996 862.2 74.2996" stroke="white" stroke-width="0.75" stroke-miterlimit="10" stroke-linecap="round" stroke-linejoin="round"/>
</g>
<mask id="mask2_378_7565" style="mask-type:luminance" maskUnits="userSpaceOnUse" x="839" y="40" width="37" height="50">
<path d="M840.6 67.1997C837.9 76.5997 843.4 86.3997 852.8 88.9997C862.2 91.6997 872 86.1997 874.6 76.7997C877.3 67.3997 875.8 43.6997 866.4 40.9997C857.1 38.3997 843.3 57.7997 840.6 67.1997Z" fill="white"/>
</mask>
<g mask="url(#mask2_378_7565)">
<path d="M864.2 60.6996C864.1 60.9996 864.3 61.3996 864.6 61.4996C864.4 61.5996 864.2 61.7996 864.1 61.9996C864 62.1996 864.1 62.4996 864.3 62.6996C864.4 62.7996 864.5 62.8996 864.6 62.9996C864.8 63.0996 865.1 63.0996 865.3 63.0996C865.5 62.9996 865.7 62.8996 865.8 62.5996C866.1 62.6996 866.3 62.7996 866.6 62.8996C866.9 62.8996 867.2 62.8996 867.4 62.6996C867.7 62.4996 867.8 62.0996 867.8 61.6996C867.8 61.3996 867.8 61.1996 867.7 60.8996C867.5 60.3996 867 60.0996 866.5 59.8996C865.6 59.6996 864.3 59.5996 864.2 60.6996Z" fill="#1E2B37"/>
</g>
<mask id="mask3_378_7565" style="mask-type:luminance" maskUnits="userSpaceOnUse" x="839" y="40" width="37" height="50">
<path d="M840.6 67.1997C837.9 76.5997 843.4 86.3997 852.8 88.9997C862.2 91.6997 872 86.1997 874.6 76.7997C877.3 67.3997 875.8 43.6997 866.4 40.9997C857.1 38.3997 843.3 57.7997 840.6 67.1997Z" fill="white"/>
</mask>
<g mask="url(#mask3_378_7565)">
<path opacity="0.4" d="M852.1 61.6001C852.2 61.7001 852.2 61.7001 852.3 61.8001C852.2 61.7001 852.2 61.6001 852.1 61.6001Z" fill="#EEB11B"/>
</g>
<mask id="mask4_378_7565" style="mask-type:luminance" maskUnits="userSpaceOnUse" x="839" y="40" width="37" height="50">
<path d="M840.6 67.1997C837.9 76.5997 843.4 86.3997 852.8 88.9997C862.2 91.6997 872 86.1997 874.6 76.7997C877.3 67.3997 875.8 43.6997 866.4 40.9997C857.1 38.3997 843.3 57.7997 840.6 67.1997Z" fill="white"/>
</mask>
<g mask="url(#mask4_378_7565)">
<path d="M867.6 58.7997C867.8 58.6997 868 58.4997 868.1 58.1997C868.3 57.6997 867.9 57.0997 867.4 56.8997C867.6 56.7997 867.8 56.4997 867.9 56.2997C868.1 55.6997 867.7 55.1997 867.2 54.9997C867 54.8997 866.8 54.9997 866.6 54.9997C866.8 54.3997 866.4 53.8997 865.9 53.6997C865.6 53.5997 865.3 53.6997 865.1 53.7997C865.1 53.2997 864.8 52.8997 864.3 52.6997C864 52.5997 863.7 52.6997 863.5 52.7997C863.4 52.4997 863.1 52.1997 862.7 52.0997C862.4 52.0997 862 52.1997 861.8 52.3997C861.8 51.9997 861.5 51.5997 861 51.3997C860.6 51.2997 860.2 51.3997 859.9 51.6997C859.8 51.3997 859.5 51.1997 859.2 51.0997C858.7 50.9997 858.2 51.1997 858 51.6997C857.9 51.4997 857.7 51.3997 857.5 51.2997C856.9 51.0997 856.4 51.4997 856.2 51.9997C856.1 51.9997 856 51.8997 856 51.8997C855.4 51.6997 854.9 52.0997 854.7 52.5997C854.6 52.7997 854.7 53.0997 854.7 53.2997C854.2 53.1997 853.6 53.4997 853.4 53.9997C853.3 54.2997 853.4 54.5997 853.5 54.7997C853.3 54.8997 853.1 55.0997 853.1 55.3997C852.9 55.9997 853.3 56.4997 853.8 56.6997C854.2 56.7997 854.6 56.6997 854.9 56.3997C855 56.7997 855.2 57.0997 855.7 57.2997C856.1 57.3997 856.5 57.2997 856.8 56.9997C856.9 57.3997 857.1 57.6997 857.6 57.8997C858.1 58.0997 858.4 57.8997 858.7 57.5997C858.8 57.9997 859 58.2997 859.5 58.4997C859.9 58.5997 860.3 58.4997 860.6 58.1997C860.7 58.5997 860.9 58.8997 861.4 59.0997C861.8 59.1997 862.2 59.0997 862.5 58.7997C862.6 59.1997 862.8 59.4997 863.3 59.6997C863.7 59.7997 864.1 59.6997 864.4 59.3997C864.5 59.7997 864.7 60.0997 865.2 60.2997C865.6 60.3997 866 60.2997 866.3 59.9997C866.4 60.3997 866.6 60.6997 867.1 60.8997C867.7 61.0997 868.2 60.6997 868.4 60.1997C868.1 59.4997 868 59.0997 867.6 58.7997Z" fill="#1E2B37"/>
</g>
<path d="M839.1 91.3999L866.9 98.1999" stroke="#855B98" stroke-miterlimit="10" stroke-linecap="round" stroke-linejoin="round"/>
<path d="M837 101.3L864.8 108.1" stroke="#1E2B37" stroke-miterlimit="10" stroke-linecap="round" stroke-linejoin="round"/>
<path d="M833.2 95.1001L870.6 104.4" stroke="#1E2B37" stroke-miterlimit="10" stroke-linecap="round" stroke-linejoin="round"/>
<path d="M809.3 40.7998L828.7 45.4998" stroke="#855B98" stroke-miterlimit="10" stroke-linecap="round" stroke-linejoin="round"/>
<path d="M805.2 43.2998L831.3 49.8998" stroke="#1E2B37" stroke-miterlimit="10" stroke-linecap="round" stroke-linejoin="round"/>
<path d="M804.2 46.5996L830.3 53.0996" stroke="#1E2B37" stroke-miterlimit="10" stroke-linecap="round" stroke-linejoin="round"/>
<path d="M803.2 49.8999L829.3 56.3999" stroke="#1E2B37" stroke-miterlimit="10" stroke-linecap="round" stroke-linejoin="round"/>
<path d="M802.4 64.2002L821.8 68.9002" stroke="#E04C32" stroke-miterlimit="10" stroke-linecap="round" stroke-linejoin="round"/>
<path d="M798.3 66.8003L824.4 73.3003" stroke="#1E2B37" stroke-miterlimit="10" stroke-linecap="round" stroke-linejoin="round"/>
<path d="M797.3 70L823.4 76.6" stroke="#1E2B37" stroke-miterlimit="10" stroke-linecap="round" stroke-linejoin="round"/>
<path d="M796.3 73.3003L822.4 79.8003" stroke="#1E2B37" stroke-miterlimit="10" stroke-linecap="round" stroke-linejoin="round"/>
<path d="M797 87.1001L816.4 91.8001" stroke="#F1B500" stroke-miterlimit="10" stroke-linecap="round" stroke-linejoin="round"/>
<path d="M792.9 89.7002L819.1 96.2002" stroke="#1E2B37" stroke-miterlimit="10" stroke-linecap="round" stroke-linejoin="round"/>
<path d="M791.9 92.8999L818 99.4999" stroke="#1E2B37" stroke-miterlimit="10" stroke-linecap="round" stroke-linejoin="round"/>
<path d="M790.9 96.2002L817 102.7" stroke="#1E2B37" stroke-miterlimit="10" stroke-linecap="round" stroke-linejoin="round"/>
<path d="M790.3 110.8L809.7 115.5" stroke="#9CCBE2" stroke-miterlimit="10" stroke-linecap="round" stroke-linejoin="round"/>
<path d="M786.2 113.3L812.3 119.9" stroke="#1E2B37" stroke-miterlimit="10" stroke-linecap="round" stroke-linejoin="round"/>
<path d="M785.2 116.6L811.3 123.1" stroke="#1E2B37" stroke-miterlimit="10" stroke-linecap="round" stroke-linejoin="round"/>
<path d="M784.2 119.9L810.3 126.4" stroke="#1E2B37" stroke-miterlimit="10" stroke-linecap="round" stroke-linejoin="round"/>
<path d="M832.5 112.1C833.825 112.1 834.9 111.025 834.9 109.7C834.9 108.374 833.825 107.3 832.5 107.3C831.174 107.3 830.1 108.374 830.1 109.7C830.1 111.025 831.174 112.1 832.5 112.1Z" fill="#855B98"/>
<path d="M836.9 111.6L866.1 118.9" stroke="#1E2B37" stroke-miterlimit="10" stroke-linecap="round" stroke-linejoin="round"/>
<path d="M832.3 119.9C832.3 121.2 831.2 122.3 829.9 122.3C828.6 122.3 827.5 121.2 827.5 119.9C827.5 118.6 828.6 117.5 829.9 117.5C831.3 117.6 832.3 118.6 832.3 119.9Z" fill="#855B98"/>
<path d="M834.4 121.8L863.5 129.1" stroke="#1E2B37" stroke-miterlimit="10" stroke-linecap="round" stroke-linejoin="round"/>
<path d="M827.4 132.5C828.725 132.5 829.8 131.425 829.8 130.1C829.8 128.774 828.725 127.7 827.4 127.7C826.075 127.7 825 128.774 825 130.1C825 131.425 826.075 132.5 827.4 132.5Z" fill="#855B98"/>
<path d="M831.8 132L861 139.3" stroke="#1E2B37" stroke-miterlimit="10" stroke-linecap="round" stroke-linejoin="round"/>
<path d="M824.9 142.7C826.225 142.7 827.3 141.625 827.3 140.3C827.3 138.974 826.225 137.9 824.9 137.9C823.575 137.9 822.5 138.974 822.5 140.3C822.5 141.625 823.575 142.7 824.9 142.7Z" fill="#855B98"/>
<path d="M829.3 142.2L858.4 149.5" stroke="#1E2B37" stroke-miterlimit="10" stroke-linecap="round" stroke-linejoin="round"/>
<path d="M824.7 150.5C824.7 151.8 823.6 152.9 822.3 152.9C821 152.9 819.9 151.8 819.9 150.5C819.9 149.2 821 148.1 822.3 148.1C823.6 148.1 824.7 149.2 824.7 150.5Z" fill="#855B98"/>
<path d="M826.7 152.399L855.9 159.699" stroke="#1E2B37" stroke-miterlimit="10" stroke-linecap="round" stroke-linejoin="round"/>
<path d="M882.8 84.8999L860.7 168.9L818.4 158.1" stroke="#1E2B37" stroke-miterlimit="10" stroke-linecap="round" stroke-linejoin="round"/>
</g>
<g opacity="0.1" clip-path="url(#clip5_378_7565)">
<path d="M577.858 198.777L494.557 238.296L548.007 350.96L631.308 311.441L577.858 198.777Z" fill="white"/>
<path d="M534.979 229.087L583.544 329.178" stroke="#1E2B37" stroke-miterlimit="10" stroke-linecap="round" stroke-linejoin="round"/>
<path d="M582.789 246.557C586.901 237.688 583.045 227.164 574.176 223.052C565.307 218.94 554.784 222.796 550.672 231.665C546.559 240.534 550.416 251.058 559.285 255.17C568.154 259.282 578.677 255.426 582.789 246.557Z" fill="#F5E5D9"/>
<mask id="mask5_378_7565" style="mask-type:luminance" maskUnits="userSpaceOnUse" x="547" y="209" width="38" height="48">
<path d="M550.563 246.427C554.534 255.364 565.045 259.34 573.919 255.292C582.856 251.321 586.832 240.81 582.784 231.936C578.813 222.999 562.435 205.802 553.498 209.773C544.701 213.757 546.592 237.489 550.563 246.427Z" fill="white"/>
</mask>
<g mask="url(#mask5_378_7565)">
<path d="M568.782 233.759C569.141 233.72 569.242 233.374 569.343 233.028C569.83 233.141 570.354 232.833 570.737 232.511C570.891 232.383 571.056 232.113 571.069 231.972C571.093 231.691 570.977 231.397 570.925 231.179C570.873 230.962 570.681 230.732 570.552 230.578C570.218 230.336 569.86 230.376 569.502 230.415C569.143 230.455 568.785 230.494 568.491 230.61C568.197 230.727 567.89 230.984 567.725 231.253C567.547 231.663 567.561 232.303 567.806 232.751C567.922 233.045 568.347 233.863 568.782 233.759Z" fill="#1E2B37"/>
</g>
<mask id="mask6_378_7565" style="mask-type:luminance" maskUnits="userSpaceOnUse" x="547" y="209" width="38" height="48">
<path d="M550.563 246.427C554.534 255.364 565.045 259.34 573.919 255.292C582.856 251.321 586.832 240.81 582.784 231.936C578.813 222.999 562.435 205.802 553.498 209.773C544.701 213.757 546.592 237.489 550.563 246.427Z" fill="white"/>
</mask>
<g mask="url(#mask6_378_7565)">
<path d="M579.494 236.261L578.636 236.328C578.278 236.367 577.996 236.342 577.702 236.459L577.561 236.446C576.985 236.538 576.333 236.693 575.757 236.785L575.616 236.772C574.963 236.928 574.234 237.148 573.582 237.304C572.558 237.64 571.535 237.976 570.5 238.453C567.687 239.767 563.915 241.495 561.038 242.733C560.667 242.913 560.296 243.093 559.926 243.274C559.772 243.402 559.632 243.39 559.478 243.518L559.414 243.442L558.507 244.072C558.2 244.329 557.906 244.445 557.6 244.702L557.523 244.766C556.987 245.216 556.374 245.73 555.966 246.333C555.405 247.065 554.844 247.796 554.488 248.617L552.147 253.451L558.32 262.369L561.939 260.77L565.033 259.48L565.839 259.196L567.463 258.487L579.866 253.046L585.402 250.621L588.944 249.087L584 235.876L579.494 236.261Z" fill="#E04C32"/>
<path d="M556.229 236.064C556.229 236.064 553.372 235.458 554.823 232.675L556.229 236.064Z" fill="#EC9189"/>
<path d="M567.443 231.228L559.183 234.761L562.521 242.011C565.751 243.217 569.447 241.554 570.717 238.401L567.443 231.228Z" fill="#EC9189"/>
<path d="M553.966 224.65C555.091 223.968 557.723 222.282 563.148 221.126C563.418 221.292 563.981 221.341 564.174 221.571C565.279 222.733 566 224.216 566.581 225.687C567.08 225.659 567.579 225.632 568.143 225.682C569.68 225.959 570.555 227.313 570.636 228.811C570.681 230.731 569.393 232.464 567.46 232.649C566.57 234.7 563.72 240.484 559.002 238.437C557.976 237.992 557.052 237.201 556.357 236.217C556.165 235.987 556.049 235.693 555.932 235.399C554.645 233.085 552.915 228.533 553.966 224.65Z" fill="#EC9189"/>
<path d="M563.049 230.345C562.932 230.051 562.651 230.026 562.433 230.078C562.139 230.194 562.114 230.476 562.166 230.694C562.282 230.988 562.564 231.012 562.782 230.961C562.999 230.909 563.165 230.639 563.049 230.345Z" fill="#1E2B37"/>
<path d="M557.806 232.653C557.69 232.359 557.408 232.334 557.191 232.386C556.897 232.502 556.872 232.784 556.924 233.002C557.04 233.296 557.322 233.321 557.539 233.269C557.757 233.217 557.922 232.947 557.806 232.653Z" fill="#1E2B37"/>
<path d="M556.597 235.102C557.48 234.754 558.389 234.905 558.557 235.417C558.789 236.005 558.305 236.672 557.423 237.021C557.346 237.085 557.128 237.137 557.128 237.137C556.216 236.205 556.165 235.987 555.932 235.399C556.073 235.411 556.303 235.219 556.597 235.102Z" fill="#F17874"/>
<path d="M563.046 233.61C563.496 234.147 564.417 234.157 565.107 233.578C565.797 233 565.948 232.091 565.498 231.554C565.048 231.018 564.126 231.008 563.436 231.586C562.811 232.241 562.596 233.074 563.046 233.61Z" fill="#F17874"/>
<path d="M559.516 230.958C559.62 231.393 559.852 231.981 559.892 232.34C559.971 233.057 559.677 233.173 559.729 233.39C559.82 233.966 560.702 233.618 560.74 233.195" stroke="#1E2B37" stroke-width="0.75" stroke-miterlimit="10" stroke-linecap="round" stroke-linejoin="round"/>
<path d="M557.453 230.209L555.715 231.405" stroke="#1E2B37" stroke-width="0.75" stroke-miterlimit="10" stroke-linecap="round" stroke-linejoin="round"/>
<path d="M563.004 228.425L560.535 229.06" stroke="#1E2B37" stroke-width="0.75" stroke-miterlimit="10" stroke-linecap="round" stroke-linejoin="round"/>
<path d="M568.318 228.537L567.492 230.665" stroke="#1E2B37" stroke-width="0.75" stroke-miterlimit="10" stroke-linecap="round" stroke-linejoin="round"/>
<path d="M561.09 238.904C561.09 238.904 564.38 238.625 566.837 234.085C566.837 234.085 568.297 238.472 562.057 240.835L561.09 238.904Z" fill="#1E2B37"/>
<path d="M563.34 233.494C563.34 233.494 562.962 235.377 560.287 235.923" stroke="#1E2B37" stroke-width="0.75" stroke-miterlimit="10" stroke-linecap="round" stroke-linejoin="round"/>
<path d="M553.407 230.209C553.177 230.401 552.947 230.594 553.063 230.888C553.051 231.029 553.179 231.182 553.384 231.271C553.59 231.36 553.73 231.373 553.936 231.462C553.565 231.642 553.439 232.27 553.619 232.641C553.607 232.781 553.735 232.935 553.8 233.011C554.121 233.394 554.684 233.444 555.067 233.123C555.067 233.123 554.074 230.693 554.213 229.924L553.407 230.209Z" fill="#1E2B37"/>
<path d="M562.049 242.538C562.049 242.538 569.13 246.779 571.676 237.988" stroke="white" stroke-width="0.75" stroke-miterlimit="10" stroke-linecap="round" stroke-linejoin="round"/>
</g>
<mask id="mask7_378_7565" style="mask-type:luminance" maskUnits="userSpaceOnUse" x="547" y="209" width="38" height="48">
<path d="M550.563 246.427C554.534 255.364 565.045 259.34 573.919 255.292C582.856 251.321 586.832 240.81 582.784 231.936C578.813 222.999 562.435 205.802 553.498 209.773C544.701 213.757 546.592 237.489 550.563 246.427Z" fill="white"/>
</mask>
<g mask="url(#mask7_378_7565)">
<path d="M564.47 226.282C564.586 226.576 564.996 226.754 565.29 226.638C565.201 226.843 565.177 227.125 565.229 227.343C565.281 227.56 565.55 227.726 565.832 227.751C565.973 227.763 566.113 227.775 566.254 227.788C566.472 227.736 566.702 227.543 566.855 227.414C566.944 227.209 567.033 227.004 566.917 226.71C567.211 226.594 567.428 226.542 567.723 226.426C567.952 226.233 568.182 226.04 568.207 225.759C568.308 225.413 568.128 225.042 567.871 224.735C567.678 224.505 567.55 224.352 567.28 224.187C566.806 223.932 566.23 224.023 565.718 224.191C564.9 224.616 563.84 225.375 564.47 226.282Z" fill="#1E2B37"/>
</g>
<mask id="mask8_378_7565" style="mask-type:luminance" maskUnits="userSpaceOnUse" x="547" y="209" width="38" height="48">
<path d="M550.563 246.427C554.534 255.364 565.045 259.34 573.919 255.292C582.856 251.321 586.832 240.81 582.784 231.936C578.813 222.999 562.435 205.802 553.498 209.773C544.701 213.757 546.592 237.489 550.563 246.427Z" fill="white"/>
</mask>
<g mask="url(#mask8_378_7565)">
<path opacity="0.4" d="M555.777 234.747C555.918 234.759 555.918 234.759 556.059 234.771C555.918 234.759 555.854 234.682 555.777 234.747Z" fill="#EEB11B"/>
</g>
<mask id="mask9_378_7565" style="mask-type:luminance" maskUnits="userSpaceOnUse" x="547" y="209" width="38" height="48">
<path d="M550.563 246.427C554.534 255.364 565.045 259.34 573.919 255.292C582.856 251.321 586.832 240.81 582.784 231.936C578.813 222.999 562.435 205.802 553.498 209.773C544.701 213.757 546.592 237.489 550.563 246.427Z" fill="white"/>
</mask>
<g mask="url(#mask9_378_7565)">
<path d="M565.854 222.642C565.943 222.437 565.968 222.155 565.852 221.861C565.684 221.349 564.992 221.146 564.48 221.314C564.569 221.109 564.53 220.751 564.478 220.533C564.246 219.945 563.618 219.819 563.106 219.987C562.889 220.039 562.8 220.244 562.646 220.373C562.414 219.784 561.786 219.658 561.275 219.826C560.981 219.942 560.815 220.212 560.726 220.417C560.405 220.034 559.918 219.92 559.406 220.088C559.112 220.204 558.946 220.474 558.857 220.679C558.588 220.513 558.165 220.476 557.795 220.656C557.565 220.849 557.323 221.183 557.298 221.465C557.041 221.158 556.554 221.044 556.042 221.212C555.671 221.393 555.429 221.726 555.392 222.149C555.123 221.983 554.764 222.023 554.47 222.139C554.023 222.384 553.768 222.858 553.936 223.37C553.731 223.281 553.514 223.333 553.296 223.385C552.708 223.617 552.582 224.245 552.75 224.756C552.673 224.821 552.532 224.808 552.532 224.808C551.944 225.04 551.818 225.668 551.986 226.18C552.038 226.397 552.307 226.563 552.436 226.716C551.988 226.961 551.721 227.576 551.889 228.088C552.006 228.382 552.275 228.548 552.48 228.637C552.391 228.842 552.366 229.124 552.559 229.353C552.791 229.942 553.419 230.068 553.931 229.9C554.302 229.719 554.544 229.386 554.581 228.963C554.914 229.205 555.261 229.307 555.772 229.139C556.143 228.958 556.385 228.625 556.422 228.202C556.756 228.444 557.102 228.546 557.614 228.378C558.125 228.21 558.227 227.864 558.264 227.441C558.597 227.683 558.943 227.785 559.455 227.617C559.826 227.436 560.068 227.102 560.105 226.68C560.439 226.922 560.785 227.023 561.296 226.855C561.667 226.675 561.909 226.341 561.946 225.919C562.28 226.161 562.626 226.262 563.138 226.094C563.508 225.914 563.751 225.58 563.788 225.158C564.121 225.4 564.467 225.501 564.979 225.333C565.35 225.153 565.592 224.819 565.629 224.397C565.963 224.639 566.309 224.74 566.821 224.572C567.409 224.34 567.535 223.712 567.367 223.2C566.687 222.857 566.354 222.615 565.854 222.642Z" fill="#1E2B37"/>
</g>
<path d="M564.963 265.934L590.634 253.281" stroke="#855B98" stroke-miterlimit="10" stroke-linecap="round" stroke-linejoin="round"/>
<path d="M569.715 274.869L595.386 262.216" stroke="#1E2B37" stroke-miterlimit="10" stroke-linecap="round" stroke-linejoin="round"/>
<path d="M562.82 272.56L597.453 255.654" stroke="#1E2B37" stroke-miterlimit="10" stroke-linecap="round" stroke-linejoin="round"/>
<path d="M509.616 246.31L527.501 237.446" stroke="#855B98" stroke-miterlimit="10" stroke-linecap="round" stroke-linejoin="round"/>
<path d="M508.081 250.859L532.321 239.146" stroke="#1E2B37" stroke-miterlimit="10" stroke-linecap="round" stroke-linejoin="round"/>
<path d="M509.435 254.031L533.611 242.241" stroke="#1E2B37" stroke-miterlimit="10" stroke-linecap="round" stroke-linejoin="round"/>
<path d="M510.789 257.202L534.965 245.412" stroke="#1E2B37" stroke-miterlimit="10" stroke-linecap="round" stroke-linejoin="round"/>
<path d="M519.365 268.673L537.25 259.809" stroke="#E04C32" stroke-miterlimit="10" stroke-linecap="round" stroke-linejoin="round"/>
<path d="M517.894 273.3L542.07 261.51" stroke="#1E2B37" stroke-miterlimit="10" stroke-linecap="round" stroke-linejoin="round"/>
<path d="M519.184 276.395L543.424 264.681" stroke="#1E2B37" stroke-miterlimit="10" stroke-linecap="round" stroke-linejoin="round"/>
<path d="M520.538 279.565L544.714 267.776" stroke="#1E2B37" stroke-miterlimit="10" stroke-linecap="round" stroke-linejoin="round"/>
<path d="M529.941 289.69L547.827 280.826" stroke="#F1B500" stroke-miterlimit="10" stroke-linecap="round" stroke-linejoin="round"/>
<path d="M528.47 294.317L552.723 282.463" stroke="#1E2B37" stroke-miterlimit="10" stroke-linecap="round" stroke-linejoin="round"/>
<path d="M529.76 297.412L554 285.698" stroke="#1E2B37" stroke-miterlimit="10" stroke-linecap="round" stroke-linejoin="round"/>
<path d="M531.115 300.583L555.29 288.793" stroke="#1E2B37" stroke-miterlimit="10" stroke-linecap="round" stroke-linejoin="round"/>
<path d="M540.036 312.155L557.921 303.291" stroke="#9CCBE2" stroke-miterlimit="10" stroke-linecap="round" stroke-linejoin="round"/>
<path d="M538.501 316.705L562.741 304.992" stroke="#1E2B37" stroke-miterlimit="10" stroke-linecap="round" stroke-linejoin="round"/>
<path d="M539.855 319.876L564.03 308.087" stroke="#1E2B37" stroke-miterlimit="10" stroke-linecap="round" stroke-linejoin="round"/>
<path d="M573.207 286.036C574.223 285.184 574.356 283.67 573.504 282.655C572.652 281.639 571.138 281.506 570.123 282.358C569.107 283.209 568.974 284.723 569.826 285.739C570.678 286.755 572.191 286.887 573.207 286.036Z" fill="#855B98"/>
<path d="M576.257 282.825L603.322 269.656" stroke="#1E2B37" stroke-miterlimit="10" stroke-linecap="round" stroke-linejoin="round"/>
<path d="M578.065 292.141C578.901 293.137 578.765 294.687 577.769 295.522C576.772 296.357 575.223 296.221 574.387 295.225C573.552 294.229 573.688 292.679 574.684 291.844C575.821 291.021 577.23 291.145 578.065 292.141Z" fill="#855B98"/>
<path d="M580.895 292.248L607.884 279.143" stroke="#1E2B37" stroke-miterlimit="10" stroke-linecap="round" stroke-linejoin="round"/>
<path d="M582.407 304.944C583.423 304.093 583.556 302.579 582.704 301.563C581.852 300.548 580.338 300.415 579.323 301.266C578.307 302.118 578.174 303.632 579.026 304.648C579.878 305.663 581.391 305.796 582.407 304.944Z" fill="#855B98"/>
<path d="M585.457 301.734L612.522 288.566" stroke="#1E2B37" stroke-miterlimit="10" stroke-linecap="round" stroke-linejoin="round"/>
<path d="M590.096 311.156L617.084 298.051" stroke="#1E2B37" stroke-miterlimit="10" stroke-linecap="round" stroke-linejoin="round"/>
<path d="M594.657 320.643L621.722 307.474" stroke="#1E2B37" stroke-miterlimit="10" stroke-linecap="round" stroke-linejoin="round"/>
<path d="M594.272 232.874L631.312 311.439L591.96 330.343" stroke="#1E2B37" stroke-miterlimit="10" stroke-linecap="round" stroke-linejoin="round"/>
</g>
<g opacity="0.1" clip-path="url(#clip6_378_7565)">
<path d="M945.229 330.375L969.285 339L989.575 282.149L975.117 276.925L945.229 330.375Z" fill="#E88F00"/>
<path d="M892.5 282.149L976.818 285.914C988.238 286.036 993.341 271.58 984.472 264.413L916.799 214L892.5 282.149Z" fill="#E88F00"/>
<path d="M968.921 270.973C966.248 278.383 970.136 286.522 977.547 289.073C984.958 291.745 993.098 287.858 995.65 280.448C998.322 273.038 994.435 264.899 987.023 262.348C979.734 259.797 971.593 263.684 968.921 270.973Z" fill="#F4C500"/>
<path d="M925.182 220.195L902.827 282.635" stroke="#1E2B37" stroke-miterlimit="10" stroke-linecap="round" stroke-linejoin="round"/>
<path d="M979.977 261.983L971.958 284.457" stroke="#1E2B37" stroke-miterlimit="10" stroke-linecap="round" stroke-linejoin="round"/>
<path d="M981.556 292.353L965.519 334.748" stroke="#1E2B37" stroke-miterlimit="10" stroke-linecap="round" stroke-linejoin="round"/>
</g>
<g opacity="0.1" clip-path="url(#clip7_378_7565)">
<path d="M267.629 150.881L121.694 240.335L153.541 292.107L299.475 202.652L267.629 150.881Z" fill="#74AFCB"/>
<path d="M271.07 148.549L205.549 214.288L118.261 242.335L86.5 190.675L239.42 97L271.07 148.549Z" fill="#9CCBE2"/>
<path d="M263.741 148.993L265.296 147.441L264.185 145.556" stroke="#1E2B37" stroke-linecap="round" stroke-linejoin="round"/>
<path d="M261.853 141.897L240.42 106.977" stroke="#1E2B37" stroke-linecap="round" stroke-linejoin="round" stroke-dasharray="3.88 3.88"/>
<path d="M239.309 105.203L238.088 103.319L236.2 104.427" stroke="#1E2B37" stroke-linecap="round" stroke-linejoin="round"/>
<path d="M232.424 106.755L97.3832 189.567" stroke="#1E2B37" stroke-linecap="round" stroke-linejoin="round" stroke-dasharray="4.02 4.02"/>
<path d="M95.4953 190.675L93.6074 191.895L94.718 193.779" stroke="#1E2B37" stroke-linecap="round" stroke-linejoin="round"/>
<path d="M97.05 197.438L118.483 232.358" stroke="#1E2B37" stroke-linecap="round" stroke-linejoin="round" stroke-dasharray="3.89 3.89"/>
<path d="M119.594 234.132L120.815 236.016L122.925 235.351" stroke="#1E2B37" stroke-linecap="round" stroke-linejoin="round"/>
<path d="M127.034 234.021L203.328 209.521L262.186 150.544" stroke="#1E2B37" stroke-linecap="round" stroke-linejoin="round" stroke-dasharray="3.93 3.93"/>
<path d="M128.478 243.333L207.881 218.612L266.295 157.861" stroke="#1E2B37" stroke-miterlimit="10" stroke-linecap="round" stroke-linejoin="round"/>
<path d="M154.687 284.905L292.059 200.764" stroke="#1E2B37" stroke-miterlimit="10" stroke-linecap="round" stroke-linejoin="round"/>
<path d="M139.028 158.526L131.477 146.11L180.784 115.846L188.336 128.262" stroke="#1E2B37" stroke-miterlimit="10" stroke-linecap="round" stroke-linejoin="round"/>
<path d="M154.768 216.175L142.938 223.426L155.84 244.399L167.67 237.148L154.768 216.175Z" fill="#F4C500"/>
<path d="M247.576 158.958L235.991 166.592L249.573 187.132L261.158 179.498L247.576 158.958Z" fill="#F4C500"/>
</g>
<g opacity="0.1" clip-path="url(#clip8_378_7565)">
<path d="M1204.66 102.121L1106.35 34.0093L1023.55 153.528L1121.86 221.64L1204.66 102.121Z" fill="#855B98"/>
<path d="M1036.2 151.2L1119.5 209L1191.9 104.4L1108.6 46.6997L1036.2 151.2Z" fill="#FDF5F1"/>
<path d="M1167.9 68.4L1165.4 66.7C1166.6 65.9 1167.7 64.9 1168.6 63.7C1172 58.8 1170.8 52.1 1165.9 48.7C1161 45.3 1154.3 46.5 1150.9 51.4C1150 52.7 1149.5 54 1149.2 55.4L1147 53.9C1139.9 49 1130.3 50.8 1125.4 57.8L1124.3 59.4L1170.7 91.6L1171.8 90C1176.7 82.9 1175 73.3 1167.9 68.4ZM1153.4 53.1C1155.8 49.6 1160.6 48.7 1164.1 51.2C1167.6 53.6 1168.5 58.4 1166 61.9C1165.1 63.2 1163.9 64.1 1162.5 64.7L1152 57.4C1152 55.9 1152.5 54.4 1153.4 53.1Z" fill="#9CCBE2"/>
<path d="M1129.4 58.1997L1169.7 85.5997" stroke="#1E2B37" stroke-miterlimit="10" stroke-linecap="round" stroke-linejoin="round"/>
</g>
</g>
<defs>
<clipPath id="clip0_378_7565">
<rect width="1142" height="305" fill="white" transform="translate(0.5)"/>
</clipPath>
<clipPath id="clip1_378_7565">
<rect width="31" height="31" fill="white" transform="translate(123.5 72)"/>
</clipPath>
<clipPath id="clip2_378_7565">
<rect width="104.1" height="76" fill="white" transform="translate(493.459 45) rotate(12.8942)"/>
</clipPath>
<clipPath id="clip3_378_7565">
<rect width="75.3" height="121.8" fill="white" transform="translate(-44.5 27)"/>
</clipPath>
<clipPath id="clip4_378_7565">
<rect width="120.6" height="144.4" fill="white" transform="translate(771.5 25)"/>
</clipPath>
<clipPath id="clip5_378_7565">
<rect width="120.6" height="144.4" fill="white" transform="translate(470.5 258.491) rotate(-39.982)"/>
</clipPath>
<clipPath id="clip6_378_7565">
<rect width="104" height="125" fill="white" transform="translate(892.5 214)"/>
</clipPath>
<clipPath id="clip7_378_7565">
<rect width="213" height="195" fill="white" transform="translate(86.5 97)"/>
</clipPath>
<clipPath id="clip8_378_7565">
<rect width="181.1" height="187.6" fill="white" transform="translate(1023.5 34)"/>
</clipPath>
</defs>
</svg>
