<svg width="360" height="114" viewBox="0 0 360 114" fill="none" xmlns="http://www.w3.org/2000/svg">
<path d="M148.762 53V30.65H156.052C158.412 30.65 160.462 31.13 162.202 32.09C163.962 33.03 165.322 34.34 166.282 36.02C167.242 37.68 167.722 39.61 167.722 41.81C167.722 43.99 167.242 45.93 166.282 47.63C165.322 49.31 163.962 50.63 162.202 51.59C160.462 52.53 158.412 53 156.052 53H148.762ZM152.842 49.4H156.142C157.662 49.4 158.972 49.09 160.072 48.47C161.192 47.83 162.062 46.95 162.682 45.83C163.302 44.69 163.612 43.35 163.612 41.81C163.612 40.25 163.302 38.91 162.682 37.79C162.062 36.67 161.192 35.8 160.072 35.18C158.972 34.56 157.662 34.25 156.142 34.25H152.842V49.4ZM178.379 53.36C176.699 53.36 175.229 52.98 173.969 52.22C172.709 51.46 171.729 50.43 171.029 49.13C170.329 47.83 169.979 46.39 169.979 44.81C169.979 43.17 170.329 41.72 171.029 40.46C171.749 39.18 172.719 38.17 173.939 37.43C175.179 36.69 176.559 36.32 178.079 36.32C179.359 36.32 180.479 36.53 181.439 36.95C182.419 37.37 183.249 37.95 183.929 38.69C184.609 39.43 185.129 40.28 185.489 41.24C185.849 42.18 186.029 43.2 186.029 44.3C186.029 44.58 186.009 44.87 185.969 45.17C185.949 45.47 185.899 45.73 185.819 45.95H173.219V42.95H183.599L181.739 44.36C181.919 43.44 181.869 42.62 181.589 41.9C181.329 41.18 180.889 40.61 180.269 40.19C179.669 39.77 178.939 39.56 178.079 39.56C177.259 39.56 176.529 39.77 175.889 40.19C175.249 40.59 174.759 41.19 174.419 41.99C174.099 42.77 173.979 43.72 174.059 44.84C173.979 45.84 174.109 46.73 174.449 47.51C174.809 48.27 175.329 48.86 176.009 49.28C176.709 49.7 177.509 49.91 178.409 49.91C179.309 49.91 180.069 49.72 180.689 49.34C181.329 48.96 181.829 48.45 182.189 47.81L185.369 49.37C185.049 50.15 184.549 50.84 183.869 51.44C183.189 52.04 182.379 52.51 181.439 52.85C180.519 53.19 179.499 53.36 178.379 53.36ZM195.218 53.36C193.478 53.36 191.958 52.95 190.658 52.13C189.378 51.29 188.498 50.16 188.018 48.74L190.958 47.33C191.378 48.25 191.958 48.97 192.698 49.49C193.458 50.01 194.298 50.27 195.218 50.27C195.938 50.27 196.508 50.11 196.928 49.79C197.348 49.47 197.558 49.05 197.558 48.53C197.558 48.21 197.468 47.95 197.288 47.75C197.128 47.53 196.898 47.35 196.598 47.21C196.318 47.05 196.008 46.92 195.668 46.82L192.998 46.07C191.618 45.67 190.568 45.06 189.848 44.24C189.148 43.42 188.798 42.45 188.798 41.33C188.798 40.33 189.048 39.46 189.548 38.72C190.068 37.96 190.778 37.37 191.678 36.95C192.598 36.53 193.648 36.32 194.828 36.32C196.368 36.32 197.728 36.69 198.908 37.43C200.088 38.17 200.928 39.21 201.428 40.55L198.428 41.96C198.148 41.22 197.678 40.63 197.018 40.19C196.358 39.75 195.618 39.53 194.798 39.53C194.138 39.53 193.618 39.68 193.238 39.98C192.858 40.28 192.668 40.67 192.668 41.15C192.668 41.45 192.748 41.71 192.908 41.93C193.068 42.15 193.288 42.33 193.568 42.47C193.868 42.61 194.208 42.74 194.588 42.86L197.198 43.64C198.538 44.04 199.568 44.64 200.288 45.44C201.028 46.24 201.398 47.22 201.398 48.38C201.398 49.36 201.138 50.23 200.618 50.99C200.098 51.73 199.378 52.31 198.458 52.73C197.538 53.15 196.458 53.36 195.218 53.36ZM212.278 53.36C210.658 53.36 209.198 52.99 207.898 52.25C206.618 51.49 205.608 50.47 204.868 49.19C204.128 47.89 203.758 46.43 203.758 44.81C203.758 43.19 204.128 41.74 204.868 40.46C205.608 39.18 206.618 38.17 207.898 37.43C209.198 36.69 210.658 36.32 212.278 36.32C213.438 36.32 214.518 36.53 215.518 36.95C216.518 37.35 217.378 37.91 218.098 38.63C218.838 39.33 219.368 40.17 219.688 41.15L216.238 42.65C215.938 41.83 215.428 41.17 214.708 40.67C214.008 40.17 213.198 39.92 212.278 39.92C211.418 39.92 210.648 40.13 209.968 40.55C209.308 40.97 208.788 41.55 208.408 42.29C208.028 43.03 207.838 43.88 207.838 44.84C207.838 45.8 208.028 46.65 208.408 47.39C208.788 48.13 209.308 48.71 209.968 49.13C210.648 49.55 211.418 49.76 212.278 49.76C213.218 49.76 214.038 49.51 214.738 49.01C215.438 48.51 215.938 47.84 216.238 47L219.688 48.56C219.368 49.48 218.848 50.31 218.128 51.05C217.408 51.77 216.548 52.34 215.548 52.76C214.548 53.16 213.458 53.36 212.278 53.36ZM222.67 53V36.68H226.36V40.31L226.06 39.77C226.44 38.55 227.03 37.7 227.83 37.22C228.65 36.74 229.63 36.5 230.77 36.5H231.73V39.98H230.32C229.2 39.98 228.3 40.33 227.62 41.03C226.94 41.71 226.6 42.67 226.6 43.91V53H222.67ZM233.891 53V36.68H237.821V53H233.891ZM233.891 34.85V30.65H237.821V34.85H233.891ZM241.45 59V36.68H245.14V39.92L244.78 39.11C245.34 38.23 246.1 37.55 247.06 37.07C248.02 36.57 249.13 36.32 250.39 36.32C251.93 36.32 253.32 36.7 254.56 37.46C255.8 38.22 256.78 39.24 257.5 40.52C258.24 41.8 258.61 43.24 258.61 44.84C258.61 46.42 258.25 47.86 257.53 49.16C256.81 50.46 255.83 51.49 254.59 52.25C253.35 52.99 251.94 53.36 250.36 53.36C249.18 53.36 248.09 53.13 247.09 52.67C246.11 52.19 245.33 51.51 244.75 50.63L245.38 49.85V59H241.45ZM249.91 49.76C250.81 49.76 251.61 49.55 252.31 49.13C253.01 48.71 253.55 48.13 253.93 47.39C254.33 46.65 254.53 45.8 254.53 44.84C254.53 43.88 254.33 43.04 253.93 42.32C253.55 41.58 253.01 41 252.31 40.58C251.61 40.14 250.81 39.92 249.91 39.92C249.05 39.92 248.27 40.13 247.57 40.55C246.89 40.97 246.35 41.56 245.95 42.32C245.57 43.06 245.38 43.9 245.38 44.84C245.38 45.8 245.57 46.65 245.95 47.39C246.35 48.13 246.89 48.71 247.57 49.13C248.27 49.55 249.05 49.76 249.91 49.76ZM268.753 53.18C266.913 53.18 265.483 52.68 264.463 51.68C263.463 50.66 262.963 49.23 262.963 47.39V40.19H260.143V36.68H260.443C261.243 36.68 261.863 36.47 262.303 36.05C262.743 35.63 262.963 35.02 262.963 34.22V32.96H266.893V36.68H270.643V40.19H266.893V47.18C266.893 47.72 266.983 48.18 267.163 48.56C267.363 48.94 267.663 49.23 268.063 49.43C268.483 49.63 269.013 49.73 269.653 49.73C269.793 49.73 269.953 49.72 270.133 49.7C270.333 49.68 270.523 49.66 270.703 49.64V53C270.423 53.04 270.103 53.08 269.743 53.12C269.383 53.16 269.053 53.18 268.753 53.18ZM273.705 53V36.68H277.635V53H273.705ZM273.705 34.85V30.65H277.635V34.85H273.705ZM289.244 53.36C287.644 53.36 286.184 52.99 284.864 52.25C283.564 51.51 282.524 50.5 281.744 49.22C280.984 47.94 280.604 46.48 280.604 44.84C280.604 43.2 280.984 41.74 281.744 40.46C282.524 39.18 283.564 38.17 284.864 37.43C286.164 36.69 287.624 36.32 289.244 36.32C290.844 36.32 292.294 36.69 293.594 37.43C294.894 38.17 295.924 39.18 296.684 40.46C297.464 41.72 297.854 43.18 297.854 44.84C297.854 46.48 297.464 47.94 296.684 49.22C295.904 50.5 294.864 51.51 293.564 52.25C292.264 52.99 290.824 53.36 289.244 53.36ZM289.244 49.76C290.124 49.76 290.894 49.55 291.554 49.13C292.234 48.71 292.764 48.13 293.144 47.39C293.544 46.63 293.744 45.78 293.744 44.84C293.744 43.88 293.544 43.04 293.144 42.32C292.764 41.58 292.234 41 291.554 40.58C290.894 40.14 290.124 39.92 289.244 39.92C288.344 39.92 287.554 40.14 286.874 40.58C286.194 41 285.654 41.58 285.254 42.32C284.874 43.04 284.684 43.88 284.684 44.84C284.684 45.78 284.874 46.63 285.254 47.39C285.654 48.13 286.194 48.71 286.874 49.13C287.554 49.55 288.344 49.76 289.244 49.76ZM300.834 53V36.68H304.524V39.89L304.224 39.32C304.604 38.34 305.224 37.6 306.084 37.1C306.964 36.58 307.984 36.32 309.144 36.32C310.344 36.32 311.404 36.58 312.324 37.1C313.264 37.62 313.994 38.35 314.514 39.29C315.034 40.21 315.294 41.28 315.294 42.5V53H311.364V43.43C311.364 42.71 311.224 42.09 310.944 41.57C310.664 41.05 310.274 40.65 309.774 40.37C309.294 40.07 308.724 39.92 308.064 39.92C307.424 39.92 306.854 40.07 306.354 40.37C305.854 40.65 305.464 41.05 305.184 41.57C304.904 42.09 304.764 42.71 304.764 43.43V53H300.834Z" fill="#014DAB"/>
<path d="M347.165 62.0723C345.836 62.4432 344.603 62.5277 343.467 62.3256C342.331 62.1235 341.353 61.6697 340.533 60.9641C339.727 60.2338 339.16 59.2812 338.832 58.106C338.558 57.1236 338.495 56.2276 338.643 55.4181C338.804 54.5839 339.075 53.8438 339.456 53.1978C339.831 52.5325 340.223 51.9663 340.633 51.499C341.061 51.0264 341.422 50.6454 341.715 50.356L343.311 48.8205C343.836 48.321 344.303 47.8376 344.713 47.3703C345.136 46.8784 345.446 46.3872 345.641 45.8967C345.831 45.3868 345.848 44.8526 345.692 44.2939C345.515 43.6582 345.155 43.1876 344.613 42.8821C344.085 42.5519 343.503 42.4755 342.867 42.6529C342.251 42.8249 341.783 43.1943 341.463 43.761C341.158 44.303 341.096 44.9016 341.279 45.5565C341.413 46.0381 341.651 46.4805 341.992 46.8837C342.352 47.2816 342.743 47.6398 343.164 47.9583C343.58 48.2576 343.975 48.521 344.35 48.7486L359.32 58.3067L354.783 59.5726L342.218 51.7107C341.64 51.3527 341.052 50.9563 340.453 50.5212C339.849 50.067 339.305 49.5334 338.823 48.9205C338.34 48.3076 337.981 47.5774 337.744 46.7298C337.433 45.6125 337.421 44.5671 337.71 43.5936C338.013 42.5954 338.536 41.7539 339.279 41.0689C340.036 40.3593 340.935 39.8593 341.975 39.5691C343.035 39.2734 344.053 39.2385 345.03 39.4643C346.026 39.6847 346.887 40.1296 347.613 40.7989C348.359 41.4629 348.877 42.315 349.168 43.3552C349.463 44.4147 349.466 45.39 349.174 46.2811C348.897 47.1475 348.484 47.9376 347.936 48.6512C347.401 49.3402 346.874 49.9441 346.355 50.4629L344.741 52.159C344.382 52.5084 344.012 52.9333 343.633 53.4337C343.267 53.9095 342.991 54.4435 342.803 55.0358C342.61 55.6087 342.61 56.242 342.804 56.9355C343.035 57.7639 343.468 58.3489 344.103 58.6908C344.752 59.008 345.52 59.0429 346.406 58.7957C346.946 58.6451 347.403 58.4241 347.778 58.1324C348.148 57.8215 348.46 57.4855 348.712 57.1244C348.959 56.7441 349.155 56.3676 349.3 55.9948C349.44 55.6028 349.568 55.2451 349.686 54.9217L351.696 49.0659L355.654 47.9612L353.447 55.1179C353.292 55.6802 353.081 56.2998 352.813 56.9767C352.545 57.6536 352.182 58.3258 351.725 58.9933C351.262 59.6416 350.662 60.245 349.925 60.8036C349.202 61.3377 348.282 61.7605 347.165 62.0723Z" fill="#FFC900"/>
<path d="M3.07656 91V81.1392H6.46865C8.99301 81.1392 10.9915 80.4293 12.464 79.0093C13.9891 77.5368 14.7517 75.5909 14.7517 73.1718V32.2299H25.5591V72.7773C25.5591 76.4061 24.7702 79.5878 23.1925 82.3225C21.6674 85.0573 19.4586 87.1872 16.5661 88.7123C13.7262 90.2374 10.3604 91 6.46865 91H3.07656ZM56.7647 91.9466C52.5574 91.9466 48.7183 90.9737 45.2473 89.0278C41.8289 87.082 39.0942 84.4262 37.0432 81.0604C35.0447 77.6946 34.0455 73.8554 34.0455 69.543C34.0455 65.2306 35.0447 61.3914 37.0432 58.0256C39.0942 54.6598 41.8289 52.004 45.2473 50.0581C48.6657 48.1123 52.5048 47.1394 56.7647 47.1394C60.9719 47.1394 64.7847 48.1123 68.2031 50.0581C71.6215 52.004 74.33 54.6598 76.3284 58.0256C78.3794 61.3389 79.405 65.178 79.405 69.543C79.405 73.8554 78.3794 77.6946 76.3284 81.0604C74.2774 84.4262 71.5426 87.082 68.1243 89.0278C64.7059 90.9737 60.9193 91.9466 56.7647 91.9466ZM56.7647 82.4803C59.0787 82.4803 61.1034 81.9281 62.8389 80.8237C64.627 79.7193 66.0206 78.1942 67.0198 76.2483C68.0717 74.2499 68.5976 72.0148 68.5976 69.543C68.5976 67.0186 68.0717 64.8098 67.0198 62.9166C66.0206 60.9707 64.627 59.4456 62.8389 58.3412C61.1034 57.1842 59.0787 56.6057 56.7647 56.6057C54.3981 56.6057 52.3208 57.1842 50.5327 58.3412C48.7446 59.4456 47.3246 60.9707 46.2728 62.9166C45.2736 64.8098 44.774 67.0186 44.774 69.543C44.774 72.0148 45.2736 74.2499 46.2728 76.2483C47.3246 78.1942 48.7446 79.7193 50.5327 80.8237C52.3208 81.9281 54.3981 82.4803 56.7647 82.4803ZM110.671 91.9466C107.568 91.9466 104.702 91.3418 102.072 90.1323C99.4954 88.8701 97.4444 87.082 95.9193 84.768L96.9448 82.717V91H87.2418V31.2833H97.5759V56.6057L95.9981 54.4758C97.4707 52.1618 99.4691 50.3737 101.993 49.1115C104.518 47.7967 107.437 47.1394 110.75 47.1394C114.799 47.1394 118.454 48.1386 121.715 50.137C124.976 52.1355 127.553 54.8176 129.446 58.1834C131.392 61.5492 132.365 65.3357 132.365 69.543C132.365 73.6977 131.418 77.4842 129.525 80.9026C127.631 84.321 125.054 87.0294 121.794 89.0278C118.533 90.9737 114.826 91.9466 110.671 91.9466ZM109.488 82.4803C111.854 82.4803 113.958 81.9281 115.799 80.8237C117.639 79.7193 119.059 78.1942 120.058 76.2483C121.11 74.3025 121.636 72.0674 121.636 69.543C121.636 67.0186 121.11 64.8098 120.058 62.9166C119.059 60.9707 117.639 59.4456 115.799 58.3412C113.958 57.1842 111.854 56.6057 109.488 56.6057C107.226 56.6057 105.175 57.1579 103.335 58.2623C101.546 59.3667 100.127 60.9181 99.0747 62.9166C98.0755 64.8624 97.5759 67.0712 97.5759 69.543C97.5759 72.0674 98.0755 74.3025 99.0747 76.2483C100.127 78.1942 101.546 79.7193 103.335 80.8237C105.175 81.9281 107.226 82.4803 109.488 82.4803Z" fill="#014DAB"/>
<path d="M148.762 91V68.65H157.072C158.592 68.65 159.932 68.93 161.092 69.49C162.272 70.03 163.192 70.83 163.852 71.89C164.512 72.93 164.842 74.2 164.842 75.7C164.842 77.24 164.472 78.55 163.732 79.63C163.012 80.71 162.032 81.51 160.792 82.03L165.922 91H161.302L155.812 81.19L158.452 82.75H152.842V91H148.762ZM152.842 79.15H157.132C157.872 79.15 158.512 79.01 159.052 78.73C159.592 78.43 160.012 78.02 160.312 77.5C160.612 76.98 160.762 76.38 160.762 75.7C160.762 75 160.612 74.4 160.312 73.9C160.012 73.38 159.592 72.98 159.052 72.7C158.512 72.4 157.872 72.25 157.132 72.25H152.842V79.15ZM175.098 91.36C173.418 91.36 171.948 90.98 170.688 90.22C169.428 89.46 168.448 88.43 167.748 87.13C167.048 85.83 166.698 84.39 166.698 82.81C166.698 81.17 167.048 79.72 167.748 78.46C168.468 77.18 169.438 76.17 170.658 75.43C171.898 74.69 173.278 74.32 174.798 74.32C176.078 74.32 177.198 74.53 178.158 74.95C179.138 75.37 179.968 75.95 180.648 76.69C181.328 77.43 181.848 78.28 182.208 79.24C182.568 80.18 182.748 81.2 182.748 82.3C182.748 82.58 182.728 82.87 182.688 83.17C182.668 83.47 182.618 83.73 182.538 83.95H169.938V80.95H180.318L178.458 82.36C178.638 81.44 178.588 80.62 178.308 79.9C178.048 79.18 177.608 78.61 176.988 78.19C176.388 77.77 175.658 77.56 174.798 77.56C173.978 77.56 173.248 77.77 172.608 78.19C171.968 78.59 171.478 79.19 171.138 79.99C170.818 80.77 170.698 81.72 170.778 82.84C170.698 83.84 170.828 84.73 171.168 85.51C171.528 86.27 172.048 86.86 172.728 87.28C173.428 87.7 174.228 87.91 175.128 87.91C176.028 87.91 176.788 87.72 177.408 87.34C178.048 86.96 178.548 86.45 178.908 85.81L182.088 87.37C181.768 88.15 181.268 88.84 180.588 89.44C179.908 90.04 179.098 90.51 178.158 90.85C177.238 91.19 176.218 91.36 175.098 91.36ZM198.297 97V87.85L198.927 88.63C198.367 89.51 197.587 90.19 196.587 90.67C195.587 91.13 194.497 91.36 193.317 91.36C191.737 91.36 190.327 90.99 189.087 90.25C187.847 89.49 186.867 88.46 186.147 87.16C185.427 85.86 185.067 84.42 185.067 82.84C185.067 81.24 185.427 79.8 186.147 78.52C186.867 77.24 187.847 76.22 189.087 75.46C190.347 74.7 191.747 74.32 193.287 74.32C194.527 74.32 195.627 74.57 196.587 75.07C197.567 75.55 198.337 76.23 198.897 77.11L198.507 77.92V74.68H202.227V97H198.297ZM193.737 87.76C194.637 87.76 195.427 87.55 196.107 87.13C196.787 86.71 197.317 86.13 197.697 85.39C198.097 84.65 198.297 83.8 198.297 82.84C198.297 81.9 198.097 81.06 197.697 80.32C197.317 79.56 196.787 78.97 196.107 78.55C195.427 78.13 194.637 77.92 193.737 77.92C192.857 77.92 192.067 78.14 191.367 78.58C190.667 79 190.117 79.58 189.717 80.32C189.337 81.04 189.147 81.88 189.147 82.84C189.147 83.8 189.337 84.65 189.717 85.39C190.117 86.13 190.667 86.71 191.367 87.13C192.067 87.55 192.857 87.76 193.737 87.76ZM211.703 91.36C210.443 91.36 209.343 91.08 208.403 90.52C207.483 89.96 206.773 89.18 206.273 88.18C205.793 87.18 205.553 86.01 205.553 84.67V74.68H209.483V84.34C209.483 85.02 209.613 85.62 209.873 86.14C210.153 86.64 210.543 87.04 211.043 87.34C211.563 87.62 212.143 87.76 212.783 87.76C213.423 87.76 213.993 87.62 214.493 87.34C214.993 87.04 215.383 86.63 215.663 86.11C215.943 85.59 216.083 84.97 216.083 84.25V74.68H220.013V91H216.293V87.79L216.623 88.36C216.243 89.36 215.613 90.11 214.733 90.61C213.873 91.11 212.863 91.36 211.703 91.36ZM223.666 91V74.68H227.596V91H223.666ZM223.666 72.85V68.65H227.596V72.85H223.666ZM231.225 91V74.68H234.915V78.31L234.615 77.77C234.995 76.55 235.585 75.7 236.385 75.22C237.205 74.74 238.185 74.5 239.325 74.5H240.285V77.98H238.875C237.755 77.98 236.855 78.33 236.175 79.03C235.495 79.71 235.155 80.67 235.155 81.91V91H231.225ZM250.186 91.36C248.506 91.36 247.036 90.98 245.776 90.22C244.516 89.46 243.536 88.43 242.836 87.13C242.136 85.83 241.786 84.39 241.786 82.81C241.786 81.17 242.136 79.72 242.836 78.46C243.556 77.18 244.526 76.17 245.746 75.43C246.986 74.69 248.366 74.32 249.886 74.32C251.166 74.32 252.286 74.53 253.246 74.95C254.226 75.37 255.056 75.95 255.736 76.69C256.416 77.43 256.936 78.28 257.296 79.24C257.656 80.18 257.836 81.2 257.836 82.3C257.836 82.58 257.816 82.87 257.776 83.17C257.756 83.47 257.706 83.73 257.626 83.95H245.026V80.95H255.406L253.546 82.36C253.726 81.44 253.676 80.62 253.396 79.9C253.136 79.18 252.696 78.61 252.076 78.19C251.476 77.77 250.746 77.56 249.886 77.56C249.066 77.56 248.336 77.77 247.696 78.19C247.056 78.59 246.566 79.19 246.226 79.99C245.906 80.77 245.786 81.72 245.866 82.84C245.786 83.84 245.916 84.73 246.256 85.51C246.616 86.27 247.136 86.86 247.816 87.28C248.516 87.7 249.316 87.91 250.216 87.91C251.116 87.91 251.876 87.72 252.496 87.34C253.136 86.96 253.636 86.45 253.996 85.81L257.176 87.37C256.856 88.15 256.356 88.84 255.676 89.44C254.996 90.04 254.186 90.51 253.246 90.85C252.326 91.19 251.306 91.36 250.186 91.36ZM260.815 91V74.68H264.505V78.46L264.085 77.83C264.385 76.65 264.985 75.77 265.885 75.19C266.785 74.61 267.845 74.32 269.065 74.32C270.405 74.32 271.585 74.67 272.605 75.37C273.625 76.07 274.285 76.99 274.585 78.13L273.475 78.22C273.975 76.92 274.725 75.95 275.725 75.31C276.725 74.65 277.875 74.32 279.175 74.32C280.335 74.32 281.365 74.58 282.265 75.1C283.185 75.62 283.905 76.35 284.425 77.29C284.945 78.21 285.205 79.28 285.205 80.5V91H281.275V81.43C281.275 80.71 281.145 80.09 280.885 79.57C280.625 79.05 280.265 78.65 279.805 78.37C279.345 78.07 278.785 77.92 278.125 77.92C277.505 77.92 276.955 78.07 276.475 78.37C275.995 78.65 275.625 79.05 275.365 79.57C275.105 80.09 274.975 80.71 274.975 81.43V91H271.045V81.43C271.045 80.71 270.915 80.09 270.655 79.57C270.395 79.05 270.025 78.65 269.545 78.37C269.085 78.07 268.535 77.92 267.895 77.92C267.275 77.92 266.725 78.07 266.245 78.37C265.765 78.65 265.395 79.05 265.135 79.57C264.875 80.09 264.745 80.71 264.745 81.43V91H260.815ZM296.27 91.36C294.59 91.36 293.12 90.98 291.86 90.22C290.6 89.46 289.62 88.43 288.92 87.13C288.22 85.83 287.87 84.39 287.87 82.81C287.87 81.17 288.22 79.72 288.92 78.46C289.64 77.18 290.61 76.17 291.83 75.43C293.07 74.69 294.45 74.32 295.97 74.32C297.25 74.32 298.37 74.53 299.33 74.95C300.31 75.37 301.14 75.95 301.82 76.69C302.5 77.43 303.02 78.28 303.38 79.24C303.74 80.18 303.92 81.2 303.92 82.3C303.92 82.58 303.9 82.87 303.86 83.17C303.84 83.47 303.79 83.73 303.71 83.95H291.11V80.95H301.49L299.63 82.36C299.81 81.44 299.76 80.62 299.48 79.9C299.22 79.18 298.78 78.61 298.16 78.19C297.56 77.77 296.83 77.56 295.97 77.56C295.15 77.56 294.42 77.77 293.78 78.19C293.14 78.59 292.65 79.19 292.31 79.99C291.99 80.77 291.87 81.72 291.95 82.84C291.87 83.84 292 84.73 292.34 85.51C292.7 86.27 293.22 86.86 293.9 87.28C294.6 87.7 295.4 87.91 296.3 87.91C297.2 87.91 297.96 87.72 298.58 87.34C299.22 86.96 299.72 86.45 300.08 85.81L303.26 87.37C302.94 88.15 302.44 88.84 301.76 89.44C301.08 90.04 300.27 90.51 299.33 90.85C298.41 91.19 297.39 91.36 296.27 91.36ZM306.899 91V74.68H310.589V77.89L310.289 77.32C310.669 76.34 311.289 75.6 312.149 75.1C313.029 74.58 314.049 74.32 315.209 74.32C316.409 74.32 317.469 74.58 318.389 75.1C319.329 75.62 320.059 76.35 320.579 77.29C321.099 78.21 321.359 79.28 321.359 80.5V91H317.429V81.43C317.429 80.71 317.289 80.09 317.009 79.57C316.729 79.05 316.339 78.65 315.839 78.37C315.359 78.07 314.789 77.92 314.129 77.92C313.489 77.92 312.919 78.07 312.419 78.37C311.919 78.65 311.529 79.05 311.249 79.57C310.969 80.09 310.829 80.71 310.829 81.43V91H306.899ZM332.122 91.18C330.282 91.18 328.852 90.68 327.832 89.68C326.832 88.66 326.332 87.23 326.332 85.39V78.19H323.512V74.68H323.812C324.612 74.68 325.232 74.47 325.672 74.05C326.112 73.63 326.332 73.02 326.332 72.22V70.96H330.262V74.68H334.012V78.19H330.262V85.18C330.262 85.72 330.352 86.18 330.532 86.56C330.732 86.94 331.032 87.23 331.432 87.43C331.852 87.63 332.382 87.73 333.022 87.73C333.162 87.73 333.322 87.72 333.502 87.7C333.702 87.68 333.892 87.66 334.072 87.64V91C333.792 91.04 333.472 91.08 333.112 91.12C332.752 91.16 332.422 91.18 332.122 91.18Z" fill="#014DAB"/>
</svg>
