<svg width="68" height="68" viewBox="0 0 68 68" fill="none" xmlns="http://www.w3.org/2000/svg">
<g filter="url(#filter0_d_1144_15455)">
<circle cx="34" cy="28" r="22" fill="#F4F9FF"/>
</g>
<circle cx="34" cy="28" r="18" fill="url(#paint0_linear_1144_15455)"/>
<path fill-rule="evenodd" clip-rule="evenodd" d="M27.6358 18.2216C28.0263 18.6121 28.0263 19.2453 27.6358 19.6358C24.1211 23.1505 24.1211 28.849 27.6358 32.3637C28.0263 32.7543 28.0263 33.3874 27.6358 33.778C27.2453 34.1685 26.6121 34.1685 26.2216 33.778C21.9258 29.4822 21.9258 22.5174 26.2216 18.2216C26.6121 17.8311 27.2453 17.8311 27.6358 18.2216ZM40.3642 18.2216C40.7547 17.8311 41.3878 17.8311 41.7784 18.2216C46.0741 22.5174 46.0741 29.4822 41.7784 33.778C41.3878 34.1685 40.7547 34.1685 40.3642 33.778C39.9736 33.3874 39.9736 32.7543 40.3642 32.3637C43.8789 28.849 43.8789 23.1505 40.3642 19.6358C39.9736 19.2453 39.9736 18.6121 40.3642 18.2216ZM30.4644 21.05C30.855 21.4405 30.855 22.0737 30.4644 22.4642C28.5118 24.4168 28.5118 27.5826 30.4644 29.5353C30.855 29.9258 30.855 30.5589 30.4644 30.9495C30.0739 31.34 29.4408 31.34 29.0502 30.9495C26.3166 28.2158 26.3166 23.7836 29.0502 21.05C29.4408 20.6594 30.0739 20.6594 30.4644 21.05ZM37.5355 21.05C37.9261 20.6594 38.5592 20.6594 38.9498 21.05C41.6834 23.7836 41.6834 28.2158 38.9498 30.9495C38.5592 31.34 37.9261 31.34 37.5355 30.9495C37.145 30.5589 37.145 29.9258 37.5355 29.5353C39.4882 27.5826 39.4882 24.4168 37.5355 22.4642C37.145 22.0737 37.145 21.4405 37.5355 21.05ZM31 25.9998C31 24.3429 32.3431 22.9998 34 22.9998C35.6568 22.9998 37 24.3429 37 25.9998C37 27.306 36.1652 28.4172 35 28.8291V36.9998C35 37.552 34.5523 37.9998 34 37.9998C33.4477 37.9998 33 37.552 33 36.9998V28.8291C31.8348 28.4172 31 27.306 31 25.9998Z" fill="#FFFAE6"/>
<defs>
<filter id="filter0_d_1144_15455" x="0.81" y="0.81" width="66.38" height="66.38" filterUnits="userSpaceOnUse" color-interpolation-filters="sRGB">
<feFlood flood-opacity="0" result="BackgroundImageFix"/>
<feColorMatrix in="SourceAlpha" type="matrix" values="0 0 0 0 0 0 0 0 0 0 0 0 0 0 0 0 0 0 127 0" result="hardAlpha"/>
<feOffset dy="6"/>
<feGaussianBlur stdDeviation="5.595"/>
<feComposite in2="hardAlpha" operator="out"/>
<feColorMatrix type="matrix" values="0 0 0 0 0.00392157 0 0 0 0 0.301961 0 0 0 0 0.670588 0 0 0 0.2 0"/>
<feBlend mode="normal" in2="BackgroundImageFix" result="effect1_dropShadow_1144_15455"/>
<feBlend mode="normal" in="SourceGraphic" in2="effect1_dropShadow_1144_15455" result="shape"/>
</filter>
<linearGradient id="paint0_linear_1144_15455" x1="34" y1="10" x2="34" y2="46" gradientUnits="userSpaceOnUse">
<stop stop-color="#7E0692"/>
<stop offset="1" stop-color="#BD31FF"/>
</linearGradient>
</defs>
</svg>
