<svg width="68" height="68" viewBox="0 0 68 68" fill="none" xmlns="http://www.w3.org/2000/svg">
<g filter="url(#filter0_d_1144_15390)">
<circle cx="34" cy="28" r="22" fill="#F4F9FF"/>
</g>
<circle cx="34" cy="28" r="18" fill="url(#paint0_linear_1144_15390)"/>
<path fill-rule="evenodd" clip-rule="evenodd" d="M35.9756 22.0864C35.725 22.0103 35.4326 22.0001 34.4311 22.0001H33V26.0001H39.1315L37.5929 23.6922C37.0374 22.859 36.8667 22.6213 36.6644 22.455C36.4613 22.2881 36.2272 22.1628 35.9756 22.0864ZM41.7444 26.3139L39.257 22.5828C39.2323 22.5458 39.208 22.5092 39.1839 22.4731C38.7346 21.7983 38.3956 21.289 37.9343 20.9099C37.528 20.576 37.06 20.3255 36.5568 20.1727C35.9855 19.9992 35.3737 19.9996 34.563 20.0001C34.5196 20.0001 34.4757 20.0001 34.4311 20.0001L31.0289 20.0001C30.3383 20.0001 29.7647 20.0001 29.2924 20.0358C28.7991 20.0731 28.3442 20.1531 27.9042 20.3505C27.2156 20.6594 26.6285 21.1568 26.2106 21.7852C25.9436 22.1868 25.7899 22.6223 25.672 23.1028C25.5591 23.5628 25.4648 24.1286 25.3513 24.8098L25.1295 26.1402C24.9636 26.1847 24.7995 26.2448 24.638 26.3271C24.0735 26.6147 23.6146 27.0736 23.327 27.6381C23.1342 28.0165 23.0629 28.4097 23.0306 28.8051C23 29.1796 23 29.6344 23 30.1616L23 31.432C23 31.6844 22.9999 31.9302 23.017 32.1383C23.0356 32.3669 23.0797 32.6367 23.218 32.9081C23.4097 33.2844 23.7157 33.5904 24.092 33.7821C24.3634 33.9204 24.6332 33.9645 24.8618 33.9832C24.9575 33.991 25.0612 33.9952 25.1698 33.9975C25.5809 35.164 26.6928 36.0001 28 36.0001C29.3062 36.0001 30.4175 35.1653 30.8293 34.0001H37.1707C37.5825 35.1653 38.6938 36.0001 40 36.0001C41.3062 36.0001 42.4174 35.1653 42.8293 34.0001C42.833 34.0001 42.8368 34.0001 42.8406 34.0002C42.9815 34.0004 43.1535 34.0007 43.3129 33.9755C44.1687 33.8399 44.8398 33.1688 44.9754 32.313C45.0006 32.1536 45.0003 31.9816 45.0001 31.8407C45 31.8268 45 31.8133 45 31.8001C45 31.7688 45 31.7379 45 31.7075C45.0001 31.0536 45.0002 30.608 44.9384 30.2179C44.6523 28.4115 43.4116 26.9341 41.7444 26.3139ZM31 26.0001V22.0001C30.2989 22.0002 29.8195 22.0017 29.4432 22.0301C29.0678 22.0585 28.8686 22.1099 28.7228 22.1753C28.3785 22.3298 28.0849 22.5784 27.876 22.8926C27.7875 23.0257 27.7041 23.2137 27.6143 23.5794C27.5216 23.9573 27.4391 24.4481 27.3179 25.1754L27.1805 26.0001L31 26.0001ZM28 32.0001C27.4477 32.0001 27 32.4478 27 33.0001C27 33.5524 27.4477 34.0001 28 34.0001C28.5523 34.0001 29 33.5524 29 33.0001C29 32.4478 28.5523 32.0001 28 32.0001ZM40 32.0001C39.4477 32.0001 39 32.4478 39 33.0001C39 33.5524 39.4477 34.0001 40 34.0001C40.5523 34.0001 41 33.5524 41 33.0001C41 32.4478 40.5523 32.0001 40 32.0001Z" fill="#FFFAE6"/>
<defs>
<filter id="filter0_d_1144_15390" x="0.81" y="0.81" width="66.38" height="66.38" filterUnits="userSpaceOnUse" color-interpolation-filters="sRGB">
<feFlood flood-opacity="0" result="BackgroundImageFix"/>
<feColorMatrix in="SourceAlpha" type="matrix" values="0 0 0 0 0 0 0 0 0 0 0 0 0 0 0 0 0 0 127 0" result="hardAlpha"/>
<feOffset dy="6"/>
<feGaussianBlur stdDeviation="5.595"/>
<feComposite in2="hardAlpha" operator="out"/>
<feColorMatrix type="matrix" values="0 0 0 0 0.00392157 0 0 0 0 0.301961 0 0 0 0 0.670588 0 0 0 0.2 0"/>
<feBlend mode="normal" in2="BackgroundImageFix" result="effect1_dropShadow_1144_15390"/>
<feBlend mode="normal" in="SourceGraphic" in2="effect1_dropShadow_1144_15390" result="shape"/>
</filter>
<linearGradient id="paint0_linear_1144_15390" x1="34" y1="10" x2="34" y2="46" gradientUnits="userSpaceOnUse">
<stop stop-color="#069214"/>
<stop offset="1" stop-color="#6EEC20"/>
</linearGradient>
</defs>
</svg>
