<svg width="24" height="24" viewBox="0 0 24 24" fill="none" xmlns="http://www.w3.org/2000/svg">
<g opacity="0.3">
<path d="M5 13V17H4C3.44772 17 3 17.4477 3 18C3 18.5523 3.44772 19 4 19H20C20.5523 19 21 18.5523 21 18C21 17.4477 20.5523 17 20 17H19V13H17V17H15V13H13V17H11V13H9V17H7V13H5Z" fill="#2373E6"/>
<path d="M2 21C2 20.4477 2.44772 20 3 20H21C21.5523 20 22 20.4477 22 21C22 21.5523 21.5523 22 21 22H3C2.44772 22 2 21.5523 2 21Z" fill="#2373E6"/>
</g>
<path d="M11.1403 1.80161C11.7012 1.63384 12.2989 1.63384 12.8598 1.80161C13.2328 1.91318 13.5423 2.10561 13.8313 2.32501C14.1036 2.53168 14.4104 2.80439 14.7636 3.11842L21.6644 9.25246C21.9747 9.52829 22.0823 9.96717 21.9348 10.3553C21.789 10.7386 21.4243 10.9936 21.0153 10.9998H2.9848C2.57578 10.9936 2.21106 10.7386 2.06532 10.3553C1.91777 9.96717 2.02537 9.52829 2.33568 9.25246L9.23649 3.1184C9.58974 2.80438 9.89651 2.53168 10.1688 2.32501C10.4578 2.10561 10.7673 1.91318 11.1403 1.80161Z" fill="#2373E6"/>
</svg>
