<svg width="24" height="24" viewBox="0 0 24 24" fill="none" xmlns="http://www.w3.org/2000/svg">
<path opacity="0.3" fill-rule="evenodd" clip-rule="evenodd" d="M5.63604 2.2216C6.02656 2.61213 6.02656 3.24529 5.63604 3.63582C2.12132 7.15054 2.12132 12.849 5.63604 16.3637C6.02656 16.7543 6.02656 17.3874 5.63604 17.778C5.24551 18.1685 4.61235 18.1685 4.22183 17.778C-0.0739417 13.4822 -0.0739417 6.51737 4.22183 2.2216C4.61235 1.83108 5.24551 1.83108 5.63604 2.2216ZM18.3644 2.2216C18.7549 1.83108 19.3881 1.83108 19.7786 2.2216C24.0744 6.51737 24.0744 13.4822 19.7786 17.778C19.3881 18.1685 18.7549 18.1685 18.3644 17.778C17.9739 17.3874 17.9739 16.7543 18.3644 16.3637C21.8791 12.849 21.8791 7.15054 18.3644 3.63582C17.9739 3.24529 17.9739 2.61213 18.3644 2.2216ZM8.46469 5.04997C8.85521 5.4405 8.85521 6.07366 8.46469 6.46419C6.51207 8.41681 6.51207 11.5826 8.46469 13.5353C8.85521 13.9258 8.85521 14.5589 8.46469 14.9495C8.07416 15.34 7.441 15.34 7.05047 14.9495C4.3168 12.2158 4.3168 7.78364 7.05047 5.04997C7.441 4.65945 8.07416 4.65945 8.46469 5.04997ZM15.5358 5.04997C15.9263 4.65945 16.5595 4.65945 16.95 5.04997C19.6837 7.78364 19.6837 12.2158 16.95 14.9495C16.5595 15.34 15.9263 15.34 15.5358 14.9495C15.1453 14.5589 15.1453 13.9258 15.5358 13.5353C17.4884 11.5826 17.4884 8.41681 15.5358 6.46419C15.1453 6.07366 15.1453 5.4405 15.5358 5.04997Z" fill="#2373E6"/>
<path d="M9 10C9 8.34315 10.3431 7 12 7C13.6569 7 15 8.34315 15 10C15 11.3062 14.1652 12.4175 13 12.8293V21C13 21.5523 12.5523 22 12 22C11.4477 22 11 21.5523 11 21V12.8293C9.83481 12.4175 9 11.3062 9 10Z" fill="#2373E6"/>
</svg>
