<svg width="45" height="45" viewBox="0 0 45 45" fill="none" xmlns="http://www.w3.org/2000/svg">
<circle cx="22.5" cy="22.5" r="22" fill="#229ED9" stroke="white"/>
<path d="M11.4409 22.7319L11.4336 22.7347C10.9105 22.9355 10.5436 23.1227 10.3104 23.2898C10.0771 23.457 10.0535 23.549 10.0529 23.5489C10.0528 23.5488 10.0528 23.5486 10.0529 23.5482L10.0527 23.5501C10.0468 23.5945 10.0527 23.6131 10.0816 23.6474C10.1278 23.7023 10.2288 23.78 10.4285 23.8734C10.7349 24.0168 11.1369 24.1391 11.6341 24.2903C11.8021 24.3414 11.9809 24.3959 12.1707 24.4555C12.7471 24.6362 13.4197 24.8312 14.0453 24.9826C14.6821 25.1367 15.232 25.2359 15.5798 25.2431L15.5799 25.2431C16.1818 25.2556 16.9051 25.0166 17.7678 24.4438L17.7715 24.4414L17.7715 24.4414C20.8815 22.4159 23.2394 20.8903 24.8458 19.8653C25.6486 19.353 26.2658 18.9644 26.696 18.7006C26.9106 18.569 27.082 18.4664 27.208 18.3944C27.2706 18.3587 27.3264 18.328 27.3729 18.3043L27.3766 18.3024C27.4048 18.288 27.4839 18.2475 27.5671 18.2295M11.4409 22.7319L27.673 18.7181M11.4409 22.7319L11.4482 22.7288M11.4409 22.7319L11.4482 22.7288M27.5671 18.2295L27.673 18.7181M27.5671 18.2295L27.5669 18.2295L27.673 18.7181M27.5671 18.2295L27.5716 18.2285C27.6405 18.2135 27.7733 18.1847 27.9163 18.1858C28.0676 18.1869 28.2817 18.2216 28.4689 18.3827M27.673 18.7181C27.8157 18.6872 28.0118 18.6479 28.1438 18.7626M28.4689 18.3827C28.4679 18.3819 28.467 18.3811 28.4661 18.3803L28.1438 18.7626M28.4689 18.3827C28.6626 18.5476 28.7264 18.7638 28.7477 18.9027C28.7688 19.0406 28.7597 19.1756 28.7364 19.271M28.4689 18.3827C28.4698 18.3835 28.4707 18.3843 28.4717 18.3851L28.1438 18.7626M28.1438 18.7626L28.7364 19.271M28.7364 19.271L28.2507 19.1519L28.7372 19.2675C28.7369 19.2687 28.7366 19.2698 28.7364 19.271ZM11.4482 22.7288C18.1031 19.9307 22.5357 18.0876 24.7496 17.198C27.9217 15.9248 29.8254 15.1823 31.0421 14.7562C32.2662 14.3274 32.7445 14.2381 33.0875 14.232C33.1446 14.2312 33.2562 14.2381 33.3769 14.266C33.5004 14.2945 33.5962 14.3364 33.6548 14.3816C33.7342 14.4452 33.7697 14.5346 33.7958 14.6722C33.8205 14.8233 33.8519 15.16 33.8267 15.4001L33.8263 15.4035M11.4482 22.7288L33.8263 15.4035M33.8263 15.4035C33.4866 18.8607 32.004 27.2927 31.2476 31.1966L31.2474 31.1973M33.8263 15.4035L31.2474 31.1973M31.2474 31.1973C30.9416 32.788 30.3956 33.0292 30.1359 33.0522L30.1358 33.0522M31.2474 31.1973L30.1358 33.0522M30.1358 33.0522C29.6147 33.0984 29.1363 32.9379 28.6026 32.6352M30.1358 33.0522L28.6026 32.6352M28.6026 32.6352C28.334 32.4829 28.0618 32.3008 27.7668 32.0985M28.6026 32.6352L27.7668 32.0985M27.7668 32.0985C27.7189 32.0656 27.6703 32.0322 27.6211 31.9984M27.7668 32.0985L27.6211 31.9984M27.6211 31.9984C27.3724 31.8272 27.1078 31.6451 26.8314 31.4703M27.6211 31.9984L26.8314 31.4703M26.8314 31.4703C25.8314 30.8371 25.049 30.3235 24.271 29.812L24.1865 29.7565C23.4367 29.2635 22.6833 28.7682 21.7398 28.1682L26.8314 31.4703Z" fill="white" stroke="white"/>
</svg>
