<svg width="45" height="45" viewBox="0 0 45 45" fill="none" xmlns="http://www.w3.org/2000/svg">
<circle cx="22.5" cy="22.5" r="22" fill="#7C509D" stroke="white"/>
<g clip-path="url(#clip0_1173_730)">
<path d="M22.6802 9.00098C20.3678 9.03458 15.3998 9.41378 12.6242 11.9614C10.5626 14.0254 9.83539 17.041 9.75979 20.7814C9.68419 24.5218 9.58579 31.5322 16.3442 33.433H16.3478L16.343 36.3322C16.343 36.3322 16.2986 37.5046 17.075 37.7446C18.0074 38.035 18.5558 37.1446 19.451 36.1822C19.9394 35.6542 20.6174 34.8814 21.1274 34.2862C25.7474 34.6774 29.3018 33.787 29.7074 33.6562C30.6386 33.3538 35.9186 32.677 36.7778 25.6678C37.6658 18.4438 36.3458 13.8718 33.9698 11.8126C33.2546 11.1526 30.3626 9.05258 23.9198 9.02498C23.9198 9.02498 23.4458 8.99498 22.6754 9.00458L22.6802 9.00098ZM22.7498 11.0326C23.4038 11.0278 23.8058 11.053 23.8058 11.053C29.2562 11.077 31.8662 12.7186 32.4722 13.2682C34.4822 14.9902 35.5082 19.1098 34.7594 25.1446V25.147C34.0346 31.0006 29.7506 31.3678 28.961 31.621C28.625 31.729 25.5026 32.5054 21.5774 32.2498C21.5774 32.2498 18.6542 35.7778 17.741 36.6946C17.597 36.8386 17.429 36.895 17.3186 36.8674C17.1626 36.8278 17.1194 36.6418 17.1206 36.3706L17.1446 31.549C11.4302 29.965 11.7626 23.9986 11.8286 20.875C11.8934 17.7502 12.4802 15.1894 14.2238 13.4674C16.5758 11.3398 20.7926 11.0458 22.7558 11.0314L22.7498 11.0326ZM23.2058 14.155C23.1128 14.1597 23.025 14.1998 22.9606 14.2671C22.8962 14.3344 22.86 14.4238 22.8594 14.5169C22.8588 14.6101 22.8938 14.6999 22.9573 14.7681C23.0208 14.8362 23.108 14.8775 23.201 14.8834C25.1498 14.8954 26.7362 15.5278 28.0346 16.7938C29.3222 18.049 29.9786 19.7554 29.9942 21.9946C29.9966 22.195 30.1622 22.3546 30.3626 22.3546C30.4585 22.3533 30.5501 22.3143 30.6174 22.246C30.6848 22.1778 30.7226 22.0857 30.7226 21.9898C30.7058 19.609 29.981 17.6746 28.5434 16.273C27.1154 14.881 25.3118 14.1694 23.2058 14.155ZM18.4538 14.989C18.1987 14.9536 17.939 15.0029 17.7146 15.1294L17.7026 15.1318C17.1866 15.4282 16.7234 15.8062 16.3274 16.2502L16.3178 16.2598C15.9978 16.647 15.8138 17.0262 15.7658 17.3974C15.7564 17.4529 15.7536 17.5092 15.7574 17.5654C15.7574 17.7294 15.7834 17.8894 15.8354 18.0454L15.851 18.0574C16.013 18.6334 16.4186 19.5886 17.297 21.1822C17.801 22.1038 18.3806 22.9822 19.0322 23.8054C19.3562 24.219 19.7042 24.6126 20.0762 24.9862L20.2346 25.1446C20.6074 25.515 21.001 25.863 21.4154 26.1886C22.2392 26.8404 23.1167 27.4213 24.0386 27.925C25.6322 28.8046 26.5898 29.209 27.1634 29.3722L27.1754 29.389C27.3843 29.4563 27.6052 29.4788 27.8234 29.455C28.1962 29.411 28.5754 29.227 28.961 28.903C28.9658 28.903 28.9646 28.9006 28.9706 28.897C29.4146 28.501 29.7902 28.033 30.0866 27.5194L30.0902 27.5074C30.3602 26.989 30.2702 26.497 29.8742 26.1634C29.8694 26.1634 29.0366 25.4674 28.6298 25.1674C28.1978 24.861 27.7526 24.577 27.2942 24.3154C26.6822 23.9734 26.0558 24.1882 25.7966 24.5242L25.2602 25.201C24.9842 25.5406 24.4718 25.4962 24.4718 25.4962C20.7278 24.541 19.7258 20.7502 19.7258 20.7502C19.7258 20.7502 19.6814 20.239 20.0234 19.963L20.699 19.4254C21.0314 19.1674 21.2462 18.541 20.903 17.9278C20.6419 17.4676 20.3575 17.021 20.051 16.5898C19.7288 16.168 19.3968 15.7539 19.055 15.3478C18.9047 15.1592 18.6903 15.0323 18.4526 14.9914L18.4538 14.989ZM23.8418 16.045C23.7454 16.0421 23.6517 16.0777 23.5815 16.1438C23.5113 16.21 23.4703 16.3013 23.4674 16.3978C23.4645 16.4942 23.5001 16.5878 23.5662 16.658C23.6324 16.7283 23.7238 16.7693 23.8202 16.7722C25.2122 16.8742 26.2406 17.3314 26.9942 18.1522C27.7502 18.9778 28.1102 19.981 28.0814 21.2362C28.0866 21.3285 28.1265 21.4154 28.193 21.4796C28.2595 21.5438 28.3478 21.5805 28.4402 21.5825C28.5326 21.5845 28.6223 21.5515 28.6915 21.4902C28.7607 21.4289 28.8042 21.3438 28.8134 21.2518C28.8434 19.8418 28.4126 18.6202 27.533 17.659C26.645 16.687 25.4006 16.1554 23.873 16.0438H23.8442L23.8418 16.045ZM24.3974 18.001C24.305 18.0023 24.2165 18.0386 24.1497 18.1025C24.083 18.1664 24.0428 18.2531 24.0374 18.3454C24.0278 18.5458 24.1814 18.7174 24.383 18.7294C25.0106 18.763 25.433 18.9394 25.7186 19.2358C26.0066 19.5298 26.1842 19.9798 26.2178 20.6326C26.2301 20.7231 26.276 20.8056 26.3462 20.8639C26.4165 20.9222 26.5061 20.9521 26.5973 20.9476C26.6885 20.943 26.7747 20.9045 26.8388 20.8395C26.903 20.7745 26.9404 20.6878 26.9438 20.5966C26.9078 19.8238 26.6858 19.183 26.2478 18.7282C25.8074 18.2746 25.1762 18.0394 24.4238 17.9998H24.4022L24.3974 18.001Z" fill="white"/>
</g>
<defs>
<clipPath id="clip0_1173_730">
<rect width="28.8" height="28.8" fill="white" transform="translate(9.00098 9.00049)"/>
</clipPath>
</defs>
</svg>
