<svg width="24" height="24" viewBox="0 0 24 24" fill="none" xmlns="http://www.w3.org/2000/svg">
<circle cx="12" cy="12" r="11.7333" fill="#229ED9" stroke="white" stroke-width="0.533333"/>
<path d="M6.09795 12.1253L6.09791 12.1252C5.81894 12.2323 5.62323 12.3321 5.4989 12.4212C5.37444 12.5104 5.36187 12.5595 5.36152 12.5594C5.3615 12.5594 5.36151 12.5593 5.36154 12.5591L5.36142 12.5601C5.35831 12.5838 5.36142 12.5937 5.37684 12.612C5.40148 12.6413 5.45535 12.6827 5.56185 12.7325C5.7253 12.809 5.93967 12.8742 6.20484 12.9549C6.2945 12.9822 6.38997 13.0112 6.49125 13.0431L6.41126 13.2974M6.09795 12.1253L11.5945 15.0231C11.3073 14.8404 11.1765 14.7007 11.1236 14.6029C11.0821 14.526 11.0837 14.4688 11.1179 14.3936C11.1609 14.299 11.2531 14.1877 11.4018 14.0416C11.4656 13.9789 11.5345 13.9148 11.609 13.8455C11.6187 13.8365 11.6286 13.8273 11.6385 13.8181C11.7231 13.7393 11.8134 13.6547 11.9027 13.565L11.903 13.5648C11.9419 13.5257 12.1385 13.3493 12.4202 13.0966C12.743 12.807 13.1775 12.4171 13.6151 12.0182C14.0198 11.6493 14.4228 11.2763 14.7291 10.9793C14.8818 10.8311 15.0132 10.6992 15.1094 10.5949C15.1572 10.5431 15.1996 10.4945 15.2325 10.4521C15.2488 10.431 15.2656 10.4078 15.2802 10.3841C15.2917 10.3652 15.3141 10.3267 15.3261 10.2779M6.09795 12.1253L6.1057 12.1221C9.65508 10.6297 12.0192 9.64671 13.1999 9.17225M6.09795 12.1253L13.1999 9.17225M6.41126 13.2974L6.49103 13.043C6.79844 13.1394 7.15716 13.2434 7.4908 13.3241C7.83045 13.4063 8.12371 13.4592 8.30924 13.463L8.30927 13.463C8.63029 13.4697 9.01603 13.3422 9.47616 13.0367L9.47812 13.0354L9.47813 13.0354C11.1368 11.9552 12.3944 11.1415 13.2511 10.5949C13.6793 10.3216 14.0084 10.1144 14.2379 9.97369C14.3523 9.90349 14.4437 9.84877 14.511 9.81038C14.5443 9.79133 14.5741 9.77494 14.5989 9.76231L14.6009 9.76131C14.6159 9.75362 14.658 9.73208 14.7023 9.72245C14.7024 9.72245 14.7024 9.72244 14.7025 9.72243L14.7048 9.72191C14.7416 9.71392 14.8124 9.69851 14.8887 9.6991C14.9694 9.69973 15.0836 9.71821 15.1834 9.80414C15.2867 9.8921 15.3208 10.0074 15.3321 10.0815C15.3433 10.155 15.3385 10.227 15.3261 10.2779M6.41126 13.2974C7.0332 13.4924 7.87006 13.7206 8.3037 13.7296L6.00234 11.8762C5.42605 12.0975 5.12363 12.3139 5.09701 12.5254C5.05018 12.8827 5.51372 13.0236 6.14359 13.2151C6.22998 13.2414 6.3195 13.2686 6.41126 13.2974ZM15.3261 10.2779L15.0671 10.2144L15.3265 10.276C15.3264 10.2767 15.3262 10.2773 15.3261 10.2779ZM13.1999 9.17225C14.8916 8.49325 15.9069 8.09727 16.5558 7.86999C17.209 7.64119 17.464 7.59361 17.647 7.59043L17.6423 7.3238C17.7431 7.32224 17.9675 7.34629 18.114 7.46058M13.1999 9.17225L17.6464 7.59043C17.6768 7.58996 17.7365 7.59366 17.801 7.60857C17.8669 7.62378 17.918 7.64613 17.9492 7.67022M18.114 7.46058L17.9484 7.66964C17.9487 7.66983 17.9489 7.67003 17.9492 7.67022M18.114 7.46058C18.2357 7.55696 18.27 7.68731 18.2871 7.77883L17.9492 7.67022M18.114 7.46058L17.9499 7.67081C17.9497 7.67061 17.9494 7.67042 17.9492 7.67022M14.31 16.7841C14.31 16.7841 14.3101 16.7842 14.3101 16.7842L14.1674 17.0095M14.31 16.7841L14.1674 17.0095M14.31 16.7841C13.7767 16.4465 13.3594 16.1726 12.9445 15.8998L12.8995 15.8702C12.4996 15.6072 12.0978 15.3431 11.5945 15.0231L14.31 16.7841ZM14.1674 17.0095C14.3101 17.0997 14.4463 17.1934 14.5789 17.2847C15.083 17.6316 15.5359 17.9432 16.096 17.8935M14.1674 17.0095L16.096 17.8935M16.096 17.8935C16.4213 17.8647 16.7579 17.5694 16.9272 16.6889L16.096 17.8935Z" fill="white" stroke="white" stroke-width="0.533333"/>
</svg>
