<svg width="24" height="24" viewBox="0 0 24 24" fill="none" xmlns="http://www.w3.org/2000/svg">
<circle cx="12" cy="12" r="11.6571" fill="#7C509D" stroke="white" stroke-width="0.685714"/>
<g clip-path="url(#clip0_1466_16153)">
<path d="M12.0963 4.80078C10.863 4.8187 8.2134 5.02094 6.73308 6.37966C5.63356 7.48046 5.24572 9.08878 5.2054 11.0837C5.16508 13.0785 5.1126 16.8174 8.71708 17.8312H8.719L8.71644 19.3774C8.71644 19.3774 8.69276 20.0027 9.10684 20.1307C9.60412 20.2856 9.8966 19.8107 10.374 19.2974C10.6345 19.0158 10.9961 18.6037 11.2681 18.2862C13.7321 18.4949 15.6278 18.02 15.8441 17.9502C16.3408 17.7889 19.1568 17.428 19.615 13.6897C20.0886 9.83694 19.3846 7.39854 18.1174 6.3003C17.736 5.9483 16.1936 4.8283 12.7574 4.81358C12.7574 4.81358 12.5046 4.79758 12.0937 4.8027L12.0963 4.80078ZM12.1334 5.8843C12.4822 5.88174 12.6966 5.89518 12.6966 5.89518C15.6035 5.90798 16.9955 6.7835 17.3187 7.07662C18.3907 7.99502 18.9379 10.1921 18.5385 13.4107V13.412C18.152 16.5339 15.8672 16.7297 15.446 16.8648C15.2668 16.9224 13.6016 17.3365 11.5081 17.2001C11.5081 17.2001 9.94908 19.0817 9.46204 19.5707C9.38524 19.6475 9.29564 19.6776 9.23676 19.6629C9.15356 19.6417 9.13052 19.5425 9.13116 19.3979L9.14396 16.8264C6.09628 15.9816 6.27356 12.7995 6.30876 11.1336C6.34332 9.46702 6.65628 8.10126 7.5862 7.18286C8.8406 6.04814 11.0896 5.89134 12.1366 5.88366L12.1334 5.8843ZM12.3766 7.54958C12.327 7.55208 12.2802 7.57347 12.2458 7.60937C12.2115 7.64526 12.1922 7.69293 12.1918 7.74261C12.1915 7.79229 12.2102 7.84022 12.2441 7.87656C12.278 7.9129 12.3245 7.93491 12.374 7.93806C13.4134 7.94446 14.2595 8.28174 14.952 8.95694C15.6387 9.62638 15.9888 10.5365 15.9971 11.7307C15.9984 11.8376 16.0867 11.9227 16.1936 11.9227C16.2447 11.922 16.2935 11.9012 16.3295 11.8648C16.3654 11.8284 16.3856 11.7793 16.3856 11.7281C16.3766 10.4584 15.99 9.4267 15.2233 8.67918C14.4617 7.93678 13.4998 7.55726 12.3766 7.54958ZM9.8422 7.99438C9.70613 7.97549 9.56763 8.0018 9.44796 8.06926L9.44156 8.07054C9.16636 8.22862 8.91932 8.43022 8.70812 8.66702L8.703 8.67214C8.53233 8.87865 8.4342 9.08089 8.4086 9.27886C8.40361 9.30845 8.40211 9.33852 8.40412 9.36846C8.40412 9.45593 8.41799 9.54126 8.44572 9.62446L8.45404 9.63086C8.54044 9.93806 8.75676 10.4475 9.22524 11.2974C9.49404 11.7889 9.80316 12.2574 10.1507 12.6965C10.3235 12.917 10.5091 13.127 10.7075 13.3262L10.792 13.4107C10.9908 13.6082 11.2007 13.7938 11.4217 13.9675C11.8611 14.3151 12.3291 14.625 12.8208 14.8936C13.6707 15.3627 14.1814 15.5784 14.4873 15.6654L14.4937 15.6744C14.6052 15.7103 14.7229 15.7223 14.8393 15.7096C15.0381 15.6861 15.2404 15.588 15.446 15.4152C15.4486 15.4152 15.448 15.4139 15.4512 15.412C15.688 15.2008 15.8883 14.9512 16.0464 14.6773L16.0483 14.6709C16.1923 14.3944 16.1443 14.132 15.9331 13.9541C15.9305 13.9541 15.4864 13.5829 15.2694 13.4229C15.039 13.2594 14.8016 13.108 14.5571 12.9685C14.2307 12.7861 13.8966 12.9006 13.7584 13.0798L13.4723 13.4408C13.3251 13.6219 13.0518 13.5982 13.0518 13.5982C11.055 13.0888 10.5206 11.067 10.5206 11.067C10.5206 11.067 10.4969 10.7944 10.6793 10.6472L11.0396 10.3605C11.2169 10.2229 11.3315 9.88878 11.1484 9.56174C11.0092 9.31632 10.8575 9.07815 10.694 8.84814C10.5222 8.62318 10.3451 8.40232 10.1628 8.18574C10.0827 8.08515 9.96833 8.0175 9.84156 7.99566L9.8422 7.99438ZM12.7158 8.55758C12.6644 8.55605 12.6144 8.57502 12.577 8.61031C12.5395 8.64559 12.5176 8.69431 12.5161 8.74574C12.5146 8.79717 12.5336 8.8471 12.5688 8.88455C12.6041 8.922 12.6528 8.94389 12.7043 8.94542C13.4467 8.99982 13.9952 9.24366 14.3971 9.68142C14.8003 10.1217 14.9923 10.6568 14.9769 11.3262C14.9797 11.3754 15.001 11.4218 15.0364 11.456C15.0719 11.4903 15.119 11.5099 15.1683 11.5109C15.2176 11.512 15.2654 11.4944 15.3023 11.4617C15.3392 11.429 15.3624 11.3836 15.3673 11.3345C15.3833 10.5825 15.1536 9.93102 14.6844 9.41838C14.2108 8.89998 13.5472 8.61646 12.7324 8.55694H12.7171L12.7158 8.55758ZM13.0121 9.60078C12.9628 9.6015 12.9157 9.62084 12.88 9.65491C12.8444 9.68898 12.823 9.73526 12.8201 9.78446C12.815 9.89134 12.8969 9.98286 13.0044 9.98926C13.3392 10.0072 13.5644 10.1013 13.7168 10.2593C13.8704 10.4161 13.9651 10.6561 13.983 11.0043C13.9896 11.0526 14.014 11.0966 14.0515 11.1277C14.089 11.1588 14.1368 11.1747 14.1854 11.1723C14.234 11.1699 14.28 11.1493 14.3142 11.1147C14.3484 11.08 14.3684 11.0338 14.3702 10.9851C14.351 10.5729 14.2326 10.2312 13.999 9.98862C13.7641 9.7467 13.4275 9.62126 13.0262 9.60014H13.0147L13.0121 9.60078Z" fill="white"/>
</g>
<defs>
<clipPath id="clip0_1466_16153">
<rect width="15.36" height="15.36" fill="white" transform="translate(4.80054 4.80054)"/>
</clipPath>
</defs>
</svg>
