<svg width="1440" height="202" viewBox="0 0 1440 202" fill="none" xmlns="http://www.w3.org/2000/svg">
<g clip-path="url(#clip0_406_4879)">
<path d="M207 44V187H553V44H207ZM512.316 44.2694H532.389V64.3939H512.316V44.2694ZM532.389 84.7879H512.316V64.6633H532.389V84.7879ZM532.389 105.155H512.316V85.0303H532.389V105.155ZM532.389 125.549H512.316V105.424H532.389V125.549ZM532.389 145.943H512.316V125.818H532.389V145.943ZM532.389 166.337H512.316V146.212H532.389V166.337ZM227.611 146.212H247.684V166.337H227.611V146.212ZM227.611 125.818H247.684V145.943H227.611V125.818ZM227.611 105.424H247.684V125.549H227.611V105.424ZM227.611 85.0573H247.684V105.155H227.611V85.0573ZM227.611 64.6633H247.684V84.7879H227.611V64.6633ZM512.047 84.7879H491.974V64.6633H512.047V84.7879ZM512.047 105.155H491.974V85.0303H512.047V105.155ZM512.047 125.549H491.974V105.424H512.047V125.549ZM512.047 145.943H491.974V125.818H512.047V145.943ZM267.999 125.818V145.943H247.926V125.818H267.999ZM267.999 105.424V125.549H247.926V105.424H267.999ZM267.999 85.0573V105.155H247.926V85.0573H267.999ZM491.706 105.155H471.632V85.0303H491.706V105.155ZM491.706 125.549H471.632V105.424H491.706V125.549ZM268.267 105.424H288.341V125.549H268.267V105.424ZM288.609 105.424H308.682V125.549H288.609V105.424ZM308.951 105.424H329.024V125.549H308.951V105.424ZM329.293 105.424H349.366V125.549H329.293V105.424ZM349.635 105.424H369.708V125.549H349.635V105.424ZM369.977 105.424H390.05V125.549H369.977V105.424ZM390.292 105.424H410.365V125.549H390.292V105.424ZM410.634 105.424H430.707V125.549H410.634V105.424ZM430.976 105.424H451.049V125.549H430.976V105.424ZM451.318 105.424H471.391V125.549H451.318V105.424ZM471.391 105.155H451.318V85.0303H471.391V105.155ZM451.049 105.155H430.976V85.0303H451.049V105.155ZM430.707 105.155H410.634V85.0303H430.707V105.155ZM410.365 105.155H390.292V85.0303H410.365V105.155ZM390.023 105.155H369.95V85.0303H390.023V105.155ZM369.708 105.155H349.635V85.0303H369.708V105.155ZM349.366 105.155H329.293V85.0303H349.366V105.155ZM329.024 105.155H308.951V85.0303H329.024V105.155ZM308.682 105.155H288.609V85.0303H308.682V105.155ZM288.341 105.155H268.267V85.0303H288.341V105.155ZM268.267 125.818H288.341V145.943H268.267V125.818ZM288.609 125.818H308.682V145.943H288.609V125.818ZM308.951 125.818H329.024V145.943H308.951V125.818ZM329.293 125.818H349.366V145.943H329.293V125.818ZM349.635 125.818H369.708V145.943H349.635V125.818ZM369.977 125.818H390.05V145.943H369.977V125.818ZM390.292 125.818H410.365V145.943H390.292V125.818ZM410.634 125.818H430.707V145.943H410.634V125.818ZM430.976 125.818H451.049V145.943H430.976V125.818ZM451.318 125.818H471.391V145.943H451.318V125.818ZM471.659 125.818H491.733V145.943H471.659V125.818ZM491.706 84.7879H471.632V64.6633H491.706V84.7879ZM471.391 84.7879H451.318V64.6633H471.391V84.7879ZM451.049 84.7879H430.976V64.6633H451.049V84.7879ZM430.707 84.7879H410.634V64.6633H430.707V84.7879ZM410.365 84.7879H390.292V64.6633H410.365V84.7879ZM390.023 84.7879H369.95V64.6633H390.023V84.7879ZM369.708 84.7879H349.635V64.6633H369.708V84.7879ZM349.366 84.7879H329.293V64.6633H349.366V84.7879ZM329.024 84.7879H308.951V64.6633H329.024V84.7879ZM308.682 84.7879H288.609V64.6633H308.682V84.7879ZM288.341 84.7879H268.267V64.6633H288.341V84.7879ZM267.999 84.7879H247.926V64.6633H267.999V84.7879ZM267.999 146.212V166.337H247.926V146.212H267.999ZM268.267 146.212H288.341V166.337H268.267V146.212ZM288.609 146.212H308.682V166.337H288.609V146.212ZM308.951 146.212H329.024V166.337H308.951V146.212ZM329.293 146.212H349.366V166.337H329.293V146.212ZM349.635 146.212H369.708V166.337H349.635V146.212ZM369.977 146.212H390.05V166.337H369.977V146.212ZM390.292 146.212H410.365V166.337H390.292V146.212ZM410.634 146.212H430.707V166.337H410.634V146.212ZM430.976 146.212H451.049V166.337H430.976V146.212ZM451.318 146.212H471.391V166.337H451.318V146.212ZM471.659 146.212H491.733V166.337H471.659V146.212ZM491.974 146.212H512.047V166.337H491.974V146.212ZM491.974 44.2694H512.047V64.3939H491.974V44.2694ZM471.659 44.2694H491.733V64.3939H471.659V44.2694ZM451.318 44.2694H471.391V64.3939H451.318V44.2694ZM430.976 44.2694H451.049V64.3939H430.976V44.2694ZM410.634 44.2694H430.707V64.3939H410.634V44.2694ZM390.292 44.2694H410.365V64.3939H390.292V44.2694ZM369.977 44.2694H390.05V64.3939H369.977V44.2694ZM349.635 44.2694H369.708V64.3939H349.635V44.2694ZM329.293 44.2694H349.366V64.3939H329.293V44.2694ZM308.951 44.2694H329.024V64.3939H308.951V44.2694ZM288.609 44.2694H308.682V64.3939H288.609V44.2694ZM268.267 44.2694H288.341V64.3939H268.267V44.2694ZM267.999 44.2694V64.3939H247.926V44.2694H267.999ZM227.611 44.2694H247.684V64.3939H227.611V44.2694ZM207.269 44.2694H227.342V64.3939H207.269V44.2694ZM207.269 64.6633H227.342V84.7879H207.269V64.6633ZM207.269 85.0573H227.342V105.155H207.269V85.0573ZM207.269 105.424H227.342V125.549H207.269V105.424ZM207.269 125.818H227.342V145.943H207.269V125.818ZM207.269 146.212H227.342V166.337H207.269V146.212ZM227.342 186.731H207.269V166.606H227.342V186.731ZM247.684 186.731H227.611V166.606H247.684V186.731ZM267.999 186.731H247.926V166.606H267.999V186.731ZM288.341 186.731H268.267V166.606H288.341V186.731ZM308.682 186.731H288.609V166.606H308.682V186.731ZM329.024 186.731H308.951V166.606H329.024V186.731ZM349.366 186.731H329.293V166.606H349.366V186.731ZM369.708 186.731H349.635V166.606H369.708V186.731ZM390.023 186.731H369.95V166.606H390.023V186.731ZM410.365 186.731H390.292V166.606H410.365V186.731ZM430.707 186.731H410.634V166.606H430.707V186.731ZM451.049 186.731H430.976V166.606H451.049V186.731ZM471.391 186.731H451.318V166.606H471.391V186.731ZM491.706 186.731H471.632V166.606H491.706V186.731ZM512.047 186.731H491.974V166.606H512.047V186.731ZM532.389 186.731H512.316V166.606H532.389V186.731ZM552.731 186.731H532.658V166.606H552.731V186.731ZM552.731 166.337H532.658V146.212H552.731V166.337ZM552.731 145.943H532.658V125.818H552.731V145.943ZM552.731 125.549H532.658V105.424H552.731V125.549ZM552.731 105.155H532.658V85.0303H552.731V105.155ZM552.731 84.7879H532.658V64.6633H552.731V84.7879ZM532.658 64.3939V44.2694H552.731V64.3939H532.658Z" fill="#C2DBFF"/>
<path d="M553 44V187H899V44H553ZM858.316 44.2694H878.389V64.3939H858.316V44.2694ZM878.389 84.7879H858.316V64.6633H878.389V84.7879ZM878.389 105.155H858.316V85.0303H878.389V105.155ZM878.389 125.549H858.316V105.424H878.389V125.549ZM878.389 145.943H858.316V125.818H878.389V145.943ZM878.389 166.337H858.316V146.212H878.389V166.337ZM573.611 146.212H593.684V166.337H573.611V146.212ZM573.611 125.818H593.684V145.943H573.611V125.818ZM573.611 105.424H593.684V125.549H573.611V105.424ZM573.611 85.0573H593.684V105.155H573.611V85.0573ZM573.611 64.6633H593.684V84.7879H573.611V64.6633ZM858.047 84.7879H837.974V64.6633H858.047V84.7879ZM858.047 105.155H837.974V85.0303H858.047V105.155ZM858.047 125.549H837.974V105.424H858.047V125.549ZM858.047 145.943H837.974V125.818H858.047V145.943ZM613.999 125.818V145.943H593.926V125.818H613.999ZM613.999 105.424V125.549H593.926V105.424H613.999ZM613.999 85.0573V105.155H593.926V85.0573H613.999ZM837.706 105.155H817.632V85.0303H837.706V105.155ZM837.706 125.549H817.632V105.424H837.706V125.549ZM614.267 105.424H634.341V125.549H614.267V105.424ZM634.609 105.424H654.682V125.549H634.609V105.424ZM654.951 105.424H675.024V125.549H654.951V105.424ZM675.293 105.424H695.366V125.549H675.293V105.424ZM695.635 105.424H715.708V125.549H695.635V105.424ZM715.977 105.424H736.05V125.549H715.977V105.424ZM736.292 105.424H756.365V125.549H736.292V105.424ZM756.634 105.424H776.707V125.549H756.634V105.424ZM776.976 105.424H797.049V125.549H776.976V105.424ZM797.318 105.424H817.391V125.549H797.318V105.424ZM817.391 105.155H797.318V85.0303H817.391V105.155ZM797.049 105.155H776.976V85.0303H797.049V105.155ZM776.707 105.155H756.634V85.0303H776.707V105.155ZM756.365 105.155H736.292V85.0303H756.365V105.155ZM736.023 105.155H715.95V85.0303H736.023V105.155ZM715.708 105.155H695.635V85.0303H715.708V105.155ZM695.366 105.155H675.293V85.0303H695.366V105.155ZM675.024 105.155H654.951V85.0303H675.024V105.155ZM654.682 105.155H634.609V85.0303H654.682V105.155ZM634.341 105.155H614.267V85.0303H634.341V105.155ZM614.267 125.818H634.341V145.943H614.267V125.818ZM634.609 125.818H654.682V145.943H634.609V125.818ZM654.951 125.818H675.024V145.943H654.951V125.818ZM675.293 125.818H695.366V145.943H675.293V125.818ZM695.635 125.818H715.708V145.943H695.635V125.818ZM715.977 125.818H736.05V145.943H715.977V125.818ZM736.292 125.818H756.365V145.943H736.292V125.818ZM756.634 125.818H776.707V145.943H756.634V125.818ZM776.976 125.818H797.049V145.943H776.976V125.818ZM797.318 125.818H817.391V145.943H797.318V125.818ZM817.659 125.818H837.733V145.943H817.659V125.818ZM837.706 84.7879H817.632V64.6633H837.706V84.7879ZM817.391 84.7879H797.318V64.6633H817.391V84.7879ZM797.049 84.7879H776.976V64.6633H797.049V84.7879ZM776.707 84.7879H756.634V64.6633H776.707V84.7879ZM756.365 84.7879H736.292V64.6633H756.365V84.7879ZM736.023 84.7879H715.95V64.6633H736.023V84.7879ZM715.708 84.7879H695.635V64.6633H715.708V84.7879ZM695.366 84.7879H675.293V64.6633H695.366V84.7879ZM675.024 84.7879H654.951V64.6633H675.024V84.7879ZM654.682 84.7879H634.609V64.6633H654.682V84.7879ZM634.341 84.7879H614.267V64.6633H634.341V84.7879ZM613.999 84.7879H593.926V64.6633H613.999V84.7879ZM613.999 146.212V166.337H593.926V146.212H613.999ZM614.267 146.212H634.341V166.337H614.267V146.212ZM634.609 146.212H654.682V166.337H634.609V146.212ZM654.951 146.212H675.024V166.337H654.951V146.212ZM675.293 146.212H695.366V166.337H675.293V146.212ZM695.635 146.212H715.708V166.337H695.635V146.212ZM715.977 146.212H736.05V166.337H715.977V146.212ZM736.292 146.212H756.365V166.337H736.292V146.212ZM756.634 146.212H776.707V166.337H756.634V146.212ZM776.976 146.212H797.049V166.337H776.976V146.212ZM797.318 146.212H817.391V166.337H797.318V146.212ZM817.659 146.212H837.733V166.337H817.659V146.212ZM837.974 146.212H858.047V166.337H837.974V146.212ZM837.974 44.2694H858.047V64.3939H837.974V44.2694ZM817.659 44.2694H837.733V64.3939H817.659V44.2694ZM797.318 44.2694H817.391V64.3939H797.318V44.2694ZM776.976 44.2694H797.049V64.3939H776.976V44.2694ZM756.634 44.2694H776.707V64.3939H756.634V44.2694ZM736.292 44.2694H756.365V64.3939H736.292V44.2694ZM715.977 44.2694H736.05V64.3939H715.977V44.2694ZM695.635 44.2694H715.708V64.3939H695.635V44.2694ZM675.293 44.2694H695.366V64.3939H675.293V44.2694ZM654.951 44.2694H675.024V64.3939H654.951V44.2694ZM634.609 44.2694H654.682V64.3939H634.609V44.2694ZM614.267 44.2694H634.341V64.3939H614.267V44.2694ZM613.999 44.2694V64.3939H593.926V44.2694H613.999ZM573.611 44.2694H593.684V64.3939H573.611V44.2694ZM553.269 44.2694H573.342V64.3939H553.269V44.2694ZM553.269 64.6633H573.342V84.7879H553.269V64.6633ZM553.269 85.0573H573.342V105.155H553.269V85.0573ZM553.269 105.424H573.342V125.549H553.269V105.424ZM553.269 125.818H573.342V145.943H553.269V125.818ZM553.269 146.212H573.342V166.337H553.269V146.212ZM573.342 186.731H553.269V166.606H573.342V186.731ZM593.684 186.731H573.611V166.606H593.684V186.731ZM613.999 186.731H593.926V166.606H613.999V186.731ZM634.341 186.731H614.267V166.606H634.341V186.731ZM654.682 186.731H634.609V166.606H654.682V186.731ZM675.024 186.731H654.951V166.606H675.024V186.731ZM695.366 186.731H675.293V166.606H695.366V186.731ZM715.708 186.731H695.635V166.606H715.708V186.731ZM736.023 186.731H715.95V166.606H736.023V186.731ZM756.365 186.731H736.292V166.606H756.365V186.731ZM776.707 186.731H756.634V166.606H776.707V186.731ZM797.049 186.731H776.976V166.606H797.049V186.731ZM817.391 186.731H797.318V166.606H817.391V186.731ZM837.706 186.731H817.632V166.606H837.706V186.731ZM858.047 186.731H837.974V166.606H858.047V186.731ZM878.389 186.731H858.316V166.606H878.389V186.731ZM898.731 186.731H878.658V166.606H898.731V186.731ZM898.731 166.337H878.658V146.212H898.731V166.337ZM898.731 145.943H878.658V125.818H898.731V145.943ZM898.731 125.549H878.658V105.424H898.731V125.549ZM898.731 105.155H878.658V85.0303H898.731V105.155ZM898.731 84.7879H878.658V64.6633H898.731V84.7879ZM878.658 64.3939V44.2694H898.731V64.3939H878.658Z" fill="#C2DBFF"/>
<path d="M899 44V187H1245V44H899ZM1204.32 44.2694H1224.39V64.3939H1204.32V44.2694ZM1224.39 84.7879H1204.32V64.6633H1224.39V84.7879ZM1224.39 105.155H1204.32V85.0303H1224.39V105.155ZM1224.39 125.549H1204.32V105.424H1224.39V125.549ZM1224.39 145.943H1204.32V125.818H1224.39V145.943ZM1224.39 166.337H1204.32V146.212H1224.39V166.337ZM919.611 146.212H939.684V166.337H919.611V146.212ZM919.611 125.818H939.684V145.943H919.611V125.818ZM919.611 105.424H939.684V125.549H919.611V105.424ZM919.611 85.0573H939.684V105.155H919.611V85.0573ZM919.611 64.6633H939.684V84.7879H919.611V64.6633ZM1204.05 84.7879H1183.97V64.6633H1204.05V84.7879ZM1204.05 105.155H1183.97V85.0303H1204.05V105.155ZM1204.05 125.549H1183.97V105.424H1204.05V125.549ZM1204.05 145.943H1183.97V125.818H1204.05V145.943ZM959.999 125.818V145.943H939.926V125.818H959.999ZM959.999 105.424V125.549H939.926V105.424H959.999ZM959.999 85.0573V105.155H939.926V85.0573H959.999ZM1183.71 105.155H1163.63V85.0303H1183.71V105.155ZM1183.71 125.549H1163.63V105.424H1183.71V125.549ZM960.267 105.424H980.341V125.549H960.267V105.424ZM980.609 105.424H1000.68V125.549H980.609V105.424ZM1000.95 105.424H1021.02V125.549H1000.95V105.424ZM1021.29 105.424H1041.37V125.549H1021.29V105.424ZM1041.64 105.424H1061.71V125.549H1041.64V105.424ZM1061.98 105.424H1082.05V125.549H1061.98V105.424ZM1082.29 105.424H1102.36V125.549H1082.29V105.424ZM1102.63 105.424H1122.71V125.549H1102.63V105.424ZM1122.98 105.424H1143.05V125.549H1122.98V105.424ZM1143.32 105.424H1163.39V125.549H1143.32V105.424ZM1163.39 105.155H1143.32V85.0303H1163.39V105.155ZM1143.05 105.155H1122.98V85.0303H1143.05V105.155ZM1122.71 105.155H1102.63V85.0303H1122.71V105.155ZM1102.36 105.155H1082.29V85.0303H1102.36V105.155ZM1082.02 105.155H1061.95V85.0303H1082.02V105.155ZM1061.71 105.155H1041.64V85.0303H1061.71V105.155ZM1041.37 105.155H1021.29V85.0303H1041.37V105.155ZM1021.02 105.155H1000.95V85.0303H1021.02V105.155ZM1000.68 105.155H980.609V85.0303H1000.68V105.155ZM980.341 105.155H960.267V85.0303H980.341V105.155ZM960.267 125.818H980.341V145.943H960.267V125.818ZM980.609 125.818H1000.68V145.943H980.609V125.818ZM1000.95 125.818H1021.02V145.943H1000.95V125.818ZM1021.29 125.818H1041.37V145.943H1021.29V125.818ZM1041.64 125.818H1061.71V145.943H1041.64V125.818ZM1061.98 125.818H1082.05V145.943H1061.98V125.818ZM1082.29 125.818H1102.36V145.943H1082.29V125.818ZM1102.63 125.818H1122.71V145.943H1102.63V125.818ZM1122.98 125.818H1143.05V145.943H1122.98V125.818ZM1143.32 125.818H1163.39V145.943H1143.32V125.818ZM1163.66 125.818H1183.73V145.943H1163.66V125.818ZM1183.71 84.7879H1163.63V64.6633H1183.71V84.7879ZM1163.39 84.7879H1143.32V64.6633H1163.39V84.7879ZM1143.05 84.7879H1122.98V64.6633H1143.05V84.7879ZM1122.71 84.7879H1102.63V64.6633H1122.71V84.7879ZM1102.36 84.7879H1082.29V64.6633H1102.36V84.7879ZM1082.02 84.7879H1061.95V64.6633H1082.02V84.7879ZM1061.71 84.7879H1041.64V64.6633H1061.71V84.7879ZM1041.37 84.7879H1021.29V64.6633H1041.37V84.7879ZM1021.02 84.7879H1000.95V64.6633H1021.02V84.7879ZM1000.68 84.7879H980.609V64.6633H1000.68V84.7879ZM980.341 84.7879H960.267V64.6633H980.341V84.7879ZM959.999 84.7879H939.926V64.6633H959.999V84.7879ZM959.999 146.212V166.337H939.926V146.212H959.999ZM960.267 146.212H980.341V166.337H960.267V146.212ZM980.609 146.212H1000.68V166.337H980.609V146.212ZM1000.95 146.212H1021.02V166.337H1000.95V146.212ZM1021.29 146.212H1041.37V166.337H1021.29V146.212ZM1041.64 146.212H1061.71V166.337H1041.64V146.212ZM1061.98 146.212H1082.05V166.337H1061.98V146.212ZM1082.29 146.212H1102.36V166.337H1082.29V146.212ZM1102.63 146.212H1122.71V166.337H1102.63V146.212ZM1122.98 146.212H1143.05V166.337H1122.98V146.212ZM1143.32 146.212H1163.39V166.337H1143.32V146.212ZM1163.66 146.212H1183.73V166.337H1163.66V146.212ZM1183.97 146.212H1204.05V166.337H1183.97V146.212ZM1183.97 44.2694H1204.05V64.3939H1183.97V44.2694ZM1163.66 44.2694H1183.73V64.3939H1163.66V44.2694ZM1143.32 44.2694H1163.39V64.3939H1143.32V44.2694ZM1122.98 44.2694H1143.05V64.3939H1122.98V44.2694ZM1102.63 44.2694H1122.71V64.3939H1102.63V44.2694ZM1082.29 44.2694H1102.36V64.3939H1082.29V44.2694ZM1061.98 44.2694H1082.05V64.3939H1061.98V44.2694ZM1041.64 44.2694H1061.71V64.3939H1041.64V44.2694ZM1021.29 44.2694H1041.37V64.3939H1021.29V44.2694ZM1000.95 44.2694H1021.02V64.3939H1000.95V44.2694ZM980.609 44.2694H1000.68V64.3939H980.609V44.2694ZM960.267 44.2694H980.341V64.3939H960.267V44.2694ZM959.999 44.2694V64.3939H939.926V44.2694H959.999ZM919.611 44.2694H939.684V64.3939H919.611V44.2694ZM899.269 44.2694H919.342V64.3939H899.269V44.2694ZM899.269 64.6633H919.342V84.7879H899.269V64.6633ZM899.269 85.0573H919.342V105.155H899.269V85.0573ZM899.269 105.424H919.342V125.549H899.269V105.424ZM899.269 125.818H919.342V145.943H899.269V125.818ZM899.269 146.212H919.342V166.337H899.269V146.212ZM919.342 186.731H899.269V166.606H919.342V186.731ZM939.684 186.731H919.611V166.606H939.684V186.731ZM959.999 186.731H939.926V166.606H959.999V186.731ZM980.341 186.731H960.267V166.606H980.341V186.731ZM1000.68 186.731H980.609V166.606H1000.68V186.731ZM1021.02 186.731H1000.95V166.606H1021.02V186.731ZM1041.37 186.731H1021.29V166.606H1041.37V186.731ZM1061.71 186.731H1041.64V166.606H1061.71V186.731ZM1082.02 186.731H1061.95V166.606H1082.02V186.731ZM1102.36 186.731H1082.29V166.606H1102.36V186.731ZM1122.71 186.731H1102.63V166.606H1122.71V186.731ZM1143.05 186.731H1122.98V166.606H1143.05V186.731ZM1163.39 186.731H1143.32V166.606H1163.39V186.731ZM1183.71 186.731H1163.63V166.606H1183.71V186.731ZM1204.05 186.731H1183.97V166.606H1204.05V186.731ZM1224.39 186.731H1204.32V166.606H1224.39V186.731ZM1244.73 186.731H1224.66V166.606H1244.73V186.731ZM1244.73 166.337H1224.66V146.212H1244.73V166.337ZM1244.73 145.943H1224.66V125.818H1244.73V145.943ZM1244.73 125.549H1224.66V105.424H1244.73V125.549ZM1244.73 105.155H1224.66V85.0303H1244.73V105.155ZM1244.73 84.7879H1224.66V64.6633H1244.73V84.7879ZM1224.66 64.3939V44.2694H1244.73V64.3939H1224.66Z" fill="#C2DBFF"/>
<path d="M1245 44V187H1591V44H1245ZM1550.32 44.2694H1570.39V64.3939H1550.32V44.2694ZM1570.39 84.7879H1550.32V64.6633H1570.39V84.7879ZM1570.39 105.155H1550.32V85.0303H1570.39V105.155ZM1570.39 125.549H1550.32V105.424H1570.39V125.549ZM1570.39 145.943H1550.32V125.818H1570.39V145.943ZM1570.39 166.337H1550.32V146.212H1570.39V166.337ZM1265.61 146.212H1285.68V166.337H1265.61V146.212ZM1265.61 125.818H1285.68V145.943H1265.61V125.818ZM1265.61 105.424H1285.68V125.549H1265.61V105.424ZM1265.61 85.0573H1285.68V105.155H1265.61V85.0573ZM1265.61 64.6633H1285.68V84.7879H1265.61V64.6633ZM1550.05 84.7879H1529.97V64.6633H1550.05V84.7879ZM1550.05 105.155H1529.97V85.0303H1550.05V105.155ZM1550.05 125.549H1529.97V105.424H1550.05V125.549ZM1550.05 145.943H1529.97V125.818H1550.05V145.943ZM1306 125.818V145.943H1285.93V125.818H1306ZM1306 105.424V125.549H1285.93V105.424H1306ZM1306 85.0573V105.155H1285.93V85.0573H1306ZM1529.71 105.155H1509.63V85.0303H1529.71V105.155ZM1529.71 125.549H1509.63V105.424H1529.71V125.549ZM1306.27 105.424H1326.34V125.549H1306.27V105.424ZM1326.61 105.424H1346.68V125.549H1326.61V105.424ZM1346.95 105.424H1367.02V125.549H1346.95V105.424ZM1367.29 105.424H1387.37V125.549H1367.29V105.424ZM1387.64 105.424H1407.71V125.549H1387.64V105.424ZM1407.98 105.424H1428.05V125.549H1407.98V105.424ZM1428.29 105.424H1448.36V125.549H1428.29V105.424ZM1448.63 105.424H1468.71V125.549H1448.63V105.424ZM1468.98 105.424H1489.05V125.549H1468.98V105.424ZM1489.32 105.424H1509.39V125.549H1489.32V105.424ZM1509.39 105.155H1489.32V85.0303H1509.39V105.155ZM1489.05 105.155H1468.98V85.0303H1489.05V105.155ZM1468.71 105.155H1448.63V85.0303H1468.71V105.155ZM1448.36 105.155H1428.29V85.0303H1448.36V105.155ZM1428.02 105.155H1407.95V85.0303H1428.02V105.155ZM1407.71 105.155H1387.64V85.0303H1407.71V105.155ZM1387.37 105.155H1367.29V85.0303H1387.37V105.155ZM1367.02 105.155H1346.95V85.0303H1367.02V105.155ZM1346.68 105.155H1326.61V85.0303H1346.68V105.155ZM1326.34 105.155H1306.27V85.0303H1326.34V105.155ZM1306.27 125.818H1326.34V145.943H1306.27V125.818ZM1326.61 125.818H1346.68V145.943H1326.61V125.818ZM1346.95 125.818H1367.02V145.943H1346.95V125.818ZM1367.29 125.818H1387.37V145.943H1367.29V125.818ZM1387.64 125.818H1407.71V145.943H1387.64V125.818ZM1407.98 125.818H1428.05V145.943H1407.98V125.818ZM1428.29 125.818H1448.36V145.943H1428.29V125.818ZM1448.63 125.818H1468.71V145.943H1448.63V125.818ZM1468.98 125.818H1489.05V145.943H1468.98V125.818ZM1489.32 125.818H1509.39V145.943H1489.32V125.818ZM1509.66 125.818H1529.73V145.943H1509.66V125.818ZM1529.71 84.7879H1509.63V64.6633H1529.71V84.7879ZM1509.39 84.7879H1489.32V64.6633H1509.39V84.7879ZM1489.05 84.7879H1468.98V64.6633H1489.05V84.7879ZM1468.71 84.7879H1448.63V64.6633H1468.71V84.7879ZM1448.36 84.7879H1428.29V64.6633H1448.36V84.7879ZM1428.02 84.7879H1407.95V64.6633H1428.02V84.7879ZM1407.71 84.7879H1387.64V64.6633H1407.71V84.7879ZM1387.37 84.7879H1367.29V64.6633H1387.37V84.7879ZM1367.02 84.7879H1346.95V64.6633H1367.02V84.7879ZM1346.68 84.7879H1326.61V64.6633H1346.68V84.7879ZM1326.34 84.7879H1306.27V64.6633H1326.34V84.7879ZM1306 84.7879H1285.93V64.6633H1306V84.7879ZM1306 146.212V166.337H1285.93V146.212H1306ZM1306.27 146.212H1326.34V166.337H1306.27V146.212ZM1326.61 146.212H1346.68V166.337H1326.61V146.212ZM1346.95 146.212H1367.02V166.337H1346.95V146.212ZM1367.29 146.212H1387.37V166.337H1367.29V146.212ZM1387.64 146.212H1407.71V166.337H1387.64V146.212ZM1407.98 146.212H1428.05V166.337H1407.98V146.212ZM1428.29 146.212H1448.36V166.337H1428.29V146.212ZM1448.63 146.212H1468.71V166.337H1448.63V146.212ZM1468.98 146.212H1489.05V166.337H1468.98V146.212ZM1489.32 146.212H1509.39V166.337H1489.32V146.212ZM1509.66 146.212H1529.73V166.337H1509.66V146.212ZM1529.97 146.212H1550.05V166.337H1529.97V146.212ZM1529.97 44.2694H1550.05V64.3939H1529.97V44.2694ZM1509.66 44.2694H1529.73V64.3939H1509.66V44.2694ZM1489.32 44.2694H1509.39V64.3939H1489.32V44.2694ZM1468.98 44.2694H1489.05V64.3939H1468.98V44.2694ZM1448.63 44.2694H1468.71V64.3939H1448.63V44.2694ZM1428.29 44.2694H1448.36V64.3939H1428.29V44.2694ZM1407.98 44.2694H1428.05V64.3939H1407.98V44.2694ZM1387.64 44.2694H1407.71V64.3939H1387.64V44.2694ZM1367.29 44.2694H1387.37V64.3939H1367.29V44.2694ZM1346.95 44.2694H1367.02V64.3939H1346.95V44.2694ZM1326.61 44.2694H1346.68V64.3939H1326.61V44.2694ZM1306.27 44.2694H1326.34V64.3939H1306.27V44.2694ZM1306 44.2694V64.3939H1285.93V44.2694H1306ZM1265.61 44.2694H1285.68V64.3939H1265.61V44.2694ZM1245.27 44.2694H1265.34V64.3939H1245.27V44.2694ZM1245.27 64.6633H1265.34V84.7879H1245.27V64.6633ZM1245.27 85.0573H1265.34V105.155H1245.27V85.0573ZM1245.27 105.424H1265.34V125.549H1245.27V105.424ZM1245.27 125.818H1265.34V145.943H1245.27V125.818ZM1245.27 146.212H1265.34V166.337H1245.27V146.212ZM1265.34 186.731H1245.27V166.606H1265.34V186.731ZM1285.68 186.731H1265.61V166.606H1285.68V186.731ZM1306 186.731H1285.93V166.606H1306V186.731ZM1326.34 186.731H1306.27V166.606H1326.34V186.731ZM1346.68 186.731H1326.61V166.606H1346.68V186.731ZM1367.02 186.731H1346.95V166.606H1367.02V186.731ZM1387.37 186.731H1367.29V166.606H1387.37V186.731ZM1407.71 186.731H1387.64V166.606H1407.71V186.731ZM1428.02 186.731H1407.95V166.606H1428.02V186.731ZM1448.36 186.731H1428.29V166.606H1448.36V186.731ZM1468.71 186.731H1448.63V166.606H1468.71V186.731ZM1489.05 186.731H1468.98V166.606H1489.05V186.731ZM1509.39 186.731H1489.32V166.606H1509.39V186.731ZM1529.71 186.731H1509.63V166.606H1529.71V186.731ZM1550.05 186.731H1529.97V166.606H1550.05V186.731ZM1570.39 186.731H1550.32V166.606H1570.39V186.731ZM1590.73 186.731H1570.66V166.606H1590.73V186.731ZM1590.73 166.337H1570.66V146.212H1590.73V166.337ZM1590.73 145.943H1570.66V125.818H1590.73V145.943ZM1590.73 125.549H1570.66V105.424H1590.73V125.549ZM1590.73 105.155H1570.66V85.0303H1590.73V105.155ZM1590.73 84.7879H1570.66V64.6633H1590.73V84.7879ZM1570.66 64.3939V44.2694H1590.73V64.3939H1570.66Z" fill="#C2DBFF"/>
<path d="M1591 44V187H1937V44H1591ZM1896.32 44.2694H1916.39V64.3939H1896.32V44.2694ZM1916.39 84.7879H1896.32V64.6633H1916.39V84.7879ZM1916.39 105.155H1896.32V85.0303H1916.39V105.155ZM1916.39 125.549H1896.32V105.424H1916.39V125.549ZM1916.39 145.943H1896.32V125.818H1916.39V145.943ZM1916.39 166.337H1896.32V146.212H1916.39V166.337ZM1611.61 146.212H1631.68V166.337H1611.61V146.212ZM1611.61 125.818H1631.68V145.943H1611.61V125.818ZM1611.61 105.424H1631.68V125.549H1611.61V105.424ZM1611.61 85.0573H1631.68V105.155H1611.61V85.0573ZM1611.61 64.6633H1631.68V84.7879H1611.61V64.6633ZM1896.05 84.7879H1875.97V64.6633H1896.05V84.7879ZM1896.05 105.155H1875.97V85.0303H1896.05V105.155ZM1896.05 125.549H1875.97V105.424H1896.05V125.549ZM1896.05 145.943H1875.97V125.818H1896.05V145.943ZM1652 125.818V145.943H1631.93V125.818H1652ZM1652 105.424V125.549H1631.93V105.424H1652ZM1652 85.0573V105.155H1631.93V85.0573H1652ZM1875.71 105.155H1855.63V85.0303H1875.71V105.155ZM1875.71 125.549H1855.63V105.424H1875.71V125.549ZM1652.27 105.424H1672.34V125.549H1652.27V105.424ZM1672.61 105.424H1692.68V125.549H1672.61V105.424ZM1692.95 105.424H1713.02V125.549H1692.95V105.424ZM1713.29 105.424H1733.37V125.549H1713.29V105.424ZM1733.63 105.424H1753.71V125.549H1733.63V105.424ZM1753.98 105.424H1774.05V125.549H1753.98V105.424ZM1774.29 105.424H1794.37V125.549H1774.29V105.424ZM1794.63 105.424H1814.71V125.549H1794.63V105.424ZM1814.98 105.424H1835.05V125.549H1814.98V105.424ZM1835.32 105.424H1855.39V125.549H1835.32V105.424ZM1855.39 105.155H1835.32V85.0303H1855.39V105.155ZM1835.05 105.155H1814.98V85.0303H1835.05V105.155ZM1814.71 105.155H1794.63V85.0303H1814.71V105.155ZM1794.37 105.155H1774.29V85.0303H1794.37V105.155ZM1774.02 105.155H1753.95V85.0303H1774.02V105.155ZM1753.71 105.155H1733.63V85.0303H1753.71V105.155ZM1733.37 105.155H1713.29V85.0303H1733.37V105.155ZM1713.02 105.155H1692.95V85.0303H1713.02V105.155ZM1692.68 105.155H1672.61V85.0303H1692.68V105.155ZM1672.34 105.155H1652.27V85.0303H1672.34V105.155ZM1652.27 125.818H1672.34V145.943H1652.27V125.818ZM1672.61 125.818H1692.68V145.943H1672.61V125.818ZM1692.95 125.818H1713.02V145.943H1692.95V125.818ZM1713.29 125.818H1733.37V145.943H1713.29V125.818ZM1733.63 125.818H1753.71V145.943H1733.63V125.818ZM1753.98 125.818H1774.05V145.943H1753.98V125.818ZM1774.29 125.818H1794.37V145.943H1774.29V125.818ZM1794.63 125.818H1814.71V145.943H1794.63V125.818ZM1814.98 125.818H1835.05V145.943H1814.98V125.818ZM1835.32 125.818H1855.39V145.943H1835.32V125.818ZM1855.66 125.818H1875.73V145.943H1855.66V125.818ZM1875.71 84.7879H1855.63V64.6633H1875.71V84.7879ZM1855.39 84.7879H1835.32V64.6633H1855.39V84.7879ZM1835.05 84.7879H1814.98V64.6633H1835.05V84.7879ZM1814.71 84.7879H1794.63V64.6633H1814.71V84.7879ZM1794.37 84.7879H1774.29V64.6633H1794.37V84.7879ZM1774.02 84.7879H1753.95V64.6633H1774.02V84.7879ZM1753.71 84.7879H1733.63V64.6633H1753.71V84.7879ZM1733.37 84.7879H1713.29V64.6633H1733.37V84.7879ZM1713.02 84.7879H1692.95V64.6633H1713.02V84.7879ZM1692.68 84.7879H1672.61V64.6633H1692.68V84.7879ZM1672.34 84.7879H1652.27V64.6633H1672.34V84.7879ZM1652 84.7879H1631.93V64.6633H1652V84.7879ZM1652 146.212V166.337H1631.93V146.212H1652ZM1652.27 146.212H1672.34V166.337H1652.27V146.212ZM1672.61 146.212H1692.68V166.337H1672.61V146.212ZM1692.95 146.212H1713.02V166.337H1692.95V146.212ZM1713.29 146.212H1733.37V166.337H1713.29V146.212ZM1733.63 146.212H1753.71V166.337H1733.63V146.212ZM1753.98 146.212H1774.05V166.337H1753.98V146.212ZM1774.29 146.212H1794.37V166.337H1774.29V146.212ZM1794.63 146.212H1814.71V166.337H1794.63V146.212ZM1814.98 146.212H1835.05V166.337H1814.98V146.212ZM1835.32 146.212H1855.39V166.337H1835.32V146.212ZM1855.66 146.212H1875.73V166.337H1855.66V146.212ZM1875.97 146.212H1896.05V166.337H1875.97V146.212ZM1875.97 44.2694H1896.05V64.3939H1875.97V44.2694ZM1855.66 44.2694H1875.73V64.3939H1855.66V44.2694ZM1835.32 44.2694H1855.39V64.3939H1835.32V44.2694ZM1814.98 44.2694H1835.05V64.3939H1814.98V44.2694ZM1794.63 44.2694H1814.71V64.3939H1794.63V44.2694ZM1774.29 44.2694H1794.37V64.3939H1774.29V44.2694ZM1753.98 44.2694H1774.05V64.3939H1753.98V44.2694ZM1733.63 44.2694H1753.71V64.3939H1733.63V44.2694ZM1713.29 44.2694H1733.37V64.3939H1713.29V44.2694ZM1692.95 44.2694H1713.02V64.3939H1692.95V44.2694ZM1672.61 44.2694H1692.68V64.3939H1672.61V44.2694ZM1652.27 44.2694H1672.34V64.3939H1652.27V44.2694ZM1652 44.2694V64.3939H1631.93V44.2694H1652ZM1611.61 44.2694H1631.68V64.3939H1611.61V44.2694ZM1591.27 44.2694H1611.34V64.3939H1591.27V44.2694ZM1591.27 64.6633H1611.34V84.7879H1591.27V64.6633ZM1591.27 85.0573H1611.34V105.155H1591.27V85.0573ZM1591.27 105.424H1611.34V125.549H1591.27V105.424ZM1591.27 125.818H1611.34V145.943H1591.27V125.818ZM1591.27 146.212H1611.34V166.337H1591.27V146.212ZM1611.34 186.731H1591.27V166.606H1611.34V186.731ZM1631.68 186.731H1611.61V166.606H1631.68V186.731ZM1652 186.731H1631.93V166.606H1652V186.731ZM1672.34 186.731H1652.27V166.606H1672.34V186.731ZM1692.68 186.731H1672.61V166.606H1692.68V186.731ZM1713.02 186.731H1692.95V166.606H1713.02V186.731ZM1733.37 186.731H1713.29V166.606H1733.37V186.731ZM1753.71 186.731H1733.63V166.606H1753.71V186.731ZM1774.02 186.731H1753.95V166.606H1774.02V186.731ZM1794.37 186.731H1774.29V166.606H1794.37V186.731ZM1814.71 186.731H1794.63V166.606H1814.71V186.731ZM1835.05 186.731H1814.98V166.606H1835.05V186.731ZM1855.39 186.731H1835.32V166.606H1855.39V186.731ZM1875.71 186.731H1855.63V166.606H1875.71V186.731ZM1896.05 186.731H1875.97V166.606H1896.05V186.731ZM1916.39 186.731H1896.32V166.606H1916.39V186.731ZM1936.73 186.731H1916.66V166.606H1936.73V186.731ZM1936.73 166.337H1916.66V146.212H1936.73V166.337ZM1936.73 145.943H1916.66V125.818H1936.73V145.943ZM1936.73 125.549H1916.66V105.424H1936.73V125.549ZM1936.73 105.155H1916.66V85.0303H1936.73V105.155ZM1936.73 84.7879H1916.66V64.6633H1936.73V84.7879ZM1916.66 64.3939V44.2694H1936.73V64.3939H1916.66Z" fill="#C2DBFF"/>
<rect width="1440" height="143" transform="matrix(-1 0 0 1 1792 44)" fill="url(#paint0_linear_406_4879)"/>
<rect x="926" y="4" width="77" height="40" fill="url(#paint1_linear_406_4879)"/>
<rect x="523" y="129" width="193" height="40" fill="url(#paint2_linear_406_4879)"/>
<rect x="1258" y="61" width="155" height="40" fill="url(#paint3_linear_406_4879)"/>
<path d="M-363 161.807C-179.977 74.6316 168.334 -68.6757 97.4009 55.4996C8.73418 210.719 22.8876 216.209 164.421 135.854C305.955 55.4996 492.753 23.5689 460 213" stroke="url(#paint4_linear_406_4879)" stroke-opacity="0.2" stroke-width="20"/>
<path d="M1363.11 -23.7573C1226.38 -22.3495 980.756 -2.41033 1092.09 66.0837C1231.25 151.701 1228.58 161.153 1114.49 152.357C1000.4 143.562 809.932 135.574 946.598 268.095" stroke="url(#paint5_linear_406_4879)" stroke-opacity="0.2" stroke-width="20"/>
</g>
<defs>
<linearGradient id="paint0_linear_406_4879" x1="720" y1="143" x2="720" y2="5.39531e-05" gradientUnits="userSpaceOnUse">
<stop stop-color="white" stop-opacity="0"/>
<stop offset="1" stop-color="white"/>
</linearGradient>
<linearGradient id="paint1_linear_406_4879" x1="926" y1="24" x2="1003" y2="24" gradientUnits="userSpaceOnUse">
<stop stop-color="white"/>
<stop offset="1" stop-color="#EAF3FF"/>
</linearGradient>
<linearGradient id="paint2_linear_406_4879" x1="523" y1="149" x2="716" y2="149" gradientUnits="userSpaceOnUse">
<stop stop-color="white"/>
<stop offset="1" stop-color="#EAF3FF"/>
</linearGradient>
<linearGradient id="paint3_linear_406_4879" x1="1413" y1="81" x2="1258" y2="81" gradientUnits="userSpaceOnUse">
<stop stop-color="white"/>
<stop offset="1" stop-color="#EAF3FF"/>
</linearGradient>
<linearGradient id="paint4_linear_406_4879" x1="893.085" y1="6.99995" x2="-172.324" y2="532.445" gradientUnits="userSpaceOnUse">
<stop offset="0.065" stop-color="#76ACF9"/>
<stop offset="0.16" stop-color="#BCD8FF"/>
<stop offset="0.33" stop-color="#5894EA"/>
<stop offset="0.55" stop-color="#BCD8FF"/>
<stop offset="0.605" stop-color="#BCD8FF"/>
<stop offset="0.725" stop-color="#76ACF9"/>
<stop offset="0.96" stop-color="#BCD8FF"/>
</linearGradient>
<linearGradient id="paint5_linear_406_4879" x1="710.982" y1="324.637" x2="1379.13" y2="22.2289" gradientUnits="userSpaceOnUse">
<stop offset="0.065" stop-color="#76ACF9"/>
<stop offset="0.16" stop-color="#BCD8FF"/>
<stop offset="0.33" stop-color="#5894EA"/>
<stop offset="0.55" stop-color="#BCD8FF"/>
<stop offset="0.605" stop-color="#BCD8FF"/>
<stop offset="0.725" stop-color="#76ACF9"/>
<stop offset="0.96" stop-color="#BCD8FF"/>
</linearGradient>
<clipPath id="clip0_406_4879">
<rect width="1440" height="202" fill="white"/>
</clipPath>
</defs>
</svg>
