<svg width="52" height="36" viewBox="0 0 52 36" fill="none" xmlns="http://www.w3.org/2000/svg">
<rect width="52" height="36" rx="8" fill="#E9F1FD"/>
<path d="M27.6667 12.6667C27.6667 12.2 27.6667 11.9666 27.7575 11.7884C27.8374 11.6316 27.9649 11.5041 28.1217 11.4242C28.3 11.3334 28.5333 11.3334 29 11.3334H31.3334C31.8001 11.3334 32.0334 11.3334 32.2117 11.4242C32.3685 11.5041 32.496 11.6316 32.5759 11.7884C32.6667 11.9666 32.6667 12.2 32.6667 12.6667V15C32.6667 15.4668 32.6667 15.7001 32.5759 15.8784C32.496 16.0352 32.3685 16.1627 32.2117 16.2425C32.0334 16.3334 31.8001 16.3334 31.3334 16.3334H29C28.5333 16.3334 28.3 16.3334 28.1217 16.2425C27.9649 16.1627 27.8374 16.0352 27.7575 15.8784C27.6667 15.7001 27.6667 15.4668 27.6667 15V12.6667Z" stroke="#2373E6" stroke-width="1.66667" stroke-linecap="round" stroke-linejoin="round"/>
<path d="M19.3334 12.6667C19.3334 12.2 19.3334 11.9666 19.4242 11.7884C19.5041 11.6316 19.6316 11.5041 19.7884 11.4242C19.9666 11.3334 20.2 11.3334 20.6667 11.3334H23C23.4668 11.3334 23.7001 11.3334 23.8784 11.4242C24.0352 11.5041 24.1627 11.6316 24.2425 11.7884C24.3334 11.9666 24.3334 12.2 24.3334 12.6667V15C24.3334 15.4668 24.3334 15.7001 24.2425 15.8784C24.1627 16.0352 24.0352 16.1627 23.8784 16.2425C23.7001 16.3334 23.4668 16.3334 23 16.3334H20.6667C20.2 16.3334 19.9666 16.3334 19.7884 16.2425C19.6316 16.1627 19.5041 16.0352 19.4242 15.8784C19.3334 15.7001 19.3334 15.4668 19.3334 15V12.6667Z" stroke="#2373E6" stroke-width="1.66667" stroke-linecap="round" stroke-linejoin="round"/>
<path d="M19.3334 21C19.3334 20.5333 19.3334 20.3 19.4242 20.1217C19.5041 19.9649 19.6316 19.8374 19.7884 19.7575C19.9666 19.6667 20.2 19.6667 20.6667 19.6667H23C23.4668 19.6667 23.7001 19.6667 23.8784 19.7575C24.0352 19.8374 24.1627 19.9649 24.2425 20.1217C24.3334 20.3 24.3334 20.5333 24.3334 21V23.3334C24.3334 23.8001 24.3334 24.0334 24.2425 24.2117C24.1627 24.3685 24.0352 24.496 23.8784 24.5759C23.7001 24.6667 23.4668 24.6667 23 24.6667H20.6667C20.2 24.6667 19.9666 24.6667 19.7884 24.5759C19.6316 24.496 19.5041 24.3685 19.4242 24.2117C19.3334 24.0334 19.3334 23.8001 19.3334 23.3334V21Z" stroke="#2373E6" stroke-width="1.66667" stroke-linecap="round" stroke-linejoin="round"/>
<path d="M27.6667 21C27.6667 20.5333 27.6667 20.3 27.7575 20.1217C27.8374 19.9649 27.9649 19.8374 28.1217 19.7575C28.3 19.6667 28.5333 19.6667 29 19.6667H31.3334C31.8001 19.6667 32.0334 19.6667 32.2117 19.7575C32.3685 19.8374 32.496 19.9649 32.5759 20.1217C32.6667 20.3 32.6667 20.5333 32.6667 21V23.3334C32.6667 23.8001 32.6667 24.0334 32.5759 24.2117C32.496 24.3685 32.3685 24.496 32.2117 24.5759C32.0334 24.6667 31.8001 24.6667 31.3334 24.6667H29C28.5333 24.6667 28.3 24.6667 28.1217 24.5759C27.9649 24.496 27.8374 24.3685 27.7575 24.2117C27.6667 24.0334 27.6667 23.8001 27.6667 23.3334V21Z" stroke="#2373E6" stroke-width="1.66667" stroke-linecap="round" stroke-linejoin="round"/>
</svg>
