<svg width="201" height="200" viewBox="0 0 201 200" fill="none" xmlns="http://www.w3.org/2000/svg">
<g clip-path="url(#clip0_1611_16791)">
<path d="M115.65 81.5903L110.71 81.6956L108.202 81.7369C107.362 81.7369 106.518 81.7369 105.679 81.7369H105.513V81.5677L105.49 77.3599V77.1719H105.679L110.664 77.1944C112.329 77.1944 113.989 77.2358 115.65 77.2546H115.756V77.3561C115.756 78.0706 115.722 78.7775 115.703 79.4807L115.65 81.5903ZM115.65 81.5903L115.597 79.4619C115.597 78.7625 115.556 78.0706 115.548 77.3825L115.65 77.484C113.989 77.484 112.329 77.5441 110.664 77.5441L105.679 77.5705L105.867 77.3825L105.848 81.5903L105.679 81.4211C106.499 81.4211 107.32 81.4211 108.145 81.4436L110.623 81.485L115.65 81.5903Z" fill="#EBEBEB"/>
<path d="M110.081 86.894L105.141 86.9993L102.629 87.0407C101.793 87.0407 100.95 87.0407 100.11 87.0595H99.9442V86.8903L99.9141 82.69V82.502H100.102L105.088 82.5245C106.749 82.5245 108.413 82.5659 110.074 82.5847H110.179V82.69C110.179 83.4044 110.149 84.1114 110.13 84.8146L110.081 86.894ZM110.081 86.894L110.029 84.7657C110.01 84.0663 109.987 83.3744 109.98 82.6862L110.081 82.7877C108.421 82.8065 106.756 82.8479 105.096 82.8479L100.11 82.8742L100.298 82.6862L100.291 86.894L100.121 86.7248C100.942 86.7248 101.763 86.7248 102.588 86.7474L105.062 86.7887L110.081 86.894Z" fill="#EBEBEB"/>
<path d="M121.212 86.894L116.271 86.9993L113.763 87.0407C112.923 87.0407 112.084 87.0407 111.24 87.0595H111.074V86.8903L111.052 82.69V82.502H111.24L116.226 82.5245C117.89 82.5245 119.551 82.5659 121.212 82.5847H121.317V82.69C121.317 83.4044 121.283 84.1114 121.268 84.8146L121.212 86.894ZM121.212 86.894L121.159 84.7657C121.159 84.0663 121.118 83.3744 121.11 82.6862L121.212 82.7877C119.551 82.8065 117.89 82.8479 116.226 82.8479L111.24 82.8742L111.428 82.6862L111.41 86.894L111.24 86.7248C112.065 86.7248 112.882 86.7248 113.707 86.7474L116.184 86.7887L121.212 86.894Z" fill="#EBEBEB"/>
<path d="M34.3449 109.43L29.4043 109.535L26.8925 109.577C26.0566 109.577 25.213 109.577 24.3733 109.595H24.2227V109.426V105.218V105.03H24.4109L29.3967 105.053C31.0574 105.053 32.7219 105.094 34.3825 105.113H34.488V105.215C34.488 105.929 34.4579 106.636 34.439 107.339L34.3449 109.43ZM34.3449 109.43L34.2922 107.302C34.2733 106.602 34.2507 105.91 34.2432 105.222L34.3449 105.324C32.6842 105.342 31.0198 105.384 29.3591 105.384L24.3733 105.41L24.5616 105.222L24.5427 109.43L24.3733 109.261C25.1942 109.261 26.0151 109.261 26.8398 109.283L29.3139 109.325L34.3449 109.43Z" fill="#EBEBEB"/>
<path d="M184.59 81.5851L179.649 81.6904L177.141 81.7318C176.301 81.7506 175.458 81.7318 174.618 81.7506H174.452V81.5814L174.43 77.3736V77.1855H174.618L179.604 77.2081C181.268 77.2081 182.929 77.2532 184.59 77.272H184.695V77.3736C184.695 78.088 184.665 78.7987 184.646 79.4982L184.59 81.5851ZM184.59 81.5851L184.537 79.4606C184.518 78.7574 184.495 78.0655 184.488 77.3773L184.59 77.4789C182.929 77.4977 181.268 77.539 179.604 77.5428L174.618 77.5653L174.806 77.3773L174.787 81.5851L174.618 81.4159C175.439 81.4159 176.26 81.4159 177.085 81.4385L179.562 81.4799L184.59 81.5851Z" fill="#EBEBEB"/>
<path d="M23.2221 40.722L18.2777 40.8273L15.7698 40.8687C14.9338 40.8687 14.0903 40.8687 13.2505 40.8912H13.0811V40.722V36.5142V36.3262H13.2731L18.2589 36.3525C19.9196 36.3525 21.5803 36.3939 23.2447 36.4127H23.3464V36.5142C23.3464 37.2287 23.3125 37.9394 23.2974 38.6425L23.2221 40.722ZM23.2221 40.722L23.1656 38.5974C23.1656 37.8942 23.1242 37.2023 23.1167 36.5142L23.2221 36.6157C21.5577 36.6383 19.897 36.6759 18.2363 36.6796L13.2505 36.7022L13.4388 36.5142L13.4162 40.722L13.2505 40.5754C14.0714 40.5754 14.8886 40.5754 15.7133 40.5754L18.1911 40.6167L23.2221 40.722Z" fill="#EBEBEB"/>
<path d="M146.624 59.7488C146.707 59.9364 146.736 60.1434 146.708 60.3466C146.681 60.5498 146.597 60.7412 146.466 60.8995C146.394 60.9897 146.327 61.08 146.259 61.174C146.191 61.268 146.127 61.3658 146.063 61.4598C145.956 61.634 145.802 61.7748 145.619 61.8665C145.436 61.9582 145.231 61.997 145.027 61.9787L143.6 61.8396L143.145 66.4761L144.568 66.6152C144.772 66.6388 144.966 66.7174 145.128 66.8426C145.291 66.9678 145.416 67.1349 145.491 67.3259C145.573 67.5422 145.668 67.7532 145.777 67.9577C145.87 68.1394 145.913 68.3432 145.9 68.5472C145.886 68.7512 145.818 68.9477 145.701 69.1158L144.869 70.274L148.661 72.989L149.494 71.8308C149.615 71.6667 149.78 71.5388 149.969 71.4607C150.158 71.3825 150.364 71.3571 150.567 71.3871C150.796 71.4209 151.026 71.4435 151.26 71.4548C151.465 71.461 151.665 71.5245 151.836 71.6381C152.007 71.7518 152.142 71.911 152.227 72.0978L152.819 73.3989L157.07 71.4736L156.475 70.165C156.396 69.9803 156.37 69.7777 156.398 69.579C156.425 69.3803 156.507 69.1929 156.633 69.0369C156.705 68.9504 156.776 68.8564 156.84 68.7661C156.904 68.6759 156.972 68.5781 157.036 68.4803C157.144 68.3062 157.299 68.1654 157.482 68.0738C157.666 67.9821 157.871 67.9432 158.076 67.9614L159.503 68.1043L159.962 63.464L158.539 63.3249C158.335 63.3017 158.142 63.2236 157.979 63.0991C157.817 62.9746 157.691 62.8083 157.616 62.618C157.532 62.4011 157.437 62.189 157.33 61.9825C157.233 61.8015 157.189 61.5973 157.203 61.3927C157.216 61.1881 157.286 60.9912 157.405 60.8243L158.238 59.6661L154.423 56.9323L153.591 58.0905C153.471 58.2568 153.307 58.3864 153.117 58.4648C152.928 58.5432 152.72 58.5673 152.517 58.5342C152.288 58.5004 152.054 58.4778 151.821 58.4666C151.616 58.457 151.418 58.3921 151.248 58.2789C151.077 58.1656 150.941 58.0082 150.853 57.8235L150.265 56.5225L146.014 58.4365L146.624 59.7488ZM153.779 61.8546C154.395 62.2942 154.866 62.9062 155.133 63.6132C155.4 64.3202 155.452 65.0905 155.28 65.8267C155.109 66.5628 154.723 67.2317 154.171 67.7488C153.619 68.2659 152.926 68.6078 152.18 68.7315C151.433 68.8551 150.666 68.7549 149.977 68.4434C149.287 68.132 148.706 67.6233 148.306 66.9817C147.906 66.3402 147.705 65.5946 147.73 64.8393C147.754 64.0839 148.002 63.3528 148.443 62.7383C149.034 61.9156 149.928 61.3606 150.928 61.195C151.928 61.0293 152.954 61.2665 153.779 61.8546Z" fill="#EBEBEB"/>
<path d="M18.0021 90.3436C17.928 90.4668 17.8213 90.5672 17.6937 90.6336C17.5661 90.6999 17.4226 90.7297 17.2791 90.7197H17.038H16.797C16.654 90.7299 16.511 90.7001 16.3839 90.6337C16.2569 90.5673 16.1509 90.4668 16.0778 90.3436L15.5619 89.46L12.7301 91.0919L13.2309 91.9606C13.3022 92.0853 13.3371 92.2275 13.3318 92.371C13.3264 92.5145 13.2811 92.6537 13.2008 92.7728C13.1132 92.9089 13.0328 93.0495 12.9598 93.194C12.8951 93.3223 12.7962 93.4303 12.6739 93.506C12.5516 93.5816 12.4108 93.622 12.2669 93.6227H11.2803V96.8904H12.282C12.4258 96.891 12.5667 96.9314 12.689 97.0071C12.8113 97.0828 12.9102 97.1907 12.9748 97.3191C13.0478 97.4635 13.1283 97.6041 13.2158 97.7402C13.2961 97.8594 13.3415 97.9985 13.3468 98.1421C13.3521 98.2856 13.3172 98.4277 13.246 98.5525L12.7451 99.4211L15.5619 101.068L16.0665 100.196C16.1376 100.072 16.2427 99.9703 16.3694 99.9037C16.4961 99.8371 16.6393 99.808 16.782 99.8197H17.023H17.264C17.4075 99.8101 17.5508 99.8401 17.6783 99.9064C17.8059 99.9727 17.9127 100.073 17.987 100.196L18.4878 101.064L21.3197 99.4324L20.8188 98.5675C20.7479 98.4421 20.7129 98.2997 20.7176 98.1558C20.7222 98.0119 20.7664 97.8721 20.8452 97.7515C20.9348 97.6159 21.0165 97.4753 21.09 97.3303C21.1546 97.202 21.2535 97.094 21.3758 97.0184C21.4981 96.9427 21.639 96.9023 21.7828 96.9017H22.7808V93.6339H21.7828C21.639 93.6333 21.4981 93.5929 21.3758 93.5172C21.2535 93.4416 21.1546 93.3336 21.09 93.2053C21.0165 93.0603 20.9348 92.9197 20.8452 92.7841C20.7664 92.6635 20.7222 92.5237 20.7176 92.3798C20.7129 92.2359 20.7479 92.0935 20.8188 91.9681L21.3197 91.1032L18.5029 89.46L18.0021 90.3436ZM19.7192 95.2697C19.7192 95.7983 19.5623 96.3151 19.2683 96.7547C18.9742 97.1943 18.5563 97.5369 18.0673 97.7394C17.5783 97.9419 17.0401 97.995 16.5209 97.8922C16.0016 97.7893 15.5245 97.5351 15.1499 97.1615C14.7753 96.788 14.52 96.312 14.4163 95.7936C14.3126 95.2752 14.365 94.7377 14.5671 94.2491C14.7692 93.7605 15.1118 93.3427 15.5516 93.0485C15.9914 92.7543 16.5087 92.5968 17.038 92.5961C17.7459 92.6001 18.4234 92.8834 18.9229 93.3842C19.4223 93.8851 19.7032 94.5629 19.7042 95.2697H19.7192Z" fill="#EBEBEB"/>
<path d="M136.812 45.3452C136.725 45.4575 136.608 45.5436 136.475 45.594C136.342 45.6445 136.198 45.6573 136.058 45.631L135.821 45.5934L135.58 45.5671C135.437 45.5606 135.298 45.5132 135.181 45.4306C135.063 45.348 134.972 45.2336 134.917 45.1008L134.541 44.1758L131.528 45.428L131.905 46.353C131.956 46.4877 131.968 46.6339 131.941 46.7753C131.914 46.9167 131.848 47.0478 131.75 47.154C131.646 47.2738 131.548 47.3993 131.457 47.53C131.375 47.6509 131.262 47.7466 131.128 47.8064C130.995 47.8662 130.848 47.8877 130.704 47.8684L129.713 47.7368L129.303 50.9858L130.293 51.1174C130.435 51.1364 130.569 51.1942 130.68 51.2845C130.791 51.3747 130.875 51.4939 130.922 51.6288C130.977 51.7823 131.04 51.9329 131.11 52.08C131.174 52.2085 131.2 52.3522 131.187 52.4949C131.174 52.6376 131.121 52.7739 131.035 52.8885L130.432 53.6857L133.031 55.6674L133.641 54.8702C133.729 54.7589 133.845 54.6738 133.978 54.6241C134.111 54.5744 134.255 54.5619 134.394 54.5882L134.635 54.6258L134.872 54.6483C135.016 54.6575 135.154 54.7063 135.272 54.7893C135.39 54.8723 135.482 54.9862 135.539 55.1184L135.915 56.0472L138.928 54.7912L138.551 53.8699C138.497 53.7367 138.48 53.591 138.503 53.449C138.527 53.3069 138.589 53.1741 138.683 53.0652C138.789 52.9454 138.888 52.8199 138.981 52.6892C139.062 52.5684 139.176 52.4729 139.309 52.4137C139.442 52.3545 139.589 52.334 139.734 52.3545L140.728 52.4824L141.15 49.2447L140.159 49.1169C140.016 49.0978 139.882 49.0395 139.77 48.9486C139.658 48.8576 139.574 48.7376 139.527 48.6017C139.473 48.4475 139.41 48.2968 139.338 48.1505C139.276 48.0207 139.251 47.8765 139.265 47.7334C139.279 47.5902 139.331 47.4536 139.417 47.3382L140.027 46.5448L137.429 44.5631L136.812 45.3452ZM137.877 50.4555C137.807 50.9791 137.582 51.47 137.232 51.8663C136.883 52.2626 136.423 52.5466 135.912 52.6824C135.401 52.8181 134.861 52.7996 134.36 52.6292C133.859 52.4588 133.42 52.144 133.099 51.7247C132.777 51.3054 132.587 50.8003 132.552 50.2732C132.518 49.7461 132.64 49.2205 132.904 48.7629C133.169 48.3053 133.563 47.9361 134.037 47.702C134.511 47.4678 135.044 47.3792 135.569 47.4473C135.919 47.4927 136.256 47.6066 136.561 47.7825C136.867 47.9584 137.135 48.1929 137.349 48.4724C137.564 48.752 137.721 49.071 137.811 49.4114C137.902 49.7517 137.924 50.1065 137.877 50.4555Z" fill="#EBEBEB"/>
<path d="M8.01465 160.972L36.6378 160.882L65.261 160.848L122.507 160.784L179.754 160.848L208.377 160.882L237 160.972L208.377 161.066L179.754 161.096L122.507 161.16L65.261 161.096L36.6378 161.062L8.01465 160.972Z" fill="#263238"/>
<path d="M104 189C154.81 189 196 184.523 196 179C196 173.477 154.81 169 104 169C53.1898 169 12 173.477 12 179C12 184.523 53.1898 189 104 189Z" fill="#EBEBEB"/>
<path d="M164.3 109.848H71.0605V177.338H164.3V109.848Z" fill="#2373E6"/>
<path d="M104.003 102.86H71.0605V109.847H105.897L104.003 102.86Z" fill="#2373E6"/>
<g opacity="0.1">
<path d="M164.297 109.847H71.0576V177.337H164.297V109.847Z" fill="black"/>
<path d="M104 102.86H71.0576V109.847H105.894L104 102.86Z" fill="black"/>
</g>
<path d="M146.066 147.961C127.862 142.761 110.062 137.617 92.54 132.525C96.9497 111.96 109.297 91.812 110.126 70.9346C128.314 75.823 146.104 80.7415 163.599 85.6676C159.155 106.568 146.823 126.918 146.066 147.961Z" fill="#EBEBEB"/>
<path d="M146.064 147.962C127.857 142.792 110.053 137.685 92.5195 132.624L92.4141 132.594L92.4329 132.496C96.8275 111.923 109.156 91.7714 109.947 70.8864C109.947 70.8338 109.947 70.7812 109.947 70.7285L110.124 70.7774C128.328 75.6922 146.121 80.6144 163.635 85.5555L163.755 85.5894L163.729 85.7022C159.229 106.591 146.862 126.931 146.064 147.962ZM146.064 147.962C146.78 126.904 159.082 106.546 163.492 85.6345C163.526 85.6796 163.556 85.7285 163.59 85.7774C146.079 80.8702 128.298 75.9779 110.117 71.0933L110.301 70.9842C109.435 91.8541 97.0685 111.998 92.6475 132.56L92.5609 132.432C110.079 137.554 127.861 142.728 146.064 147.962Z" fill="#DBDBDB"/>
<path d="M143.183 109.764C140.476 116.981 132.263 121.004 124.622 118.744C116.981 116.484 112.948 108.862 115.584 101.683C118.22 94.505 126.128 90.4025 133.863 92.6361C141.598 94.8698 145.921 102.522 143.183 109.764Z" fill="#455A64"/>
<path d="M129.399 105.696C126.262 109.276 123.088 112.841 119.985 116.417C117.745 114.771 116.105 112.439 115.313 109.776C114.521 107.114 114.621 104.266 115.598 101.665C118.196 94.5207 126.18 90.4181 133.877 92.6179C141.574 94.8177 145.904 102.568 143.182 109.746C138.59 108.393 133.996 107.043 129.399 105.696Z" fill="#DBDBDB"/>
<path d="M129.399 105.696C132.136 109.37 134.844 113.044 137.608 116.729C135.722 117.991 133.582 118.824 131.338 119.169C129.094 119.514 126.802 119.363 124.624 118.726C116.979 116.489 112.976 108.799 115.586 101.665C118.196 94.532 126.168 90.4182 133.865 92.618C141.562 94.8178 145.892 102.568 143.17 109.746C138.586 108.393 133.995 107.043 129.399 105.696Z" fill="#DBDBDB"/>
<path d="M129.398 105.696L114.938 108.103C114.616 105.936 114.844 103.722 115.601 101.665C118.199 94.5207 126.183 90.4181 133.88 92.6179C141.577 94.8177 145.907 102.568 143.185 109.746C138.591 108.393 133.995 107.043 129.398 105.696Z" fill="#2373E6"/>
<path d="M114.248 79.9912C121.637 82.0418 128.973 84.095 136.259 86.1506C136.131 86.6809 135.999 87.2148 135.882 87.7488C128.622 85.6931 121.316 83.64 113.966 81.5894C114.052 81.0554 114.15 80.5252 114.248 79.9912Z" fill="#DBDBDB"/>
<path d="M112.585 121.113C122.321 123.979 132.112 126.862 141.958 129.762C141.811 130.292 141.668 130.826 141.529 131.356C131.645 128.461 121.826 125.578 112.073 122.708C112.239 122.171 112.41 121.64 112.585 121.113Z" fill="#DBDBDB"/>
<path d="M111.31 125.103C121.101 127.978 130.969 130.87 140.913 133.778C140.784 134.312 140.664 134.846 140.536 135.376C130.559 132.465 120.658 129.569 110.832 126.686C110.994 126.155 111.148 125.629 111.31 125.103Z" fill="#DBDBDB"/>
<path d="M110.171 129.097C120.052 131.99 130.015 134.896 140.06 137.817C139.962 138.351 139.868 138.885 139.781 139.423C129.676 136.492 119.67 133.579 109.761 130.684C109.893 130.153 110.032 129.623 110.171 129.097Z" fill="#DBDBDB"/>
<path d="M106.828 121.157L103.304 120.116C103.481 119.589 103.661 119.066 103.842 118.54L107.378 119.578C107.185 120.104 107.002 120.631 106.828 121.157Z" fill="#2373E6"/>
<path d="M105.561 125.141L101.995 124.096C102.157 123.57 102.323 123.043 102.492 122.521L106.047 123.562C105.885 124.089 105.727 124.615 105.561 125.141Z" fill="#455A64"/>
<path d="M104.432 129.129L100.836 128.08C100.979 127.554 101.126 127.027 101.277 126.501L104.858 127.546C104.722 128.073 104.579 128.603 104.432 129.129Z" fill="#DBDBDB"/>
<path d="M162.916 100.875C162.731 124.894 162.505 148.644 162.239 172.126C132.738 173.859 101.339 163.887 72.4414 169.328C72.6222 145.312 72.8481 121.561 73.1192 98.0736C102.62 96.3438 134.015 106.316 162.916 100.875Z" fill="#2373E6"/>
<path opacity="0.8" d="M162.916 100.875C162.731 124.894 162.505 148.644 162.239 172.126C132.738 173.859 101.339 163.887 72.4414 169.328C72.6222 145.312 72.8481 121.561 73.1192 98.0736C102.62 96.3438 134.015 106.316 162.916 100.875Z" fill="white"/>
<path d="M85.501 161.315C85.6541 148.28 85.8186 135.31 85.9943 122.407C86.7474 122.407 87.5144 122.422 88.2951 122.452C88.1194 135.333 87.9499 148.263 87.7868 161.244C87.0236 161.269 86.2617 161.293 85.501 161.315Z" fill="#DBDBDB"/>
<path d="M91.2773 161.217C91.4481 148.286 91.6263 135.407 91.8121 122.579C92.584 122.613 93.3522 122.654 94.1242 122.699C93.9359 135.505 93.7527 148.352 93.5744 161.243C92.81 161.228 92.0418 161.217 91.2773 161.217Z" fill="#DBDBDB"/>
<path d="M97.0889 161.353C97.2746 148.502 97.4629 135.693 97.6537 122.926L99.9772 123.106C99.7788 135.859 99.5843 148.644 99.3935 161.462C98.6303 161.422 97.8621 161.385 97.0889 161.353Z" fill="#DBDBDB"/>
<path d="M102.925 161.676C103.211 142.954 103.506 124.289 103.81 105.681L106.141 105.918C105.837 124.524 105.539 143.167 105.248 161.849C104.48 161.789 103.708 161.729 102.925 161.676Z" fill="#DBDBDB"/>
<path d="M108.8 162.15C109.096 143.494 109.399 124.876 109.707 106.298L112.042 106.554C111.738 125.14 111.435 143.743 111.131 162.365C110.355 162.289 109.576 162.218 108.8 162.15Z" fill="#DBDBDB"/>
<path d="M114.687 162.721C114.988 144.11 115.293 125.517 115.602 106.94L117.94 107.192C117.631 125.791 117.324 144.382 117.017 162.966L114.687 162.721Z" fill="#DBDBDB"/>
<path d="M120.575 163.349C120.884 144.763 121.19 126.168 121.494 107.564L123.825 107.798C123.526 126.426 123.222 145.029 122.914 163.605L120.575 163.349Z" fill="#DBDBDB"/>
<path d="M126.474 163.993C126.78 145.401 127.081 126.78 127.377 108.129C128.153 108.197 128.929 108.261 129.705 108.321C129.411 127.01 129.112 145.65 128.808 164.241C128.029 164.162 127.253 164.079 126.474 163.993Z" fill="#DBDBDB"/>
<path d="M132.361 164.604C132.663 145.981 132.955 127.304 133.239 108.575C134.011 108.628 134.786 108.673 135.555 108.714C135.281 127.488 134.994 146.191 134.692 164.822L132.361 164.604Z" fill="#DBDBDB"/>
<path d="M138.239 165.139C138.53 146.458 138.81 127.705 139.079 108.881C139.847 108.911 140.615 108.934 141.384 108.949C141.133 127.833 140.859 146.625 140.563 165.324L138.239 165.139Z" fill="#DBDBDB"/>
<path d="M144.097 165.557C144.375 146.793 144.639 127.937 144.887 108.99C145.641 108.99 146.404 108.983 147.177 108.968C146.944 127.985 146.693 146.888 146.424 165.677C145.646 165.645 144.87 165.605 144.097 165.557Z" fill="#DBDBDB"/>
<path d="M149.93 165.793C150.181 146.923 150.423 127.939 150.656 108.839C151.41 108.801 152.163 108.76 152.916 108.707C152.705 127.885 152.472 146.927 152.215 165.834C151.462 165.837 150.7 165.823 149.93 165.793Z" fill="#DBDBDB"/>
<path d="M161.034 103.158H73.7598V171.051H161.034V103.158Z" fill="#EBEBEB"/>
<path d="M161.037 103.157L161.153 171.057V171.178H161.037L73.7587 171.242H73.5742V171.057L73.6194 103.168V103.025H73.7587L161.037 103.157ZM161.037 103.157L73.7587 103.296L73.9018 103.157L73.9282 171.057L73.7437 170.873L161.022 170.941L160.916 171.057L161.037 103.157Z" fill="#DBDBDB"/>
<path d="M92.4117 163.62L92.3477 137.102L92.4117 110.584L92.4795 137.102L92.4117 163.62Z" fill="#C7C7C7"/>
<path d="M94.5805 163.62L94.5127 137.102L94.5805 110.584L94.6445 137.102L94.5805 163.62Z" fill="#C7C7C7"/>
<path d="M96.7455 163.62L96.6777 137.102L96.7455 110.584L96.8133 137.102L96.7455 163.62Z" fill="#C7C7C7"/>
<path d="M98.9115 163.62L98.8438 137.102L98.9115 110.584L98.9793 137.102L98.9115 163.62Z" fill="#C7C7C7"/>
<path d="M101.077 163.62L101.009 137.102L101.077 110.584L101.144 137.102L101.077 163.62Z" fill="#C7C7C7"/>
<path d="M103.241 163.62L103.177 137.102L103.241 110.584L103.309 137.102L103.241 163.62Z" fill="#C7C7C7"/>
<path d="M105.411 163.62L105.343 137.102L105.411 110.584L105.475 137.102L105.411 163.62Z" fill="#C7C7C7"/>
<path d="M107.577 163.62L107.509 137.102L107.577 110.584L107.641 137.102L107.577 163.62Z" fill="#C7C7C7"/>
<path d="M109.742 163.62L109.674 137.102L109.742 110.584L109.809 137.102L109.742 163.62Z" fill="#C7C7C7"/>
<path d="M111.906 163.62L111.838 137.102L111.906 110.584L111.973 137.102L111.906 163.62Z" fill="#C7C7C7"/>
<path d="M114.071 163.62L114.003 137.102L114.071 110.584L114.138 137.102L114.071 163.62Z" fill="#C7C7C7"/>
<path d="M116.238 163.62L116.174 137.102L116.238 110.584L116.306 137.102L116.238 163.62Z" fill="#C7C7C7"/>
<path d="M118.407 163.62L118.339 137.102L118.407 110.584L118.471 137.102L118.407 163.62Z" fill="#C7C7C7"/>
<path d="M120.572 163.62L120.504 137.102L120.572 110.584L120.639 137.102L120.572 163.62Z" fill="#C7C7C7"/>
<path d="M122.738 163.62L122.67 137.102L122.738 110.584L122.805 137.102L122.738 163.62Z" fill="#C7C7C7"/>
<path d="M116.169 153.986V158.01H125.259V153.986H116.169Z" fill="#2373E6"/>
<path d="M111.322 146.526V150.55H125.259V146.526H111.322Z" fill="#2373E6"/>
<path d="M105.892 139.068V143.092H125.259V139.068H105.892Z" fill="#2373E6"/>
<path d="M103.563 131.605V135.629H125.262V131.605H103.563Z" fill="#2373E6"/>
<path d="M99.4102 124.145V128.169H125.262V124.145H99.4102Z" fill="#2373E6"/>
<path d="M95.3027 116.682V120.706H125.259V116.682H95.3027Z" fill="#2373E6"/>
<path d="M90.8936 162.183L99.4831 162.078L108.076 162.007C113.804 161.958 119.532 161.943 125.259 161.931L125.011 162.183V149.282L125.041 136.384L125.124 123.482L125.271 110.584L125.421 123.482L125.5 136.384L125.531 149.282V162.183V162.432H125.282C119.554 162.432 113.827 162.405 108.099 162.356L99.5057 162.285L90.8936 162.183Z" fill="#C7C7C7"/>
<path d="M127.079 153.99V158.014H127.444V153.99H127.079Z" fill="#C7C7C7"/>
<path d="M127.076 146.53V150.554H127.441V146.53H127.076Z" fill="#C7C7C7"/>
<path d="M127.076 139.068V143.092H127.441V139.068H127.076Z" fill="#C7C7C7"/>
<path d="M127.076 131.605V135.629H127.441V131.605H127.076Z" fill="#C7C7C7"/>
<path d="M127.079 124.145V128.169H127.444V124.145H127.079Z" fill="#C7C7C7"/>
<path d="M127.079 116.682V120.706H127.444V116.682H127.079Z" fill="#C7C7C7"/>
<path d="M117.317 157.559C117.283 155.593 117.13 153.632 116.858 151.685C116.613 149.739 116.265 147.807 115.815 145.898C114.953 142.074 113.645 138.365 111.917 134.846C110.22 131.317 108.005 128.06 105.346 125.182L104.853 124.641L104.33 124.125L103.279 123.099C102.526 122.467 101.822 121.786 101.019 121.219C99.4712 120.003 97.8349 118.903 96.124 117.928L96.1428 117.895C101.474 120.577 106.039 124.563 109.413 129.48C110.546 131.108 111.553 132.818 112.426 134.598C114.155 138.163 115.435 141.928 116.237 145.808C117.075 149.666 117.438 153.612 117.317 157.559Z" fill="#263238"/>
<path d="M98.9483 116.785L99.0876 117.342L96.3387 118.026L97.2236 120.715L96.6738 120.891L95.6006 117.616L98.9483 116.785Z" fill="#263238"/>
<path d="M141.016 164.756V109.449H138.775V164.756H141.016Z" fill="#DBDBDB"/>
<path d="M146.671 164.752V133.616H144.43V164.752H146.671Z" fill="#DBDBDB"/>
<path d="M85.6484 152.67V121.534H83.4078V152.67H85.6484Z" fill="#DBDBDB"/>
<path d="M177.129 106.448L177.095 174.341L89.8174 174.296L89.8437 123.888L106.481 106.414L177.129 106.448Z" fill="#2373E6"/>
<path opacity="0.6" d="M177.129 106.448L177.095 174.341L89.8174 174.296L89.8437 123.888L106.481 106.414L177.129 106.448Z" fill="white"/>
<path d="M89.8438 123.888L106.481 106.414L106.473 123.896L89.8438 123.888Z" fill="#2373E6"/>
<path opacity="0.4" d="M89.8438 123.888L106.481 106.414L106.473 123.896L89.8438 123.888Z" fill="white"/>
<path d="M106.704 167.68L106.724 129.934L104.483 129.932L104.463 167.679L106.704 167.68Z" fill="white"/>
<path d="M112.358 167.68L112.378 129.934L110.137 129.932L110.118 167.679L112.358 167.68Z" fill="white"/>
<path d="M118.017 167.686L118.037 129.939L115.797 129.938L115.777 167.685L118.017 167.686Z" fill="white"/>
<path d="M123.672 167.689L123.701 112.382L121.461 112.381L121.432 167.688L123.672 167.689Z" fill="white"/>
<path d="M129.329 167.694L129.358 112.387L127.118 112.386L127.089 167.693L129.329 167.694Z" fill="white"/>
<path d="M134.987 167.697L135.016 112.39L132.775 112.388L132.746 167.696L134.987 167.697Z" fill="white"/>
<path d="M140.644 167.697L140.673 112.39L138.432 112.388L138.403 167.696L140.644 167.697Z" fill="white"/>
<path d="M146.296 167.702L146.325 112.395L144.085 112.393L144.056 167.7L146.296 167.702Z" fill="white"/>
<path d="M151.956 167.702L151.985 112.395L149.745 112.393L149.716 167.7L151.956 167.702Z" fill="white"/>
<path d="M157.615 167.707L157.644 112.4L155.403 112.399L155.374 167.706L157.615 167.707Z" fill="white"/>
<path d="M163.269 167.71L163.298 112.403L161.057 112.402L161.028 167.709L163.269 167.71Z" fill="white"/>
<path d="M168.925 167.71L168.954 112.403L166.713 112.402L166.684 167.709L168.925 167.71Z" fill="white"/>
<path d="M164.055 177.338H70.8156L63.623 115.446H156.862L164.055 177.338Z" fill="#2373E6"/>
<path d="M95.8233 109.039H62.8809L63.6227 115.447H98.4593L95.8233 109.039Z" fill="#2373E6"/>
<path d="M81.7248 185.613C80.8737 185.887 56.5736 185.673 55.651 185.082C55.3008 184.857 55.1275 181.322 55.0372 177.043C55.0183 176.121 55.0033 175.163 54.992 174.196L53.1807 161.23L69.4259 161.328L70.8004 174.29L70.7025 177.137C70.7025 177.137 79.9699 181.375 80.9114 182.13C81.8528 182.886 82.5909 185.349 81.7248 185.613Z" fill="#EB9481"/>
<path d="M81.725 185.611C80.8739 185.885 56.5738 185.671 55.6512 185.081C55.2257 184.806 55.0562 179.643 54.9922 174.176L70.8082 174.27L70.7103 177.116C70.7103 177.116 79.9777 181.354 80.9191 182.11C81.8605 182.866 82.5911 185.348 81.725 185.611Z" fill="white"/>
<path d="M81.7237 185.612C80.8727 185.886 56.5725 185.672 55.6499 185.082C55.2997 184.856 55.1265 181.321 55.0361 177.042L70.7015 177.136C70.7015 177.136 79.9689 181.374 80.9103 182.13C81.8518 182.886 82.5898 185.349 81.7237 185.612Z" fill="#2373E6"/>
<path d="M81.3857 184.637C77.3112 184.502 60.8739 184.337 56.837 184.513C56.8069 184.513 56.8069 184.536 56.837 184.536C60.8701 184.762 77.3112 184.792 81.3857 184.701C81.461 184.701 81.461 184.637 81.3857 184.637Z" fill="#263238"/>
<path d="M79.3545 181.245C78.9015 181.229 78.4498 181.306 78.0284 181.473C77.607 181.64 77.225 181.893 76.9068 182.216C76.3318 182.791 76.0002 183.565 75.9805 184.378C75.9805 184.404 76.0257 184.404 76.0294 184.378C76.1726 183.573 76.5746 182.836 77.1746 182.28C77.7747 181.723 78.5399 181.377 79.3545 181.294C79.3594 181.292 79.3636 181.289 79.3666 181.285C79.3695 181.28 79.3711 181.275 79.3711 181.27C79.3711 181.265 79.3695 181.259 79.3666 181.255C79.3636 181.251 79.3594 181.247 79.3545 181.245Z" fill="#263238"/>
<path d="M72.2801 177.553C70.6495 177.515 68.7554 178.075 67.7273 179.395C67.6897 179.448 67.7612 179.504 67.8102 179.478C69.2438 178.746 70.7509 178.167 72.3065 177.752C72.33 177.745 72.3504 177.73 72.3639 177.71C72.3774 177.69 72.3831 177.665 72.3799 177.641C72.3766 177.617 72.3648 177.594 72.3465 177.578C72.3281 177.562 72.3046 177.553 72.2801 177.553Z" fill="#263238"/>
<path d="M73.5536 178.053C71.923 178.015 70.0289 178.575 69.0046 179.899C68.9632 179.948 69.0347 180.004 69.0837 179.982C70.5074 179.248 72.006 178.669 73.5536 178.256C73.5758 178.25 73.5955 178.236 73.6095 178.218C73.6235 178.2 73.6311 178.177 73.6311 178.154C73.6311 178.131 73.6235 178.109 73.6095 178.09C73.5955 178.072 73.5758 178.059 73.5536 178.053Z" fill="#263238"/>
<path d="M74.7885 178.557C73.158 178.52 71.2638 179.076 70.2396 180.4C70.1981 180.449 70.2735 180.505 70.3186 180.483C71.7508 179.747 73.2583 179.169 74.8149 178.757C74.8385 178.75 74.8589 178.735 74.8724 178.715C74.8858 178.694 74.8915 178.67 74.8883 178.646C74.8851 178.621 74.8732 178.599 74.8549 178.583C74.8366 178.567 74.813 178.558 74.7885 178.557Z" fill="#263238"/>
<path d="M76.0414 179.056C74.4109 179.019 72.5167 179.575 71.4925 180.899C71.451 180.952 71.5264 181.008 71.5753 180.982C73.0073 180.249 74.5133 179.67 76.0678 179.256C76.0914 179.249 76.1118 179.234 76.1253 179.214C76.1387 179.194 76.1444 179.169 76.1412 179.145C76.138 179.12 76.1261 179.098 76.1078 179.082C76.0895 179.066 76.0659 179.057 76.0414 179.056Z" fill="#263238"/>
<path d="M57.9094 180.657C56.0793 180.657 56.0604 183.485 57.8906 183.496C59.7207 183.508 59.7395 180.669 57.9094 180.657Z" fill="#263238"/>
<path d="M74.0808 173.225C73.2599 172.533 72.1979 173.191 71.7009 173.898C70.8445 175.121 70.3251 176.548 70.1946 178.034C70.1939 178.041 70.1947 178.047 70.197 178.053C70.1992 178.06 70.2029 178.065 70.2077 178.069C70.2124 178.074 70.2181 178.077 70.2244 178.079C70.2306 178.081 70.2372 178.081 70.2435 178.08C70.2496 178.111 70.2629 178.14 70.2825 178.164C70.302 178.189 70.3271 178.209 70.3558 178.222C70.3844 178.235 70.4158 178.242 70.4474 178.24C70.4789 178.239 70.5097 178.23 70.5373 178.215C71.7046 177.422 73.049 176.711 73.9264 175.583C74.4498 174.951 74.8565 173.879 74.0808 173.225ZM72.0473 176.666C71.4825 177.072 70.9176 177.444 70.349 177.869C70.6215 177.051 70.9358 176.248 71.2904 175.462C71.4665 175.085 71.6691 174.721 71.8967 174.372C72.2544 173.834 73.8661 172.492 74.013 174.263C74.0959 175.241 72.7214 176.188 72.0473 176.666Z" fill="#263238"/>
<path d="M66.1263 178.617C67.5422 178.846 69.0108 178.455 70.4079 178.241C70.438 178.233 70.4658 178.218 70.4893 178.198C70.5128 178.177 70.5312 178.152 70.5433 178.123C70.5553 178.094 70.5605 178.063 70.5586 178.032C70.5567 178.001 70.5476 177.971 70.5321 177.944C70.5376 177.94 70.542 177.935 70.5451 177.929C70.5481 177.923 70.5497 177.917 70.5497 177.91C70.5497 177.903 70.5481 177.897 70.5451 177.891C70.542 177.885 70.5376 177.88 70.5321 177.876C69.4265 176.864 68.073 176.161 66.6083 175.838C65.7497 175.665 64.5334 175.887 64.3978 176.947C64.2622 178.008 65.2978 178.482 66.1263 178.617ZM65.1472 177.681C64.0589 176.274 66.1564 176.176 66.7853 176.331C67.189 176.437 67.5852 176.571 67.9714 176.729C68.7773 177.049 69.5229 177.481 70.2874 177.857C69.5982 177.917 68.9166 178.034 68.2275 178.117C67.4028 178.226 65.7497 178.455 65.1472 177.681Z" fill="#263238"/>
<path d="M30.0518 101.117C30.0518 101.117 48.5037 133.396 48.997 135.652C49.7502 139.119 53.4218 173.312 53.4218 173.312L71.5989 173.199C71.5989 173.199 68.5863 143.056 65.5059 133.099C63.8264 127.665 54.9619 112.928 50.8197 105.648C50.4431 104.998 50.5561 102.023 50.5561 102.023L30.0518 101.117Z" fill="#455A64"/>
<path d="M69.8515 170.168C67.0347 170.115 58.5016 169.878 54.7472 170.168C54.7171 170.168 54.7171 170.216 54.7472 170.22C56.0351 170.423 67.0347 170.288 69.8515 170.22C69.8567 170.226 69.8634 170.229 69.8707 170.231C69.8781 170.232 69.8857 170.232 69.8926 170.229C69.8995 170.226 69.9055 170.221 69.9096 170.215C69.9138 170.209 69.916 170.201 69.916 170.194C69.916 170.186 69.9138 170.179 69.9096 170.173C69.9055 170.167 69.8995 170.162 69.8926 170.159C69.8857 170.156 69.8781 170.156 69.8707 170.157C69.8634 170.159 69.8567 170.162 69.8515 170.168Z" fill="#263238"/>
<path d="M33.2333 104.096C34.4459 106.048 35.7262 107.958 36.9651 109.895C38.204 111.831 39.443 113.768 40.6631 115.716C43.1007 119.611 45.4857 123.541 47.8179 127.504C48.9465 129.33 49.907 131.255 50.6874 133.254C51.4015 135.258 51.9309 137.324 52.269 139.425C52.6267 141.53 52.8564 143.659 53.0673 145.783C53.2933 148.039 53.5179 150.303 53.7414 152.574C54.2033 157.207 54.664 161.845 55.1234 166.488C55.1799 167.056 55.2364 167.616 55.2853 168.195C55.2853 168.278 55.1422 168.293 55.1347 168.195C54.6113 163.588 54.1895 158.975 53.7225 154.364L53.0221 147.479C52.8075 145.347 52.6004 143.211 52.2953 141.087C52.0066 138.993 51.5597 136.924 50.9585 134.897C50.306 132.8 49.4219 130.782 48.3225 128.881C46.097 124.936 43.7396 121.055 41.3785 117.182C39.0174 113.309 36.5961 109.387 34.1032 105.551C33.7944 105.078 33.4856 104.608 33.1655 104.141C33.1467 104.092 33.2107 104.059 33.2333 104.096Z" fill="#263238"/>
<path d="M37.3604 186.927C36.4642 186.852 13.4745 177.229 12.8418 176.323C12.8142 176.271 12.8025 176.212 12.808 176.154C12.808 175.36 14.4573 172.6 15.8205 168.975C15.9071 168.742 16.5172 167.671 17.3607 166.219C19.6841 162.244 23.7963 155.431 23.7963 155.431L38.8253 161.609L31.4633 172.326L30.3072 174.928C30.3072 174.928 37.3039 182.328 37.8876 183.385C38.4713 184.442 38.2491 186.987 37.3604 186.927Z" fill="#EB9481"/>
<path d="M37.3604 186.927C36.4642 186.852 13.4745 177.229 12.8418 176.323C12.8142 176.271 12.8025 176.212 12.808 176.154C12.808 175.36 14.4573 172.6 15.8205 168.975C15.9071 168.742 16.5172 167.67 17.3607 166.219L31.4633 172.326L30.3072 174.928C30.3072 174.928 37.3039 182.328 37.8876 183.385C38.4713 184.441 38.2491 186.987 37.3604 186.927Z" fill="white"/>
<path d="M37.3558 186.928C36.4633 186.864 13.4699 177.23 12.841 176.335C12.6 175.997 13.6695 172.857 15.8536 168.987L30.3403 174.94C30.3403 174.94 37.3407 182.34 37.9282 183.397C38.5156 184.454 38.2483 186.988 37.3558 186.928Z" fill="#2373E6"/>
<path d="M37.4025 185.898C33.6783 184.247 18.4987 177.937 14.6953 176.587C14.6614 176.587 14.6539 176.587 14.6953 176.609C18.3518 178.328 33.5766 184.506 37.3875 185.958C37.4628 185.988 37.4854 185.931 37.4025 185.898Z" fill="#263238"/>
<path d="M36.7992 181.99C36.3837 181.808 35.9349 181.714 35.4812 181.714C35.0275 181.714 34.5787 181.808 34.1632 181.99C33.4134 182.308 32.8148 182.902 32.4912 183.648C32.4912 183.671 32.5213 183.69 32.5364 183.667C32.9714 182.974 33.6207 182.442 34.3859 182.151C35.151 181.86 35.9903 181.826 36.7766 182.054C36.7851 182.057 36.7944 182.056 36.8025 182.052C36.8107 182.049 36.8169 182.042 36.8199 182.033C36.8229 182.025 36.8224 182.015 36.8185 182.007C36.8146 181.999 36.8077 181.993 36.7992 181.99Z" fill="#263238"/>
<path d="M31.6281 175.922C30.1218 175.275 28.1636 175.083 26.7327 175.922C26.6762 175.955 26.7327 176.034 26.7779 176.027C28.3806 175.885 29.9939 175.914 31.5904 176.113C31.6125 176.112 31.6334 176.103 31.6499 176.088C31.6664 176.073 31.6777 176.053 31.682 176.032C31.6862 176.01 31.6833 175.988 31.6735 175.968C31.6638 175.948 31.6479 175.932 31.6281 175.922Z" fill="#263238"/>
<path d="M32.6047 176.854C31.0984 176.211 29.1402 176.015 27.7092 176.854C27.6528 176.888 27.7092 176.967 27.7544 176.963C29.3569 176.818 30.9705 176.845 32.567 177.046C32.5891 177.044 32.61 177.035 32.6265 177.02C32.643 177.005 32.6543 176.986 32.6585 176.964C32.6628 176.942 32.6598 176.92 32.6501 176.9C32.6404 176.88 32.6244 176.864 32.6047 176.854Z" fill="#263238"/>
<path d="M33.5763 177.789C32.0701 177.142 30.1157 176.95 28.6809 177.789C28.6244 177.819 28.6809 177.898 28.7261 177.894C30.3301 177.752 31.9447 177.781 33.5425 177.981C33.5643 177.978 33.5847 177.969 33.6007 177.954C33.6166 177.939 33.6273 177.919 33.6312 177.897C33.635 177.876 33.6317 177.854 33.6218 177.834C33.6119 177.814 33.596 177.799 33.5763 177.789Z" fill="#263238"/>
<path d="M34.5509 178.722C33.0447 178.079 31.0865 177.883 29.6555 178.722C29.599 178.756 29.6555 178.835 29.7007 178.831C31.3045 178.686 32.9193 178.713 34.5171 178.914C34.5389 178.911 34.5593 178.902 34.5753 178.887C34.5913 178.872 34.602 178.852 34.6058 178.831C34.6096 178.809 34.6063 178.787 34.5964 178.767C34.5865 178.748 34.5706 178.732 34.5509 178.722Z" fill="#263238"/>
<path d="M17.143 173.413C15.4522 172.721 14.3676 175.342 16.0584 176.045C17.7492 176.748 18.8375 174.112 17.143 173.413Z" fill="#263238"/>
<path d="M34.9224 172.581C34.4216 171.634 33.2052 171.852 32.4634 172.314C31.2026 173.128 30.179 174.259 29.496 175.593C29.4929 175.599 29.4913 175.606 29.4912 175.612C29.4911 175.619 29.4926 175.625 29.4956 175.631C29.4985 175.637 29.5028 175.642 29.5081 175.646C29.5135 175.65 29.5196 175.653 29.5261 175.654C29.5198 175.684 29.521 175.716 29.5294 175.746C29.5379 175.776 29.5535 175.804 29.5749 175.827C29.5963 175.849 29.6229 175.867 29.6524 175.877C29.6819 175.888 29.7135 175.891 29.7445 175.887C31.1266 175.593 32.6366 175.447 33.8868 174.736C34.6136 174.322 35.3931 173.476 34.9224 172.581ZM31.7517 175.011C31.0776 175.172 30.3998 175.3 29.7295 175.488C30.3094 174.853 30.8592 174.191 31.5031 173.608C31.8098 173.326 32.1343 173.063 32.4747 172.822C33.0094 172.446 35.009 171.818 34.4818 173.514C34.1805 174.443 32.55 174.819 31.7517 175.011Z" fill="#263238"/>
<path d="M25.5238 174.602C26.7514 175.354 28.2577 175.531 29.6284 175.865C29.7715 175.903 29.8657 175.76 29.8581 175.64C29.8647 175.638 29.8709 175.635 29.8762 175.631C29.8815 175.627 29.8857 175.621 29.8886 175.615C29.8915 175.609 29.893 175.602 29.8929 175.595C29.8929 175.589 29.8913 175.582 29.8882 175.576C29.2403 174.224 28.2482 173.066 27.0112 172.218C26.2845 171.737 25.0719 171.485 24.5485 172.417C24.025 173.35 24.8083 174.166 25.5238 174.602ZM24.974 173.369C24.492 171.654 26.4803 172.353 26.9962 172.729C27.3295 172.98 27.6464 173.251 27.9451 173.541C28.574 174.139 29.105 174.816 29.6661 175.467C29.0033 175.264 28.3292 175.117 27.6589 174.937C26.8568 174.718 25.2376 174.312 24.974 173.369Z" fill="#263238"/>
<path d="M32.6525 171.748L15.8311 164.724C15.8311 164.724 37.1713 134.205 37.3559 131.919C37.5178 129.892 28.529 112.121 28.2315 106.969C27.9077 101.411 30.6378 97.1469 33.6127 94.5146L50.5584 102.035C50.5584 102.035 49.0785 105.044 46.1601 106.661C46.1601 106.661 54.8514 127.177 54.2639 133.449C53.6765 139.721 32.6525 171.748 32.6525 171.748Z" fill="#455A64"/>
<path d="M33.4442 168.547C31.0154 167.468 31.7271 167.742 29.2831 166.689C28.0856 166.174 20.2454 162.798 19.0253 162.512C18.999 162.512 18.9801 162.549 19.0253 162.564C20.0684 163.219 27.9877 166.46 29.1927 166.949C31.6555 167.957 30.9589 167.641 33.4329 168.619C33.4411 168.618 33.4487 168.614 33.4545 168.608C33.4604 168.603 33.4643 168.595 33.4656 168.587C33.4669 168.579 33.4655 168.571 33.4616 168.563C33.4578 168.556 33.4517 168.551 33.4442 168.547Z" fill="#263238"/>
<path d="M49.0418 106.313C47.22 106.71 45.436 107.264 43.7096 107.967C43.6982 107.974 43.6894 107.984 43.6846 107.996C43.6798 108.008 43.6794 108.022 43.6834 108.034C43.6874 108.046 43.6955 108.057 43.7065 108.064C43.7175 108.071 43.7305 108.074 43.7435 108.073C45.5322 107.573 47.3548 107.11 49.1096 106.52C49.1353 106.509 49.1561 106.49 49.1678 106.465C49.1795 106.44 49.1812 106.411 49.1726 106.385C49.164 106.358 49.1457 106.336 49.1214 106.323C49.0971 106.31 49.0687 106.306 49.0418 106.313Z" fill="#263238"/>
<path d="M46.9818 105.569C46.8099 105.869 46.6565 106.179 46.5224 106.498C46.3938 106.74 46.3133 107.004 46.2852 107.276C46.2868 107.287 46.2915 107.297 46.2987 107.306C46.3058 107.314 46.3151 107.321 46.3257 107.324C46.3362 107.328 46.3474 107.328 46.3582 107.326C46.369 107.323 46.3789 107.318 46.3868 107.31C46.5723 107.091 46.7234 106.845 46.835 106.58C46.9856 106.295 47.1437 106.009 47.2868 105.719C47.3847 105.528 47.091 105.385 46.9818 105.569Z" fill="#263238"/>
<path d="M47.2166 103.936C47.3258 103.669 47.435 103.402 47.5518 103.139C47.6685 102.876 47.8116 102.594 47.9283 102.312C47.9283 102.267 48.015 102.312 47.9961 102.346C47.8869 102.613 47.8154 102.895 47.725 103.173C47.6346 103.451 47.5405 103.722 47.4463 103.997C47.2693 104.508 47.0698 105.012 46.8288 105.501C47.1153 105.518 47.402 105.472 47.6685 105.365C47.9364 105.2 48.1457 104.956 48.2673 104.666C48.4254 104.365 48.5685 104.061 48.7304 103.767C48.9252 103.448 49.0916 103.112 49.2275 102.763C49.2275 102.718 49.3104 102.763 49.2953 102.793C49.0497 103.536 48.7292 104.251 48.3388 104.929C48.1769 105.192 48.0413 105.467 47.7438 105.568C47.4198 105.655 47.0811 105.673 46.7497 105.621C46.7083 105.621 46.6555 105.621 46.6706 105.557C46.8246 105.008 47.0068 104.467 47.2166 103.936Z" fill="#263238"/>
<path d="M46.441 107.318C47.0435 108.638 47.5707 109.951 48.1355 111.267C48.7004 112.583 49.2012 113.85 49.6983 115.155C50.7025 117.795 51.6 120.472 52.3908 123.187C52.7774 124.528 53.1314 125.879 53.4527 127.241C53.801 128.6 54.0527 129.982 54.2059 131.377C54.3409 132.769 54.2041 134.174 53.8029 135.513C53.388 136.838 52.8575 138.124 52.2176 139.356C51.841 140.135 51.7017 140.03 51.89 139.635C52.4247 138.507 53.8293 135.122 53.7728 132.257C53.7064 130.875 53.5072 129.502 53.1778 128.158C52.8766 126.782 52.5301 125.417 52.1536 124.059C51.4004 121.386 50.523 118.761 49.6117 116.144C49.0996 114.677 48.546 113.222 48.0263 111.759C47.5067 110.297 46.9606 108.954 46.377 107.345C46.3771 107.337 46.3793 107.33 46.3835 107.324C46.3876 107.318 46.3935 107.313 46.4003 107.31C46.4071 107.308 46.4146 107.307 46.4218 107.308C46.429 107.31 46.4357 107.313 46.441 107.318Z" fill="#263238"/>
<path d="M33.6362 102.827C33.9412 102.718 34.3592 102.906 34.668 102.963C35.0625 103.034 35.4613 103.079 35.8618 103.098C36.2586 103.116 36.6561 103.107 37.0517 103.072C37.4454 103.065 37.8322 102.968 38.1814 102.786C38.7612 102.38 39.2605 101.87 39.6538 101.282C40.122 100.677 40.5106 100.015 40.8099 99.3114C40.8099 99.27 40.8852 99.3114 40.8701 99.3415C40.7383 99.7438 40.6404 100.15 40.471 100.545C40.3108 100.914 40.1206 101.27 39.9024 101.609C39.5419 102.29 39.0163 102.871 38.3735 103.297C37.6693 103.673 36.7655 103.651 35.9823 103.598C35.5301 103.565 35.0808 103.5 34.6379 103.403C34.3178 103.331 33.7831 103.271 33.5797 102.989C33.568 102.976 33.56 102.96 33.5566 102.943C33.5532 102.926 33.5544 102.908 33.5601 102.891C33.5659 102.875 33.576 102.86 33.5894 102.849C33.6028 102.838 33.6189 102.83 33.6362 102.827Z" fill="#263238"/>
<path d="M20.6958 161.564C23.5277 157.4 26.308 153.202 29.0369 148.971C31.7658 144.739 34.4595 140.467 37.1181 136.155C37.7508 135.129 38.4813 134.102 38.8955 132.963C39.3474 131.718 39.1139 130.511 38.7374 129.285C38.0237 127.045 37.1839 124.847 36.2219 122.701C35.2729 120.543 34.2486 118.422 33.2432 116.308C32.1826 114.213 31.2433 112.059 30.4302 109.856C29.7147 107.739 29.4587 105.546 30.0536 103.369C30.6486 101.192 31.8951 99.2703 33.1942 97.4691C33.5369 96.9916 33.8834 96.5215 34.2261 96.0477C34.2524 96.0101 34.3089 96.0477 34.2825 96.0891C32.8516 97.9692 31.4545 99.9585 30.6034 102.177C30.1642 103.268 29.9097 104.425 29.8503 105.599C29.8286 106.792 30.0003 107.98 30.3587 109.119C31.0139 111.333 32.0683 113.439 33.0474 115.511C34.0265 117.583 35.0809 119.764 36.0599 121.904C37.0453 124.061 37.9176 126.267 38.6734 128.514C39.0047 129.518 39.3738 130.571 39.3361 131.639C39.2985 132.813 38.7223 133.862 38.1311 134.843C35.5478 139.119 32.8591 143.338 30.1628 147.534C27.4666 151.731 24.6724 155.92 21.8783 160.067L20.79 161.658C20.7486 161.707 20.6544 161.628 20.6958 161.564Z" fill="#263238"/>
<path d="M57.8563 66.811C56.7266 65.0625 54.4973 64.4232 52.2567 64.6375C50.0161 64.8519 47.2822 65.7092 46.6345 69.4696C46.111 72.523 46.7135 75.6215 46.3332 79.0509C45.9529 82.4803 41.3323 90.4259 46.8981 95.164C51.8952 99.4244 63.1772 97.2698 64.3145 89.7679C65.2145 83.819 58.9596 77.5355 58.4889 75.1026C58.0182 72.6696 59.1178 68.7288 57.8563 66.811Z" fill="#263238"/>
<path d="M58.4906 70.2812C58.3061 72.0139 58.4517 73.7657 58.9199 75.4442C59.0465 75.8771 59.2314 76.2907 59.4697 76.6738C59.6994 77.0499 59.9479 77.4033 60.1927 77.7568C60.6935 78.46 61.1868 79.1594 61.6462 79.8776C62.5878 81.2969 63.322 82.8429 63.8266 84.469C64.3085 86.1128 64.4847 87.8308 64.3463 89.538C64.507 88.6867 64.574 87.8204 64.5458 86.9546C64.5071 86.0843 64.381 85.2201 64.1693 84.375C63.7264 82.6847 63.0075 81.0788 62.0416 79.6219C61.5709 78.8924 61.0626 78.1892 60.558 77.4936C60.025 76.8403 59.5876 76.1149 59.2588 75.3389C58.9744 74.5386 58.7824 73.7084 58.6864 72.8646C58.5693 72.0082 58.504 71.1455 58.4906 70.2812Z" fill="#263238"/>
<path d="M46.518 72.0684C46.3711 73.8207 46.2921 75.573 46.0624 77.299C45.9515 78.16 45.7906 79.0137 45.5803 79.856C45.3657 80.6795 45.0343 81.4955 44.7406 82.3228C44.4469 83.1501 44.1757 83.9924 43.946 84.8498C43.7254 85.7133 43.5781 86.5938 43.5054 87.482C43.448 88.373 43.5139 89.2676 43.7013 90.1405C43.9278 90.9991 44.3248 91.8034 44.8686 92.5058C44.4097 91.7657 44.0918 90.9472 43.931 90.0917C43.7926 89.2399 43.7723 88.3731 43.8707 87.5158C44.1187 85.7965 44.5622 84.111 45.1925 82.492C45.4749 81.6647 45.8063 80.8488 46.0172 79.9726C46.2194 79.1066 46.3566 78.2267 46.4276 77.3404C46.5612 75.5863 46.5914 73.8259 46.518 72.0684Z" fill="#263238"/>
<path d="M49.2344 80.9315C48.7185 83.8721 49.0311 96.5971 50.5148 100.658C52.247 105.392 56.1219 113.729 57.4738 113.722C58.7617 113.722 65.781 109.623 65.0052 108.483C64.2295 107.344 58.8671 98.8608 58.114 97.2965C57.6621 96.3677 54.8905 87.0195 53.1508 82.3416C51.5692 78.1075 49.9461 76.8854 49.2344 80.9315Z" fill="#EB9481"/>
<path d="M48.7525 89.1296L56.9505 89.9644C56.9505 89.9644 53.5952 81.5638 51.8931 79.3716C50.0103 76.9048 49.1442 78.4127 48.7375 81.3457C48.3308 84.2788 48.7525 89.1296 48.7525 89.1296Z" fill="#2373E6"/>
<path d="M50.8908 80.7019C50.8916 80.7838 50.8679 80.8642 50.8229 80.9327C50.7778 81.0012 50.7134 81.0548 50.6377 81.0867C50.5621 81.1186 50.4787 81.1273 50.3981 81.1118C50.3175 81.0962 50.2434 81.0571 50.1851 80.9994C50.1267 80.9418 50.0869 80.8681 50.0706 80.7877C50.0543 80.7074 50.0623 80.624 50.0936 80.5482C50.1248 80.4724 50.1779 80.4076 50.2461 80.362C50.3143 80.3164 50.3945 80.292 50.4766 80.292C50.5858 80.292 50.6906 80.3351 50.7682 80.4118C50.8458 80.4886 50.8898 80.5928 50.8908 80.7019ZM50.4766 85.5001C50.3947 85.5001 50.3146 85.5243 50.2465 85.5698C50.1783 85.6152 50.1253 85.6798 50.0939 85.7554C50.0626 85.831 50.0544 85.9142 50.0703 85.9944C50.0863 86.0746 50.1258 86.1483 50.1837 86.2062C50.2416 86.264 50.3154 86.3034 50.3958 86.3194C50.4761 86.3354 50.5594 86.3272 50.6351 86.2959C50.7108 86.2645 50.7755 86.2115 50.821 86.1435C50.8665 86.0755 50.8908 85.9955 50.8908 85.9137C50.8913 85.8592 50.881 85.8052 50.8603 85.7548C50.8397 85.7044 50.8092 85.6586 50.7706 85.6201C50.7321 85.5816 50.6862 85.5511 50.6357 85.5305C50.5852 85.5099 50.5311 85.4996 50.4766 85.5001ZM54.0804 85.5001C53.9985 85.5001 53.9184 85.5243 53.8503 85.5698C53.7821 85.6152 53.729 85.6798 53.6977 85.7554C53.6663 85.831 53.6581 85.9142 53.6741 85.9944C53.6901 86.0746 53.7295 86.1483 53.7875 86.2062C53.8454 86.264 53.9192 86.3034 53.9996 86.3194C54.0799 86.3354 54.1632 86.3272 54.2389 86.2959C54.3146 86.2645 54.3793 86.2115 54.4248 86.1435C54.4703 86.0755 54.4946 85.9955 54.4946 85.9137C54.4946 85.804 54.451 85.6988 54.3733 85.6212C54.2956 85.5436 54.1902 85.5001 54.0804 85.5001ZM48.6766 82.9017H48.5975C48.5975 83.1649 48.5749 83.4356 48.5674 83.7064C48.6036 83.7121 48.6404 83.7121 48.6766 83.7064C48.7865 83.7064 48.8918 83.6628 48.9695 83.5852C49.0472 83.5077 49.0908 83.4025 49.0908 83.2927C49.0908 83.183 49.0472 83.0778 48.9695 83.0003C48.8918 82.9227 48.7865 82.8791 48.6766 82.8791V82.9017ZM52.2804 82.9017C52.1983 82.9009 52.1178 82.9246 52.0492 82.9695C51.9806 83.0145 51.9269 83.0789 51.895 83.1544C51.8631 83.2299 51.8543 83.3132 51.8699 83.3937C51.8854 83.4742 51.9246 83.5482 51.9824 83.6064C52.0402 83.6647 52.1139 83.7044 52.1944 83.7207C52.2749 83.737 52.3583 83.729 52.4342 83.6978C52.5102 83.6666 52.5751 83.6136 52.6208 83.5455C52.6664 83.4774 52.6908 83.3973 52.6908 83.3153C52.6908 83.2063 52.6477 83.1016 52.5708 83.0241C52.494 82.9467 52.3896 82.9027 52.2804 82.9017ZM48.6992 88.1135C48.7218 88.4895 48.7406 88.7603 48.7557 88.9333C48.8555 88.9146 48.945 88.86 49.0071 88.7798C49.0692 88.6996 49.0997 88.5994 49.0928 88.4983C49.0858 88.3971 49.0418 88.302 48.9693 88.2311C48.8967 88.1602 48.8006 88.1183 48.6992 88.1135ZM52.2992 88.1135C52.217 88.1128 52.1364 88.1365 52.0677 88.1816C51.999 88.2268 51.9453 88.2914 51.9135 88.3671C51.8817 88.4428 51.8731 88.5263 51.889 88.6069C51.9049 88.6875 51.9444 88.7615 52.0026 88.8196C52.0607 88.8777 52.1349 88.9172 52.2156 88.933C52.2963 88.9488 52.3799 88.9403 52.4557 88.9085C52.5315 88.8768 52.5962 88.8232 52.6414 88.7546C52.6867 88.686 52.7104 88.6055 52.7097 88.5234C52.7097 88.4679 52.6985 88.413 52.6767 88.3621C52.6549 88.3111 52.623 88.265 52.5829 88.2267C52.5427 88.1884 52.4952 88.1586 52.4432 88.1391C52.3912 88.1197 52.3358 88.111 52.2804 88.1135H52.2992ZM55.8992 88.1135C55.8171 88.1135 55.7369 88.1379 55.6687 88.1835C55.6005 88.2291 55.5474 88.2939 55.5162 88.3697C55.4849 88.4455 55.477 88.5289 55.4933 88.6092C55.5095 88.6896 55.5494 88.7633 55.6077 88.821C55.666 88.8786 55.7401 88.9177 55.8207 88.9333C55.9013 88.9488 55.9847 88.9401 56.0604 88.9082C56.136 88.8763 56.2004 88.8227 56.2455 88.7542C56.2905 88.6857 56.3142 88.6053 56.3135 88.5234C56.3135 88.4676 56.3022 88.4124 56.2802 88.3611C56.2582 88.3099 56.2259 88.2636 56.1854 88.2253C56.1448 88.1869 56.0969 88.1572 56.0444 88.138C55.992 88.1188 55.9362 88.1104 55.8804 88.1135H55.8992Z" fill="white"/>
<path d="M55.9446 88.3908C55.6659 88.3193 53.1165 88.0148 52.5554 87.9659C51.9943 87.917 49.7311 87.6726 49.1663 87.665C49.1638 87.665 49.1614 87.6655 49.1591 87.6665C49.1568 87.6674 49.1547 87.6688 49.153 87.6705C49.1512 87.6723 49.1498 87.6744 49.1489 87.6766C49.1479 87.6789 49.1475 87.6814 49.1475 87.6838C49.1475 87.6863 49.1479 87.6888 49.1489 87.691C49.1498 87.6933 49.1512 87.6954 49.153 87.6971C49.1547 87.6989 49.1568 87.7003 49.1591 87.7012C49.1614 87.7022 49.1638 87.7026 49.1663 87.7026C49.7274 87.8192 52.0169 88.0787 52.5818 88.1351C53.1466 88.1915 55.6772 88.4397 55.9709 88.4284C55.9709 88.4284 55.9672 88.3945 55.9446 88.3908Z" fill="#263238"/>
<path d="M55.5697 89.836L48.7499 89.1441C48.7499 89.1441 48.3282 84.2895 48.7499 81.3564C49.0474 79.2168 49.5784 77.8367 50.5876 78.209L55.5697 89.836Z" fill="#263238"/>
<path d="M50.8977 103.616L51.8806 95.4071C51.8806 95.4071 54.9948 93.1021 54.6333 90.1427C54.4525 88.6385 52.4304 80.9637 50.732 78.6398C49.1354 76.4588 45.9646 76.9702 44.56 77.9554C40.0901 81.0953 36.4298 84.5022 30.8867 96.3284L50.8977 103.616Z" fill="#2373E6"/>
<path d="M43.687 80.7023C43.6877 80.7843 43.6641 80.8646 43.619 80.9331C43.5739 81.0017 43.5095 81.0553 43.4339 81.0872C43.3583 81.119 43.2749 81.1278 43.1943 81.1122C43.1137 81.0967 43.0395 81.0576 42.9812 80.9999C42.9229 80.9422 42.8831 80.8685 42.8668 80.7882C42.8505 80.7078 42.8585 80.6245 42.8897 80.5487C42.9209 80.4729 42.974 80.4081 43.0422 80.3624C43.1104 80.3168 43.1907 80.2925 43.2727 80.2925C43.382 80.2924 43.4868 80.3355 43.5643 80.4123C43.6419 80.489 43.686 80.5933 43.687 80.7023ZM46.8765 80.2925C46.7943 80.2917 46.7137 80.3154 46.645 80.3606C46.5763 80.4058 46.5226 80.4703 46.4908 80.5461C46.459 80.6218 46.4505 80.7053 46.4663 80.7859C46.4822 80.8664 46.5217 80.9405 46.5799 80.9986C46.638 81.0566 46.7122 81.0961 46.7929 81.1119C46.8736 81.1278 46.9572 81.1193 47.033 81.0875C47.1089 81.0557 47.1735 81.0021 47.2188 80.9335C47.264 80.8649 47.2877 80.7845 47.287 80.7023C47.287 80.5936 47.2437 80.4894 47.1668 80.4125C47.0898 80.3356 46.9854 80.2925 46.8765 80.2925ZM50.4766 80.2925C50.3945 80.2925 50.3142 80.3168 50.246 80.3624C50.1778 80.4081 50.1247 80.4729 50.0935 80.5487C50.0623 80.6245 50.0543 80.7078 50.0706 80.7882C50.0869 80.8685 50.1267 80.9422 50.185 80.9999C50.2433 81.0576 50.3175 81.0967 50.3981 81.1122C50.4787 81.1278 50.5621 81.119 50.6377 81.0872C50.7133 81.0553 50.7777 81.0017 50.8228 80.9331C50.8679 80.8646 50.8915 80.7843 50.8908 80.7023C50.8908 80.6482 50.88 80.5946 50.8592 80.5446C50.8383 80.4946 50.8077 80.4493 50.7692 80.4112C50.7307 80.3731 50.685 80.3429 50.6348 80.3226C50.5846 80.3022 50.5308 80.292 50.4766 80.2925ZM45.0728 77.6941C45.0516 77.6904 45.0299 77.6904 45.0087 77.6941C44.9272 77.7334 44.848 77.7774 44.7715 77.8257C44.7023 77.9002 44.6645 77.9985 44.6661 78.1002C44.6661 78.1821 44.6905 78.2623 44.7361 78.3304C44.7818 78.3985 44.8467 78.4515 44.9227 78.4827C44.9986 78.5139 45.082 78.5218 45.1625 78.5056C45.2429 78.4893 45.3167 78.4495 45.3745 78.3913C45.4323 78.3331 45.4715 78.259 45.487 78.1785C45.5026 78.0981 45.4938 78.0148 45.4619 77.9393C45.43 77.8637 45.3763 77.7994 45.3077 77.7544C45.2391 77.7094 45.1586 77.6858 45.0765 77.6865L45.0728 77.6941ZM48.6765 77.6941C48.5946 77.6941 48.5145 77.7183 48.4464 77.7638C48.3783 77.8092 48.3252 77.8738 48.2938 77.9494C48.2625 78.025 48.2543 78.1082 48.2703 78.1884C48.2863 78.2686 48.3257 78.3423 48.3836 78.4002C48.4416 78.458 48.5154 78.4974 48.5957 78.5134C48.6761 78.5293 48.7594 78.5212 48.8351 78.4898C48.9107 78.4585 48.9754 78.4055 49.021 78.3375C49.0665 78.2695 49.0908 78.1895 49.0908 78.1077C49.0908 77.998 49.0471 77.8928 48.9694 77.8152C48.8918 77.7376 48.7864 77.6941 48.6765 77.6941ZM39.6614 85.5005C39.5795 85.5005 39.4994 85.5248 39.4313 85.5702C39.3632 85.6157 39.3101 85.6803 39.2787 85.7559C39.2474 85.8315 39.2392 85.9146 39.2552 85.9949C39.2711 86.0751 39.3106 86.1488 39.3685 86.2067C39.4265 86.2645 39.5003 86.3039 39.5806 86.3199C39.661 86.3358 39.7443 86.3276 39.8199 86.2963C39.8956 86.265 39.9603 86.212 40.0058 86.144C40.0514 86.0759 40.0757 85.996 40.0757 85.9142C40.0762 85.8597 40.0658 85.8057 40.0451 85.7553C40.0245 85.7049 39.994 85.6591 39.9555 85.6206C39.9169 85.582 39.871 85.5516 39.8205 85.531C39.7701 85.5104 39.716 85.5 39.6614 85.5005ZM43.2652 85.5005C43.1833 85.5005 43.1032 85.5248 43.0351 85.5702C42.967 85.6157 42.9139 85.6803 42.8825 85.7559C42.8512 85.8315 42.843 85.9146 42.8589 85.9949C42.8749 86.0751 42.9144 86.1488 42.9723 86.2067C43.0302 86.2645 43.1041 86.3039 43.1844 86.3199C43.2648 86.3358 43.348 86.3276 43.4237 86.2963C43.4994 86.265 43.5641 86.212 43.6096 86.144C43.6552 86.0759 43.6794 85.996 43.6794 85.9142C43.6795 85.8058 43.6369 85.7017 43.5608 85.6243C43.4847 85.5469 43.3813 85.5025 43.2727 85.5005H43.2652ZM46.869 85.5005C46.7869 85.4998 46.7065 85.5234 46.6378 85.5684C46.5692 85.6134 46.5156 85.6777 46.4836 85.7532C46.4517 85.8288 46.443 85.912 46.4585 85.9925C46.4741 86.073 46.5132 86.1471 46.571 86.2053C46.6288 86.2635 46.7026 86.3033 46.783 86.3196C46.8635 86.3358 46.947 86.3279 47.0229 86.2967C47.0988 86.2655 47.1637 86.2125 47.2094 86.1444C47.2551 86.0763 47.2795 85.9961 47.2795 85.9142C47.2795 85.8064 47.2374 85.7028 47.1622 85.6256C47.0869 85.5483 46.9844 85.5035 46.8765 85.5005H46.869ZM50.469 85.5005C50.3871 85.5005 50.307 85.5248 50.2389 85.5702C50.1708 85.6157 50.1177 85.6803 50.0863 85.7559C50.055 85.8315 50.0468 85.9146 50.0628 85.9949C50.0787 86.0751 50.1182 86.1488 50.1761 86.2067C50.234 86.2645 50.3079 86.3039 50.3882 86.3199C50.4686 86.3358 50.5519 86.3276 50.6275 86.2963C50.7032 86.265 50.7679 86.212 50.8134 86.144C50.859 86.0759 50.8833 85.996 50.8833 85.9142C50.8837 85.8603 50.8736 85.8069 50.8535 85.757C50.8333 85.7071 50.8035 85.6616 50.7657 85.6232C50.7279 85.5848 50.683 85.5542 50.6333 85.5332C50.5837 85.5121 50.5305 85.501 50.4766 85.5005H50.469ZM41.4652 82.9021C41.3831 82.9014 41.3027 82.925 41.2341 82.97C41.1654 83.015 41.1118 83.0793 41.0798 83.1549C41.0479 83.2304 41.0392 83.3137 41.0547 83.3941C41.0703 83.4746 41.1094 83.5487 41.1672 83.6069C41.225 83.6651 41.2988 83.7049 41.3792 83.7212C41.4597 83.7374 41.5432 83.7295 41.6191 83.6983C41.695 83.6671 41.7599 83.6141 41.8056 83.546C41.8513 83.4779 41.8757 83.3977 41.8757 83.3158C41.8757 83.208 41.8336 83.1045 41.7584 83.0272C41.6831 82.9499 41.5806 82.9051 41.4727 82.9021H41.4652ZM45.0652 82.9021C44.9833 82.9021 44.9032 82.9264 44.8351 82.9718C44.767 83.0173 44.7139 83.0819 44.6825 83.1575C44.6512 83.2331 44.643 83.3162 44.659 83.3965C44.6749 83.4767 44.7144 83.5504 44.7723 83.6083C44.8303 83.6661 44.9041 83.7055 44.9844 83.7215C45.0648 83.7374 45.1481 83.7292 45.2237 83.6979C45.2994 83.6666 45.3641 83.6136 45.4096 83.5456C45.4552 83.4776 45.4795 83.3976 45.4795 83.3158C45.4795 83.2074 45.4369 83.1033 45.3608 83.0259C45.2847 82.9486 45.1813 82.9041 45.0728 82.9021H45.0652ZM48.669 82.9021C48.5871 82.9021 48.507 82.9264 48.4389 82.9718C48.3708 83.0173 48.3177 83.0819 48.2863 83.1575C48.255 83.2331 48.2468 83.3162 48.2627 83.3965C48.2787 83.4767 48.3182 83.5504 48.3761 83.6083C48.434 83.6661 48.5078 83.7055 48.5882 83.7215C48.6686 83.7374 48.7518 83.7292 48.8275 83.6979C48.9032 83.6666 48.9679 83.6136 49.0134 83.5456C49.0589 83.4776 49.0832 83.3976 49.0832 83.3158C49.0823 83.2076 49.0394 83.1041 48.9635 83.0269C48.8877 82.9498 48.7848 82.905 48.6765 82.9021H48.669ZM52.2728 82.9021C52.1907 82.9014 52.1103 82.925 52.0416 82.97C51.973 83.015 51.9194 83.0793 51.8874 83.1549C51.8555 83.2304 51.8468 83.3137 51.8623 83.3941C51.8779 83.4746 51.917 83.5487 51.9748 83.6069C52.0326 83.6651 52.1064 83.7049 52.1868 83.7212C52.2673 83.7374 52.3508 83.7295 52.4267 83.6983C52.5026 83.6671 52.5675 83.6141 52.6132 83.546C52.6589 83.4779 52.6833 83.3977 52.6833 83.3158C52.6833 83.208 52.6412 83.1045 52.566 83.0272C52.4907 82.9499 52.3882 82.9051 52.2803 82.9021H52.2728ZM36.0802 90.7086C35.9982 90.7079 35.9177 90.7315 35.8491 90.7765C35.7805 90.8215 35.7268 90.8858 35.6949 90.9613C35.6629 91.0368 35.6542 91.1201 35.6698 91.2006C35.6853 91.2811 35.7245 91.3551 35.7822 91.4134C35.84 91.4716 35.9138 91.5114 35.9943 91.5276C36.0747 91.5439 36.1582 91.5359 36.2341 91.5047C36.31 91.4735 36.3749 91.4205 36.4206 91.3524C36.4663 91.2843 36.4907 91.2042 36.4907 91.1222C36.4907 91.0673 36.4798 91.0129 36.4585 90.9622C36.4372 90.9115 36.406 90.8656 36.3667 90.8271C36.3275 90.7885 36.2809 90.7582 36.2298 90.7379C36.1786 90.7176 36.124 90.7076 36.0689 90.7086H36.0802ZM39.6803 90.7086C39.5983 90.7086 39.5182 90.7329 39.4501 90.7783C39.382 90.8238 39.3289 90.8884 39.2976 90.9639C39.2662 91.0395 39.258 91.1227 39.274 91.2029C39.29 91.2832 39.3294 91.3569 39.3874 91.4147C39.4453 91.4726 39.5191 91.512 39.5994 91.5279C39.6798 91.5439 39.7631 91.5357 39.8388 91.5044C39.9145 91.4731 39.9792 91.4201 40.0247 91.352C40.0702 91.284 40.0945 91.204 40.0945 91.1222C40.0951 91.0661 40.0841 91.0105 40.0624 90.9588C40.0406 90.9071 40.0084 90.8604 39.9678 90.8217C39.9272 90.7829 39.879 90.7528 39.8263 90.7334C39.7737 90.7139 39.7175 90.7055 39.6614 90.7086H39.6803ZM43.284 90.7086C43.2021 90.7086 43.122 90.7329 43.0539 90.7783C42.9858 90.8238 42.9327 90.8884 42.9013 90.9639C42.87 91.0395 42.8618 91.1227 42.8778 91.2029C42.8938 91.2832 42.9332 91.3569 42.9911 91.4147C43.0491 91.4726 43.1229 91.512 43.2032 91.5279C43.2836 91.5439 43.3669 91.5357 43.4426 91.5044C43.5183 91.4731 43.5829 91.4201 43.6285 91.352C43.674 91.284 43.6983 91.204 43.6983 91.1222C43.6983 91.0669 43.6872 91.0122 43.6657 90.9613C43.6442 90.9104 43.6126 90.8642 43.573 90.8257C43.5333 90.7871 43.4863 90.7569 43.4347 90.7368C43.3832 90.7167 43.3281 90.7071 43.2727 90.7086H43.284ZM46.8878 90.7086C46.8057 90.7079 46.7253 90.7315 46.6567 90.7765C46.5881 90.8215 46.5344 90.8858 46.5025 90.9613C46.4705 91.0368 46.4618 91.1201 46.4773 91.2006C46.4929 91.2811 46.532 91.3551 46.5898 91.4134C46.6476 91.4716 46.7214 91.5114 46.8019 91.5276C46.8823 91.5439 46.9658 91.5359 47.0417 91.5047C47.1176 91.4735 47.1825 91.4205 47.2282 91.3524C47.2739 91.2843 47.2983 91.2042 47.2983 91.1222C47.2983 91.0673 47.2873 91.0129 47.2661 90.9622C47.2448 90.9115 47.2136 90.8656 47.1743 90.8271C47.135 90.7885 47.0885 90.7582 47.0374 90.7379C46.9862 90.7176 46.9316 90.7076 46.8765 90.7086H46.8878ZM50.4879 90.7086C50.4059 90.7086 50.3258 90.7329 50.2577 90.7783C50.1896 90.8238 50.1365 90.8884 50.1052 90.9639C50.0738 91.0395 50.0656 91.1227 50.0816 91.2029C50.0976 91.2832 50.137 91.3569 50.1949 91.4147C50.2529 91.4726 50.3267 91.512 50.407 91.5279C50.4874 91.5439 50.5707 91.5357 50.6464 91.5044C50.7221 91.4731 50.7868 91.4201 50.8323 91.352C50.8778 91.284 50.9021 91.204 50.9021 91.1222C50.9026 91.0668 50.8919 91.0118 50.8706 90.9607C50.8492 90.9095 50.8177 90.8632 50.7779 90.8245C50.7382 90.7858 50.6909 90.7556 50.6391 90.7357C50.5873 90.7158 50.532 90.7066 50.4766 90.7086H50.4879ZM54.0916 90.7086C54.0097 90.7086 53.9296 90.7329 53.8615 90.7783C53.7934 90.8238 53.7403 90.8884 53.7089 90.9639C53.6776 91.0395 53.6694 91.1227 53.6854 91.2029C53.7013 91.2832 53.7408 91.3569 53.7987 91.4147C53.8567 91.4726 53.9305 91.512 54.0108 91.5279C54.0912 91.5439 54.1745 91.5357 54.2502 91.5044C54.3258 91.4731 54.3905 91.4201 54.4361 91.352C54.4816 91.284 54.5059 91.204 54.5059 91.1222C54.5059 91.0669 54.4948 91.0122 54.4733 90.9613C54.4518 90.9104 54.4202 90.8642 54.3806 90.8257C54.3409 90.7871 54.2939 90.7569 54.2423 90.7368C54.1908 90.7167 54.1357 90.7071 54.0803 90.7086H54.0916ZM37.8991 88.114C37.817 88.114 37.7368 88.1383 37.6686 88.1839C37.6004 88.2296 37.5473 88.2944 37.516 88.3702C37.4848 88.446 37.4768 88.5293 37.4931 88.6097C37.5094 88.69 37.5492 88.7637 37.6075 88.8214C37.6658 88.8791 37.74 88.9182 37.8206 88.9337C37.9012 88.9493 37.9846 88.9405 38.0602 88.9087C38.1358 88.8768 38.2003 88.8232 38.2453 88.7547C38.2904 88.6861 38.3141 88.6058 38.3133 88.5238C38.3135 88.467 38.3019 88.4108 38.2792 88.3588C38.2564 88.3067 38.2231 88.2599 38.1814 88.2214C38.1396 88.1828 38.0902 88.1534 38.0365 88.1349C37.9827 88.1164 37.9256 88.1093 37.869 88.114H37.8991ZM41.5029 88.114C41.4206 88.1132 41.34 88.1369 41.2713 88.1821C41.2026 88.2273 41.149 88.2918 41.1171 88.3676C41.0853 88.4433 41.0768 88.5268 41.0927 88.6074C41.1085 88.6879 41.1481 88.762 41.2062 88.8201C41.2644 88.8781 41.3385 88.9176 41.4192 88.9335C41.4999 88.9493 41.5835 88.9408 41.6594 88.909C41.7352 88.8772 41.7999 88.8236 41.8451 88.755C41.8903 88.6865 41.9141 88.606 41.9133 88.5238C41.9135 88.4674 41.9019 88.4115 41.8795 88.3597C41.857 88.3079 41.824 88.2613 41.7827 88.2228C41.7413 88.1844 41.6924 88.1548 41.6391 88.1361C41.5858 88.1174 41.5291 88.1098 41.4727 88.114H41.5029ZM45.1029 88.114C45.0208 88.114 44.9406 88.1383 44.8724 88.1839C44.8042 88.2296 44.7511 88.2944 44.7198 88.3702C44.6886 88.446 44.6806 88.5293 44.6969 88.6097C44.7132 88.69 44.753 88.7637 44.8113 88.8214C44.8696 88.8791 44.9438 88.9182 45.0244 88.9337C45.105 88.9493 45.1884 88.9405 45.264 88.9087C45.3397 88.8768 45.4041 88.8232 45.4491 88.7547C45.4942 88.6861 45.5179 88.6058 45.5171 88.5238C45.5173 88.467 45.5057 88.4108 45.483 88.3588C45.4602 88.3067 45.4269 88.2599 45.3852 88.2214C45.3434 88.1828 45.294 88.1534 45.2403 88.1349C45.1865 88.1164 45.1294 88.1093 45.0728 88.114H45.1029ZM48.7067 88.114C48.6246 88.114 48.5443 88.1383 48.4762 88.1839C48.408 88.2296 48.3549 88.2944 48.3236 88.3702C48.2924 88.446 48.2844 88.5293 48.3007 88.6097C48.317 88.69 48.3568 88.7637 48.4151 88.8214C48.4734 88.8791 48.5476 88.9182 48.6282 88.9337C48.7088 88.9493 48.7922 88.9405 48.8678 88.9087C48.9434 88.8768 49.0079 88.8232 49.0529 88.7547C49.098 88.6861 49.1216 88.6058 49.1209 88.5238C49.1205 88.4672 49.1085 88.4113 49.0856 88.3595C49.0627 88.3076 49.0294 88.2611 48.9877 88.2227C48.9461 88.1842 48.897 88.1548 48.8434 88.1361C48.7899 88.1174 48.7331 88.1098 48.6765 88.114H48.7067ZM52.3105 88.114C52.2282 88.1132 52.1476 88.1369 52.0789 88.1821C52.0102 88.2273 51.9565 88.2918 51.9247 88.3676C51.8929 88.4433 51.8844 88.5268 51.9003 88.6074C51.9161 88.6879 51.9556 88.762 52.0138 88.8201C52.072 88.8781 52.1461 88.9176 52.2268 88.9335C52.3075 88.9493 52.3911 88.9408 52.467 88.909C52.5428 88.8772 52.6075 88.8236 52.6527 88.755C52.6979 88.6865 52.7217 88.606 52.7209 88.5238C52.7211 88.4674 52.7095 88.4115 52.6871 88.3597C52.6646 88.3079 52.6316 88.2613 52.5903 88.2228C52.5489 88.1844 52.5 88.1548 52.4467 88.1361C52.3933 88.1174 52.3367 88.1098 52.2803 88.114H52.3105ZM32.4953 95.9167C32.4134 95.9167 32.3333 95.9409 32.2651 95.9864C32.197 96.0318 32.1439 96.0964 32.1126 96.172C32.0812 96.2476 32.073 96.3308 32.089 96.411C32.105 96.4912 32.1444 96.5649 32.2024 96.6228C32.2603 96.6806 32.3341 96.72 32.4145 96.736C32.4948 96.752 32.5781 96.7438 32.6538 96.7125C32.7295 96.6811 32.7942 96.6281 32.8397 96.5601C32.8852 96.4921 32.9095 96.4121 32.9095 96.3303C32.9097 96.2734 32.898 96.217 32.8754 96.1647C32.8527 96.1125 32.8194 96.0655 32.7777 96.0266C32.736 95.9878 32.6867 95.958 32.6329 95.9391C32.5792 95.9202 32.522 95.9125 32.4652 95.9167H32.4953ZM36.0991 95.9167C36.017 95.9159 35.9365 95.9395 35.8679 95.9845C35.7993 96.0295 35.7456 96.0939 35.7137 96.1694C35.6818 96.2449 35.673 96.3282 35.6886 96.4087C35.7041 96.4892 35.7433 96.5632 35.8011 96.6214C35.8588 96.6797 35.9326 96.7194 36.0131 96.7357C36.0935 96.752 36.177 96.744 36.2529 96.7128C36.3288 96.6816 36.3938 96.6286 36.4394 96.5605C36.4851 96.4924 36.5095 96.4123 36.5095 96.3303C36.5096 96.2737 36.4981 96.2177 36.4757 96.1657C36.4532 96.1137 36.4203 96.0669 36.379 96.0281C36.3377 95.9893 36.2889 95.9594 36.2356 95.9403C36.1822 95.9211 36.1255 95.9131 36.0689 95.9167H36.0991ZM39.6991 95.9167C39.6172 95.9167 39.5371 95.9409 39.469 95.9864C39.4008 96.0318 39.3477 96.0964 39.3164 96.172C39.285 96.2476 39.2768 96.3308 39.2928 96.411C39.3088 96.4912 39.3483 96.5649 39.4062 96.6228C39.4641 96.6806 39.5379 96.72 39.6183 96.736C39.6986 96.752 39.7819 96.7438 39.8576 96.7125C39.9333 96.6811 39.998 96.6281 40.0435 96.5601C40.089 96.4921 40.1133 96.4121 40.1133 96.3303C40.1141 96.2725 40.1027 96.2152 40.0798 96.1621C40.0568 96.109 40.0229 96.0614 39.9803 96.0223C39.9376 95.9832 39.8871 95.9536 39.8322 95.9354C39.7772 95.9172 39.719 95.9108 39.6614 95.9167H39.6991ZM43.3029 95.9167C43.2209 95.9167 43.1409 95.9409 43.0727 95.9864C43.0046 96.0318 42.9515 96.0964 42.9202 96.172C42.8888 96.2476 42.8806 96.3308 42.8966 96.411C42.9126 96.4912 42.952 96.5649 43.01 96.6228C43.0679 96.6806 43.1417 96.72 43.2221 96.736C43.3024 96.752 43.3857 96.7438 43.4614 96.7125C43.5371 96.6811 43.6018 96.6281 43.6473 96.5601C43.6928 96.4921 43.7171 96.4121 43.7171 96.3303C43.7173 96.2734 43.7056 96.217 43.6829 96.1647C43.6603 96.1125 43.627 96.0655 43.5853 96.0266C43.5436 95.9878 43.4943 95.958 43.4405 95.9391C43.3867 95.9202 43.3296 95.9125 43.2727 95.9167H43.3029ZM46.9067 95.9167C46.8246 95.9159 46.7441 95.9395 46.6755 95.9845C46.6069 96.0295 46.5532 96.0939 46.5213 96.1694C46.4894 96.2449 46.4806 96.3282 46.4962 96.4087C46.5117 96.4892 46.5509 96.5632 46.6087 96.6214C46.6664 96.6797 46.7402 96.7194 46.8207 96.7357C46.9011 96.752 46.9846 96.744 47.0605 96.7128C47.1364 96.6816 47.2014 96.6286 47.247 96.5605C47.2927 96.4924 47.3171 96.4123 47.3171 96.3303C47.3172 96.2737 47.3057 96.2177 47.2833 96.1657C47.2608 96.1137 47.2279 96.0669 47.1866 96.0281C47.1453 95.9893 47.0965 95.9594 47.0432 95.9403C46.9898 95.9211 46.9331 95.9131 46.8765 95.9167H46.9067ZM50.5067 95.9167C50.4248 95.9167 50.3447 95.9409 50.2765 95.9864C50.2084 96.0318 50.1553 96.0964 50.124 96.172C50.0926 96.2476 50.0844 96.3308 50.1004 96.411C50.1164 96.4912 50.1558 96.5649 50.2138 96.6228C50.2717 96.6806 50.3455 96.72 50.4259 96.736C50.5062 96.752 50.5895 96.7438 50.6652 96.7125C50.7409 96.6811 50.8056 96.6281 50.8511 96.5601C50.8966 96.4921 50.9209 96.4121 50.9209 96.3303C50.9216 96.2732 50.9104 96.2166 50.8879 96.164C50.8654 96.1115 50.8322 96.0643 50.7904 96.0253C50.7485 95.9864 50.699 95.9566 50.645 95.9379C50.5909 95.9192 50.5336 95.9119 50.4766 95.9167H50.5067ZM34.2953 93.322C34.2132 93.322 34.133 93.3464 34.0648 93.392C33.9966 93.4376 33.9435 93.5025 33.9122 93.5783C33.881 93.6541 33.873 93.7374 33.8893 93.8178C33.9056 93.8981 33.9454 93.9718 34.0037 94.0295C34.0621 94.0872 34.1362 94.1263 34.2168 94.1418C34.2974 94.1573 34.3808 94.1486 34.4564 94.1167C34.5321 94.0848 34.5965 94.0312 34.6415 93.9627C34.6866 93.8942 34.7103 93.8139 34.7095 93.7319C34.7097 93.6751 34.6981 93.6189 34.6754 93.5668C34.6527 93.5148 34.6194 93.468 34.5776 93.4294C34.5358 93.3909 34.4864 93.3614 34.4327 93.343C34.3789 93.3245 34.3218 93.3173 34.2652 93.322H34.2953ZM37.8991 93.322C37.817 93.322 37.7368 93.3464 37.6686 93.392C37.6004 93.4376 37.5473 93.5025 37.516 93.5783C37.4848 93.6541 37.4768 93.7374 37.4931 93.8178C37.5094 93.8981 37.5492 93.9718 37.6075 94.0295C37.6658 94.0872 37.74 94.1263 37.8206 94.1418C37.9012 94.1573 37.9846 94.1486 38.0602 94.1167C38.1358 94.0848 38.2003 94.0312 38.2453 93.9627C38.2904 93.8942 38.3141 93.8139 38.3133 93.7319C38.3135 93.6751 38.3019 93.6189 38.2792 93.5668C38.2564 93.5148 38.2231 93.468 38.1814 93.4294C38.1396 93.3909 38.0902 93.3614 38.0365 93.343C37.9827 93.3245 37.9256 93.3173 37.869 93.322H37.8991ZM41.5029 93.322C41.4206 93.3213 41.34 93.345 41.2713 93.3902C41.2026 93.4353 41.149 93.4999 41.1171 93.5756C41.0853 93.6514 41.0768 93.7348 41.0927 93.8154C41.1085 93.896 41.1481 93.9701 41.2062 94.0281C41.2644 94.0862 41.3385 94.1257 41.4192 94.1415C41.4999 94.1574 41.5835 94.1489 41.6594 94.1171C41.7352 94.0853 41.7999 94.0317 41.8451 93.9631C41.8903 93.8945 41.9141 93.814 41.9133 93.7319C41.9135 93.6755 41.9019 93.6196 41.8795 93.5678C41.857 93.516 41.824 93.4694 41.7827 93.4309C41.7413 93.3924 41.6924 93.3629 41.6391 93.3442C41.5858 93.3254 41.5291 93.3179 41.4727 93.322H41.5029ZM45.1029 93.322C45.0208 93.322 44.9406 93.3464 44.8724 93.392C44.8042 93.4376 44.7511 93.5025 44.7198 93.5783C44.6886 93.6541 44.6806 93.7374 44.6969 93.8178C44.7132 93.8981 44.753 93.9718 44.8113 94.0295C44.8696 94.0872 44.9438 94.1263 45.0244 94.1418C45.105 94.1573 45.1884 94.1486 45.264 94.1167C45.3397 94.0848 45.4041 94.0312 45.4491 93.9627C45.4942 93.8942 45.5179 93.8139 45.5171 93.7319C45.5173 93.6751 45.5057 93.6189 45.483 93.5668C45.4602 93.5148 45.4269 93.468 45.3852 93.4294C45.3434 93.3909 45.294 93.3614 45.2403 93.343C45.1865 93.3245 45.1294 93.3173 45.0728 93.322H45.1029ZM48.7067 93.322C48.6246 93.322 48.5443 93.3464 48.4762 93.392C48.408 93.4376 48.3549 93.5025 48.3236 93.5783C48.2924 93.6541 48.2844 93.7374 48.3007 93.8178C48.317 93.8981 48.3568 93.9718 48.4151 94.0295C48.4734 94.0872 48.5476 94.1263 48.6282 94.1418C48.7088 94.1573 48.7922 94.1486 48.8678 94.1167C48.9434 94.0848 49.0079 94.0312 49.0529 93.9627C49.098 93.8942 49.1216 93.8139 49.1209 93.7319C49.1205 93.6753 49.1085 93.6193 49.0856 93.5675C49.0627 93.5157 49.0294 93.4692 48.9877 93.4307C48.9461 93.3923 48.897 93.3628 48.8434 93.3441C48.7899 93.3254 48.7331 93.3179 48.6765 93.322H48.7067ZM52.3105 93.322C52.2282 93.3213 52.1476 93.345 52.0789 93.3902C52.0102 93.4353 51.9565 93.4999 51.9247 93.5756C51.8929 93.6514 51.8844 93.7348 51.9003 93.8154C51.9161 93.896 51.9556 93.9701 52.0138 94.0281C52.072 94.0862 52.1461 94.1257 52.2268 94.1415C52.3075 94.1574 52.3911 94.1489 52.467 94.1171C52.5428 94.0853 52.6075 94.0317 52.6527 93.9631C52.6979 93.8945 52.7217 93.814 52.7209 93.7319C52.7211 93.6755 52.7095 93.6196 52.6871 93.5678C52.6646 93.516 52.6316 93.4694 52.5903 93.4309C52.5489 93.3924 52.5 93.3629 52.4467 93.3442C52.3933 93.3254 52.3367 93.3179 52.2803 93.322H52.3105ZM46.8765 101.117C46.7945 101.116 46.714 101.14 46.6454 101.185C46.5768 101.23 46.5231 101.294 46.4912 101.37C46.4592 101.445 46.4505 101.529 46.466 101.609C46.4816 101.69 46.5208 101.764 46.5785 101.822C46.6363 101.88 46.7101 101.92 46.7906 101.936C46.871 101.953 46.9545 101.945 47.0304 101.913C47.1063 101.882 47.1712 101.829 47.2169 101.761C47.2626 101.693 47.287 101.613 47.287 101.531C47.287 101.422 47.2439 101.317 47.167 101.24C47.0901 101.162 46.9857 101.118 46.8765 101.117ZM50.4766 101.117C50.3946 101.117 50.3145 101.141 50.2464 101.187C50.1783 101.232 50.1252 101.297 50.0939 101.373C50.0625 101.448 50.0543 101.531 50.0703 101.612C50.0863 101.692 50.1257 101.765 50.1836 101.823C50.2416 101.881 50.3154 101.921 50.3957 101.937C50.4761 101.953 50.5594 101.944 50.6351 101.913C50.7108 101.882 50.7755 101.829 50.821 101.761C50.8665 101.693 50.8908 101.613 50.8908 101.531C50.8908 101.421 50.8471 101.316 50.7695 101.238C50.6918 101.161 50.5864 101.117 50.4766 101.117ZM37.869 98.5226C37.7923 98.5192 37.7163 98.5376 37.6497 98.5755C37.5831 98.6134 37.5285 98.6694 37.4924 98.7369L38.2455 99.0189C38.2476 98.9902 38.2476 98.9613 38.2455 98.9325C38.2432 98.8309 38.2035 98.7338 38.134 98.6596C38.0646 98.5854 37.9702 98.5393 37.869 98.5301V98.5226ZM41.4727 98.5226C41.3905 98.5218 41.3099 98.5456 41.2412 98.5907C41.1725 98.6359 41.1188 98.7004 41.087 98.7762C41.0552 98.8519 41.0467 98.9354 41.0625 99.016C41.0784 99.0966 41.1179 99.1706 41.1761 99.2287C41.2342 99.2868 41.3084 99.3262 41.3891 99.3421C41.4698 99.3579 41.5534 99.3494 41.6292 99.3176C41.7051 99.2859 41.7697 99.2323 41.815 99.1637C41.8602 99.0951 41.8839 99.0146 41.8832 98.9325C41.8812 98.8251 41.8371 98.7227 41.7603 98.6475C41.6836 98.5722 41.5803 98.5301 41.4727 98.5301V98.5226ZM45.0728 98.5226C44.9907 98.5226 44.9104 98.5469 44.8422 98.5926C44.774 98.6382 44.721 98.703 44.6897 98.7788C44.6585 98.8546 44.6505 98.938 44.6668 99.0183C44.6831 99.0986 44.7229 99.1723 44.7812 99.23C44.8395 99.2877 44.9137 99.3268 44.9943 99.3424C45.0749 99.3579 45.1583 99.3492 45.2339 99.3173C45.3095 99.2854 45.374 99.2318 45.419 99.1633C45.4641 99.0948 45.4877 99.0144 45.487 98.9325C45.485 98.8244 45.4404 98.7215 45.3628 98.6462C45.2852 98.5708 45.181 98.5291 45.0728 98.5301V98.5226ZM48.6765 98.5226C48.5945 98.5226 48.5142 98.5469 48.446 98.5926C48.3778 98.6382 48.3247 98.703 48.2935 98.7788C48.2623 98.8546 48.2543 98.938 48.2706 99.0183C48.2869 99.0986 48.3267 99.1723 48.385 99.23C48.4433 99.2877 48.5175 99.3268 48.5981 99.3424C48.6787 99.3579 48.7621 99.3492 48.8377 99.3173C48.9133 99.2854 48.9777 99.2318 49.0228 99.1633C49.0679 99.0948 49.0915 99.0144 49.0908 98.9325C49.0878 98.8247 49.0429 98.7224 48.9655 98.6472C48.8882 98.5721 48.7845 98.5301 48.6765 98.5301V98.5226Z" fill="white"/>
<path d="M44.7652 110.28L46.3496 114.126L68.8261 104.893L67.2417 101.047L44.7652 110.28Z" fill="#C7C7C7"/>
<path d="M32.9355 113.989L35.3305 119.806L51.0298 113.357L48.631 107.54L32.9355 113.989Z" fill="#263238"/>
<path d="M68.1826 86.5141C70.1045 83.294 72.9395 80.7154 76.329 79.1043C79.7186 77.4932 83.5105 76.9221 87.2251 77.4631C90.9397 78.0041 94.4103 79.633 97.1978 82.1437C99.9853 84.6544 101.965 87.9342 102.885 91.5683C103.806 95.2024 103.627 99.0275 102.371 102.56C101.114 106.092 98.8369 109.173 95.8269 111.413C92.8168 113.653 89.2092 114.951 85.4602 115.144C81.7112 115.336 77.9893 114.414 74.7651 112.494C70.4465 109.917 67.3281 105.734 66.094 100.863C64.86 95.9928 65.6111 90.8323 68.1826 86.5141ZM70.0655 87.6422C68.3637 90.4927 67.5466 93.783 67.7176 97.0972C67.8885 100.411 69.0399 103.601 71.0259 106.261C73.012 108.922 75.7437 110.935 78.8754 112.045C82.0072 113.156 85.3984 113.314 88.6201 112.5C91.8419 111.686 94.7495 109.936 96.9753 107.472C99.2011 105.007 100.645 101.939 101.125 98.6553C101.604 95.3714 101.098 92.0193 99.6695 89.0229C98.2412 86.0264 95.9551 83.5202 93.1003 81.8212C89.2721 79.5428 84.6951 78.8741 80.3737 79.9619C76.0523 81.0497 72.3396 83.8051 70.0504 87.6234L70.0655 87.6422Z" fill="#37474F"/>
<path d="M82.4973 115.634C77.6081 115.151 73.0776 112.856 69.7999 109.202C66.5223 105.547 64.7355 100.798 64.7923 95.8923C64.8491 90.9865 66.7453 86.2803 70.1067 82.7022C73.4681 79.1241 78.0505 76.9342 82.9496 76.5646C87.8487 76.1949 92.7087 77.6725 96.5703 80.7056C100.432 83.7387 103.015 88.107 103.809 92.9486C104.603 97.7901 103.551 102.753 100.861 106.858C98.1704 110.963 94.0367 113.912 89.2756 115.123C87.0637 115.689 84.7693 115.862 82.4973 115.634ZM86.3571 77.9178C83.4095 77.6154 80.4323 78.0282 77.6786 79.1211C74.9249 80.214 72.4763 81.9548 70.5409 84.1953C68.6054 86.4359 67.2404 89.1101 66.5619 91.9904C65.8834 94.8708 65.9114 97.8721 66.6436 100.739C67.4756 103.993 69.1849 106.957 71.5856 109.309C73.9863 111.661 76.9866 113.311 80.2605 114.08C83.5344 114.848 86.9567 114.706 90.1553 113.668C93.3539 112.631 96.2066 110.738 98.4033 108.195C100.6 105.652 102.057 102.556 102.615 99.2443C103.173 95.9325 102.812 92.5313 101.57 89.4103C100.328 86.2892 98.2537 83.5677 95.5716 81.5416C92.8895 79.5154 89.7026 78.2621 86.3571 77.9178ZM82.7195 113.472C79.8159 113.174 77.0343 112.15 74.6314 110.496C72.2285 108.841 70.2818 106.608 68.9711 104.004C67.6603 101.4 67.0277 98.5075 67.1317 95.5946C67.2356 92.6818 68.0728 89.842 69.5658 87.3375C71.0268 84.8859 73.0709 82.832 75.5169 81.3579C77.963 79.8839 80.7354 79.0351 83.5885 78.8869C86.4415 78.7387 89.2872 79.2957 91.8731 80.5084C94.4591 81.721 96.7056 83.552 98.4134 85.8391C100.121 88.1261 101.238 90.7985 101.664 93.6195C102.09 96.4404 101.813 99.3228 100.856 102.011C99.9001 104.699 98.2944 107.111 96.1817 109.031C94.069 110.951 91.5145 112.322 88.7446 113.021C86.7777 113.519 84.7389 113.672 82.7195 113.472ZM70.5374 87.9015C68.6072 91.126 67.8566 94.9191 68.4137 98.6343C68.9707 102.349 70.8008 105.757 73.5921 108.275C76.3834 110.794 79.963 112.268 83.7207 112.446C87.4785 112.624 91.1817 111.495 94.1992 109.251C97.2167 107.008 99.3616 103.789 100.268 100.143C101.175 96.4974 100.787 92.6504 99.1716 89.258C97.5558 85.8656 94.8117 83.1378 91.4072 81.5396C88.0026 79.9414 84.1484 79.5717 80.5015 80.4937C76.3285 81.5521 72.7464 84.2203 70.5412 87.9128L70.5374 87.9015Z" fill="#37474F"/>
<g opacity="0.2">
<path d="M90.6983 81.3385C87.7514 80.1119 84.5065 79.7855 81.3738 80.4003C78.2412 81.0152 75.3614 82.5438 73.0986 84.7928C70.8359 87.0419 69.2917 89.9104 68.6615 93.0358C68.0312 96.1611 68.3431 99.4029 69.5577 102.351C70.7723 105.3 72.8351 107.822 75.4853 109.6C78.1354 111.378 81.2539 112.331 84.4466 112.339C87.6392 112.347 90.7625 111.409 93.4216 109.645C96.0808 107.881 98.1563 105.369 99.3858 102.426C101.033 98.4795 101.043 94.0409 99.4142 90.0865C97.7851 86.132 94.65 82.9854 90.6983 81.3385Z" fill="white"/>
<path d="M86.2723 80.1918C82.0416 79.724 77.7968 80.9417 74.4598 83.5805C71.1227 86.2193 68.9629 90.0661 68.4492 94.2856L86.2723 80.1918Z" fill="#EBEBEB"/>
<path d="M99.3399 89.916L74.9268 109.218C75.9619 109.974 77.0831 110.605 78.2669 111.098C79.6225 111.668 81.0508 112.048 82.5109 112.226L100.537 97.9744C100.838 95.2302 100.425 92.4549 99.3399 89.916Z" fill="#EBEBEB"/>
<path d="M92.1516 82.0352L68.8945 100.419C69.1743 101.44 69.5527 102.431 70.0242 103.379L94.7876 83.7988C93.9707 83.1236 93.0876 82.5327 92.1516 82.0352Z" fill="#EBEBEB"/>
<path d="M98.3376 87.958L73.2354 107.798C73.3784 107.937 73.5178 108.068 73.6646 108.2L98.6275 88.4657C98.5372 88.2852 98.443 88.1159 98.3376 87.958Z" fill="#EBEBEB"/>
<path d="M99.054 103.168L87.915 111.975C88.387 111.872 88.8539 111.747 89.3159 111.599L98.3762 104.454C98.621 104.029 98.8469 103.604 99.054 103.168Z" fill="#EBEBEB"/>
</g>
<path d="M43.0802 78.8331C40.7153 80.4613 30.4462 88.7641 29.2261 93.5398C28.473 96.4691 33.6998 106.757 35.1119 109.22C35.7295 110.292 43.1141 106.622 43.3965 105.328C43.6789 104.035 38.3505 94.7243 38.2525 93.7541C38.2525 93.7541 43.0086 86.1018 45.5354 82.0256C47.9229 78.1788 47.4974 75.7947 43.0802 78.8331Z" fill="#EB9481"/>
<path d="M46.4388 112.348C47.2786 113.649 49.4514 114.668 48.6982 115.548C48.0392 116.334 46.5932 115.48 46.5932 115.48C46.5932 115.48 47.9112 116.965 46.9698 117.608C46.0283 118.251 44.6275 116.992 44.6275 116.992C44.6275 116.992 45.7798 118.18 44.7819 118.752C43.784 119.323 42.4133 118.47 42.4133 118.47C42.4133 118.47 42.5074 119.037 41.6225 119.124C40.3572 119.252 38.448 117.27 37.6986 116.003C36.9492 114.735 35.1454 109.531 34.8818 108.73L43.0007 103.842C43.0007 103.842 45.3769 105.485 46.4802 106.474C47.5836 107.463 50.3213 111.69 49.3158 112.438C48.3104 113.186 46.4275 110.163 45.8024 109.524C45.1773 108.884 44.925 108.918 44.9815 109.426C45.0116 109.764 46.0622 111.772 46.4388 112.348Z" fill="#EB9481"/>
<path d="M46.5525 115.407C44.6282 114.079 44.0144 113.151 43.1106 111.049C43.1106 111.007 43.0278 111.022 43.0428 111.067C43.7395 113.222 44.3383 114.478 46.4922 115.505C46.5977 115.557 46.6429 115.471 46.5525 115.407Z" fill="#263238"/>
<path d="M44.7151 117.032C42.8322 115.475 42.1657 114.49 41.0548 112.343C41.0548 112.313 40.987 112.343 40.9983 112.369C41.9096 114.565 42.5423 115.806 44.6247 117.115C44.7189 117.175 44.8017 117.103 44.7151 117.032Z" fill="#263238"/>
<path d="M42.3989 118.441C40.6855 116.805 39.9023 115.756 39.0926 113.53C39.0872 113.522 39.0792 113.516 39.07 113.512C39.0607 113.509 39.0506 113.509 39.0413 113.512C39.0319 113.515 39.0237 113.521 39.0181 113.529C39.0124 113.537 39.0095 113.546 39.0098 113.556C39.6123 115.903 40.5839 117.219 42.3424 118.486C42.4629 118.573 42.5044 118.543 42.3989 118.441Z" fill="#263238"/>
<path d="M42.7295 87.7802L35.1416 84.5388C35.1416 84.5388 42.1722 78.8268 44.714 77.7288C47.576 76.4917 47.5797 78.2214 46.514 80.9815C45.4484 83.7416 42.7295 87.7802 42.7295 87.7802Z" fill="#2373E6"/>
<path d="M40.0795 80.7289C40.0718 80.832 40.0251 80.9283 39.9489 80.9981C39.8726 81.068 39.7725 81.1062 39.669 81.105C39.6378 81.1089 39.6061 81.1089 39.5749 81.105L40.0795 80.7289ZM43.2728 80.2927C43.1907 80.2927 43.1105 80.3171 43.0423 80.3627C42.9741 80.4083 42.921 80.4732 42.8898 80.549C42.8585 80.6248 42.8506 80.7081 42.8668 80.7885C42.8831 80.8688 42.923 80.9425 42.9813 81.0002C43.0396 81.0579 43.1137 81.097 43.1943 81.1125C43.2749 81.1281 43.3583 81.1193 43.434 81.0874C43.5096 81.0556 43.574 81.002 43.6191 80.9334C43.6641 80.8649 43.6878 80.7846 43.687 80.7026C43.687 80.6485 43.6763 80.5949 43.6554 80.5449C43.6346 80.4949 43.604 80.4496 43.5655 80.4115C43.527 80.3733 43.4813 80.3432 43.4311 80.3229C43.3808 80.3025 43.327 80.2922 43.2728 80.2927ZM46.4624 80.7026C46.4601 80.7896 46.488 80.8746 46.5415 80.9433C46.6243 80.7252 46.7034 80.5108 46.7674 80.3078C46.6801 80.3309 46.603 80.3822 46.5478 80.4536C46.4927 80.5249 46.4627 80.6125 46.4624 80.7026ZM45.0728 77.6944C44.9909 77.6944 44.9108 77.7186 44.8427 77.7641C44.7746 77.8095 44.7215 77.8741 44.6901 77.9497C44.6588 78.0253 44.6506 78.1084 44.6666 78.1887C44.6825 78.2689 44.722 78.3426 44.7799 78.4005C44.8379 78.4583 44.9117 78.4977 44.992 78.5137C45.0724 78.5296 45.1557 78.5214 45.2313 78.4901C45.307 78.4588 45.3717 78.4058 45.4172 78.3378C45.4628 78.2698 45.4871 78.1898 45.4871 78.108C45.4876 78.0535 45.4772 77.9995 45.4566 77.9491C45.4359 77.8987 45.4054 77.8529 45.3668 77.8144C45.3283 77.7759 45.2824 77.7454 45.2319 77.7248C45.1815 77.7042 45.1274 77.6939 45.0728 77.6944ZM39.6615 85.5008C39.5796 85.5008 39.4995 85.5251 39.4314 85.5705C39.3632 85.616 39.3102 85.6806 39.2788 85.7562C39.2475 85.8317 39.2393 85.9149 39.2552 85.9952C39.2712 86.0754 39.3107 86.1491 39.3686 86.2069C39.4265 86.2648 39.5003 86.3042 39.5807 86.3201C39.661 86.3361 39.7443 86.3279 39.82 86.2966C39.8957 86.2653 39.9604 86.2123 40.0059 86.1443C40.0514 86.0762 40.0757 85.9963 40.0757 85.9145C40.0762 85.86 40.0659 85.806 40.0452 85.7556C40.0246 85.7052 39.9941 85.6594 39.9555 85.6208C39.917 85.5823 39.8711 85.5519 39.8206 85.5313C39.7701 85.5107 39.716 85.5003 39.6615 85.5008ZM43.2653 85.5008C43.1834 85.5008 43.1033 85.5251 43.0352 85.5705C42.967 85.616 42.9139 85.6806 42.8826 85.7562C42.8512 85.8317 42.843 85.9149 42.859 85.9952C42.875 86.0754 42.9144 86.1491 42.9724 86.2069C43.0303 86.2648 43.1041 86.3042 43.1845 86.3201C43.2648 86.3361 43.3481 86.3279 43.4238 86.2966C43.4995 86.2653 43.5642 86.2123 43.6097 86.1443C43.6552 86.0762 43.6795 85.9963 43.6795 85.9145C43.6795 85.806 43.6369 85.702 43.5609 85.6246C43.4848 85.5472 43.3814 85.5028 43.2728 85.5008H43.2653ZM37.8615 82.9024C37.7796 82.9024 37.6995 82.9267 37.6314 82.9721C37.5632 83.0176 37.5101 83.0822 37.4788 83.1578C37.4474 83.2333 37.4392 83.3165 37.4552 83.3968C37.4712 83.477 37.5107 83.5507 37.5686 83.6085C37.6265 83.6664 37.7003 83.7058 37.7807 83.7217C37.861 83.7377 37.9443 83.7295 38.02 83.6982C38.0957 83.6669 38.1604 83.6139 38.2059 83.5459C38.2514 83.4778 38.2757 83.3979 38.2757 83.3161C38.2757 83.2076 38.2331 83.1036 38.1571 83.0262C38.081 82.9488 37.9776 82.9044 37.869 82.9024H37.8615ZM41.4653 82.9024C41.3832 82.9017 41.3027 82.9253 41.2341 82.9703C41.1655 83.0153 41.1118 83.0796 41.0799 83.1551C41.048 83.2307 41.0392 83.3139 41.0548 83.3944C41.0703 83.4749 41.1095 83.549 41.1673 83.6072C41.2251 83.6654 41.2988 83.7052 41.3793 83.7214C41.4598 83.7377 41.5432 83.7297 41.6191 83.6986C41.6951 83.6674 41.76 83.6144 41.8057 83.5462C41.8513 83.4781 41.8757 83.398 41.8757 83.3161C41.8758 83.2083 41.8337 83.1047 41.7584 83.0275C41.6832 82.9502 41.5807 82.9054 41.4728 82.9024H41.4653ZM45.0653 82.9024C44.9554 82.9024 44.8501 82.946 44.7724 83.0236C44.6947 83.1011 44.6511 83.2064 44.6511 83.3161C44.6511 83.4258 44.6947 83.531 44.7724 83.6085C44.8501 83.6861 44.9554 83.7297 45.0653 83.7297C45.1143 83.7303 45.1629 83.7214 45.2084 83.7034L45.4682 83.2221C45.4473 83.1325 45.3971 83.0524 45.3255 82.9945C45.2538 82.9366 45.1649 82.9042 45.0728 82.9024H45.0653Z" fill="white"/>
<path d="M36.7962 83.6498C37.0786 83.7212 39.4547 84.6952 39.9669 84.917C40.479 85.1389 42.5803 86.0451 43.0887 86.3046C43.1113 86.3046 43.0887 86.3535 43.0887 86.3422C42.5389 86.173 40.4188 85.278 39.8916 85.0637C39.3644 84.8493 37.0372 83.8303 36.7962 83.6836C36.7585 83.6723 36.7773 83.646 36.7962 83.6498Z" fill="#263238"/>
<path d="M42.1328 87.5193C42.3663 87.602 42.7278 87.7412 42.7278 87.7412C43.27 86.9552 45.65 82.7286 46.2412 81.7246H46.2675C45.9713 82.3187 45.6701 82.9091 45.3638 83.4957L45.5144 83.2964C45.6952 83.0595 45.891 82.8264 46.0567 82.582C46.0567 82.582 46.1056 82.582 46.0906 82.6045C45.9412 82.8656 45.7751 83.1168 45.5935 83.3566C45.4655 83.5221 45.3224 83.68 45.1793 83.8342C45.0023 84.1726 44.8291 84.5073 44.6408 84.8382C44.0721 85.8572 43.511 86.9327 42.8671 87.9066C42.6057 87.8152 42.3536 87.6994 42.114 87.5607C42.0725 87.5494 42.0989 87.508 42.1328 87.5193Z" fill="#263238"/>
<path d="M65.11 111.184C64.8776 111.401 64.5822 111.539 64.2662 111.579C63.9503 111.618 63.63 111.556 63.3514 111.402C63.3514 111.402 63.5623 112.82 62.5569 113.455C62.041 113.782 61.0506 113.245 61.0506 113.245C61.0506 113.245 61.1673 114.373 60.2372 114.895C59.484 115.305 58.6292 114.704 58.6292 114.704C58.6292 114.704 58.2301 115.851 57.3451 116.024C55.5451 116.377 51.3991 110.436 52.9468 107.991C53.6698 106.863 54.6037 108.368 54.6037 108.368C54.6037 108.368 53.7865 105.878 54.9802 104.983C56.174 104.088 57.2773 106.111 57.2773 106.111C57.2773 106.111 56.5054 103.693 57.846 102.9C59.243 102.076 59.9924 104.291 59.9924 104.291C59.9924 104.291 59.9661 102.347 61.1221 101.975C63.0502 101.362 62.9033 105.709 64.1347 106.799L66.9439 105.634C66.9439 105.634 66.074 110.323 65.11 111.184Z" fill="#EB9481"/>
<path d="M58.4889 114.628C58.4889 114.647 58.4889 114.673 58.4625 114.658C56.5428 112.978 55.1796 110.756 54.5537 108.284C54.5537 108.205 54.6591 108.142 54.693 108.224C55.6407 110.531 56.9193 112.689 58.4889 114.628Z" fill="#263238"/>
<path d="M61.0704 113.281C61.0892 113.304 61.0704 113.334 61.0289 113.315C59.1461 111.63 57.4967 108.942 57.1992 106.095C57.1992 105.997 57.2783 105.9 57.2971 106.012C57.6398 107.885 59.5716 111.484 61.0704 113.281Z" fill="#263238"/>
<path d="M60.0572 104.096C60.4337 106.814 61.6727 109.135 63.2731 111.338C63.2919 111.368 63.2505 111.395 63.2279 111.376C62.1509 110.511 61.2773 108.999 60.6973 107.77C60.1292 106.637 59.8695 105.375 59.9442 104.111C59.9668 104.062 60.0496 104.039 60.0572 104.096Z" fill="#263238"/>
<path d="M54.584 108.204C54.4051 107.708 54.3023 107.189 54.279 106.662C54.2315 106.117 54.3841 105.573 54.7083 105.132C54.8881 104.909 55.1329 104.747 55.4087 104.669C55.6964 104.609 55.9963 104.663 56.2447 104.82C56.7009 105.126 57.0694 105.546 57.3142 106.038L57.0732 106.132C56.9255 105.61 56.8669 105.067 56.9 104.526C56.9229 103.965 57.1475 103.431 57.5326 103.022C57.7366 102.821 57.9897 102.675 58.2669 102.601C58.4112 102.568 58.5607 102.565 58.7064 102.591C58.852 102.618 58.9907 102.674 59.1142 102.755C59.5534 103.091 59.8793 103.553 60.0481 104.079L59.8711 104.105C59.8922 103.85 59.9388 103.598 60.0104 103.353C60.0779 103.101 60.1819 102.86 60.3192 102.639C60.4538 102.411 60.6443 102.222 60.8728 102.09C61.105 101.971 61.3677 101.927 61.6259 101.962C61.3725 101.95 61.1212 102.013 60.9029 102.142C60.6956 102.281 60.5271 102.47 60.4134 102.691C60.1871 103.139 60.0588 103.63 60.0368 104.131L60.0142 104.508L59.8598 104.131C59.6863 103.659 59.3772 103.248 58.9711 102.951C58.8753 102.887 58.7672 102.844 58.6536 102.824C58.5401 102.805 58.4237 102.809 58.3121 102.838C58.0786 102.906 57.8679 103.036 57.7021 103.214C57.3665 103.582 57.1765 104.059 57.1673 104.556C57.1323 105.062 57.1806 105.57 57.3104 106.061L57.5778 107.113L57.0657 106.158C56.8467 105.707 56.5163 105.319 56.1054 105.03C55.9098 104.899 55.6712 104.848 55.4389 104.887C55.2027 104.945 54.9915 105.077 54.8363 105.263C54.5255 105.666 54.3644 106.165 54.3807 106.673C54.3779 107.191 54.4463 107.705 54.584 108.204Z" fill="#263238"/>
<path d="M47.7254 78.6518C47.6953 79.0278 48.5463 81.566 50.2936 81.8857C51.2011 82.0511 51.7698 79.5919 51.7698 79.5919L51.8865 79.3926L53.5321 76.6137L50.738 73.2106L50.3275 72.748C50.3275 72.748 49.9283 73.5377 49.4388 74.5267L49.371 74.6696C49.3404 74.7206 49.3128 74.7734 49.2881 74.8275C49.2128 74.9742 49.1375 75.1246 49.066 75.275C48.9944 75.4254 48.953 75.5044 48.9003 75.6247L48.7346 76.0007C48.3401 76.8613 48.003 77.7469 47.7254 78.6518Z" fill="#EB9481"/>
<path d="M49.4512 74.5267C49.4804 75.4667 49.7145 76.389 50.1372 77.2294C50.56 78.0698 51.1612 78.808 51.8989 79.3926L53.5445 76.6137L50.7503 73.2106L50.3399 72.748C50.3399 72.748 49.9257 73.5377 49.4512 74.5267Z" fill="#263238"/>
<path d="M59.4018 73.6922C57.9934 79.1823 54.544 78.9567 53.3767 78.6558C52.2997 78.3813 48.6695 77.3021 49.5017 71.6954C50.334 66.0888 53.3352 65.0058 55.8281 65.5097C58.321 66.0136 60.8102 68.2021 59.4018 73.6922Z" fill="#EB9481"/>
<path d="M49.6981 71.3494C50.9709 71.8081 51.6638 69.7926 51.6638 69.7926C51.6638 69.7926 53.1701 70.1686 54.0814 67.8711C54.1992 68.4394 54.4472 68.9727 54.8058 69.4294C55.1645 69.886 55.6242 70.2536 56.1488 70.5033C56.5254 70.7101 55.5275 69.1496 55.5275 69.1496C55.5275 69.1496 56.6572 71.2403 59.9635 71.7517C60.1969 71.7856 60.8748 68.3674 58.8338 66.4008C56.7927 64.4341 54.3827 64.3025 52.3454 65.3065C51.8371 65.3811 51.3551 65.5802 50.9425 65.8859C50.5298 66.1916 50.1994 66.5946 49.9806 67.0588C49.1898 68.6645 49.2048 71.1726 49.6981 71.3494Z" fill="#263238"/>
<path d="M50.4016 71.9809C50.4016 71.9809 49.8217 69.9052 48.8954 70.0556C47.969 70.2061 48.0217 72.9323 48.7975 73.5753C48.8907 73.6647 49.0012 73.7343 49.1222 73.7799C49.2432 73.8254 49.3722 73.846 49.5013 73.8404C49.6305 73.8347 49.7572 73.803 49.8738 73.7471C49.9903 73.6912 50.0943 73.6123 50.1795 73.5152L50.4016 71.9809Z" fill="#EB9481"/>
<path d="M48.9432 70.8389V70.8614C49.4817 71.3315 49.606 72.0234 49.6248 72.704C49.6109 72.6286 49.5806 72.5571 49.5362 72.4946C49.4917 72.4321 49.4341 72.3801 49.3674 72.3421C49.3007 72.3041 49.2265 72.2812 49.1499 72.2748C49.0734 72.2685 48.9964 72.2789 48.9244 72.3054C48.9056 72.3054 48.9244 72.343 48.9244 72.3468C49.0459 72.3497 49.1634 72.3904 49.2606 72.4632C49.3578 72.536 49.4298 72.6373 49.4666 72.7529C49.5291 72.947 49.5696 73.1476 49.5871 73.3508C49.5871 73.4185 49.7077 73.4222 49.7114 73.3508C49.9976 72.5385 49.7679 71.2149 48.9432 70.8389Z" fill="#263238"/>
<path d="M58.4474 73.02C58.3311 72.9608 58.218 72.8955 58.1085 72.8245C57.9804 72.7455 57.8675 72.7004 57.7997 72.5575C57.7855 72.5154 57.7855 72.4697 57.7998 72.4276C57.8141 72.3855 57.8418 72.3492 57.8788 72.3244C57.9589 72.2855 58.048 72.2688 58.1367 72.2761C58.2255 72.2834 58.3107 72.3143 58.3834 72.3657C58.5435 72.4447 58.6703 72.578 58.7411 72.7418C58.7592 72.7823 58.7643 72.8274 58.7557 72.8709C58.747 72.9144 58.7251 72.9542 58.6929 72.9847C58.6606 73.0152 58.6197 73.035 58.5758 73.0413C58.5318 73.0477 58.4869 73.0402 58.4474 73.02Z" fill="#263238"/>
<path d="M55.1349 71.2367C55.2591 71.2652 55.3848 71.2865 55.5115 71.3006C55.6429 71.3477 55.7867 71.3477 55.9182 71.3006C55.9563 71.2776 55.9859 71.2427 56.0022 71.2012C56.0185 71.1598 56.0208 71.1141 56.0086 71.0713C55.9705 70.9906 55.9118 70.9214 55.8384 70.8705C55.7651 70.8197 55.6796 70.7891 55.5906 70.7817C55.4128 70.7403 55.226 70.7671 55.0671 70.8569C55.0345 70.8806 55.0092 70.9129 54.9941 70.9502C54.979 70.9876 54.9748 71.0284 54.9818 71.068C54.9889 71.1077 55.007 71.1445 55.0341 71.1743C55.0612 71.2042 55.0961 71.2258 55.1349 71.2367Z" fill="#263238"/>
<path d="M55.4774 72.873C55.4774 72.873 55.4435 72.873 55.4397 72.8956C55.3418 73.2716 55.1648 73.6815 54.792 73.7003V73.7229C55.2062 73.7906 55.4359 73.2416 55.4774 72.873Z" fill="#263238"/>
<path d="M55.2585 72.387C54.6748 72.1614 54.2681 73.3384 54.8066 73.5489C55.3451 73.7595 55.7443 72.575 55.2585 72.387Z" fill="#263238"/>
<path d="M55.0042 72.3677C54.8799 72.3978 54.7368 72.4805 54.6088 72.4504C54.4807 72.4204 54.3941 72.2549 54.3414 72.1045C54.3414 72.1045 54.3414 72.1045 54.3188 72.1045C54.2625 72.2054 54.2471 72.3241 54.2759 72.4361C54.3046 72.548 54.3752 72.6447 54.4732 72.7061C54.5819 72.7446 54.7011 72.7408 54.8072 72.6955C54.9132 72.6502 54.9983 72.5668 55.0456 72.4617C55.072 72.4316 55.0569 72.3564 55.0042 72.3677Z" fill="#263238"/>
<path d="M56.4417 75.0041C56.4417 75.0041 56.3363 75.5757 56.2496 75.8352C56.2496 75.8615 56.1743 75.8352 56.0877 75.8352C55.8524 75.8028 55.6306 75.7059 55.4471 75.5552C55.2636 75.4045 55.1256 75.2059 55.0484 74.9816C55.0454 74.9751 55.0451 74.9677 55.0476 74.961C55.05 74.9543 55.0551 74.9488 55.0616 74.9459C55.0681 74.9429 55.0755 74.9426 55.0822 74.945C55.0889 74.9475 55.0943 74.9525 55.0973 74.959C55.3528 75.2913 55.7076 75.5337 56.1103 75.6509C56.1555 75.587 56.2609 74.6657 56.3024 74.677C56.4976 74.7601 56.6802 74.8702 56.8446 75.0041C57.1007 73.8159 57.1647 72.6013 57.4396 71.4243C57.4421 71.4168 57.4469 71.4102 57.4533 71.4056C57.4597 71.4009 57.4674 71.3984 57.4754 71.3984C57.4833 71.3984 57.491 71.4009 57.4975 71.4056C57.5039 71.4102 57.5087 71.4168 57.5112 71.4243C57.4825 72.7316 57.3235 74.0329 57.0367 75.3087C56.984 75.4554 56.5321 75.0831 56.4417 75.0041Z" fill="#263238"/>
<path d="M58.757 73.78C58.5841 73.6479 58.3756 73.5707 58.1583 73.5582C58.0437 73.5517 57.929 73.5657 57.8194 73.5995C57.7091 73.6422 57.609 73.7075 57.5256 73.7913L57.375 73.9455L57.5859 73.9831C57.7377 74.0099 57.8865 74.0515 58.0302 74.1072C58.1773 74.163 58.3071 74.2564 58.4068 74.3779C58.3642 74.2051 58.2562 74.0555 58.1055 73.9605C57.9576 73.8609 57.7911 73.7918 57.616 73.7575L57.68 73.9492C57.8098 73.8292 57.9778 73.7587 58.1545 73.7499C58.3558 73.7335 58.5584 73.7436 58.757 73.78Z" fill="#263238"/>
<path d="M57.9279 74.4181C57.7833 74.337 57.6493 74.2385 57.5288 74.1248C57.5024 74.0947 57.4007 73.9668 57.4158 73.9405C57.4549 73.8683 57.503 73.8014 57.5589 73.7412C57.4847 73.7882 57.4207 73.8496 57.3706 73.9217C57.3679 73.9689 57.376 74.0162 57.3943 74.0598C57.4126 74.1035 57.4405 74.1424 57.4761 74.1737C57.6021 74.294 57.7581 74.3784 57.9279 74.4181Z" fill="#263238"/>
<path d="M106.563 52.4555C106.188 56.056 104.819 59.4816 102.607 62.3496C100.395 65.2177 97.428 67.4151 94.0377 68.6965C90.6473 69.9778 86.9669 70.2927 83.4077 69.6058C79.8484 68.9189 76.5506 67.2573 73.8825 64.8068L64.1113 66.2096L69.0087 57.7612C67.8781 55.0085 67.3921 52.0344 67.5875 49.0656C67.783 46.0968 68.6549 43.2118 70.1367 40.6307C71.6184 38.0495 73.671 35.8404 76.1377 34.1717C78.6044 32.5031 81.4202 31.419 84.3703 31.0022C87.3203 30.5854 90.3267 30.8469 93.1602 31.7667C95.9937 32.6866 98.5794 34.2404 100.72 36.3098C102.861 38.3791 104.5 40.9094 105.512 43.7075C106.525 46.5056 106.884 49.4976 106.563 52.4555Z" fill="white"/>
<path d="M106.564 52.4552C106.196 56.053 104.838 59.4789 102.64 62.3534C101.56 63.8024 100.266 65.0788 98.802 66.1388C97.365 67.2326 95.7795 68.1166 94.093 68.7642C92.4043 69.4241 90.6319 69.8462 88.8268 70.0181C87.924 70.1004 87.0164 70.1161 86.1113 70.0652C85.2029 70.0445 84.2976 69.9527 83.4036 69.7909C79.7842 69.1234 76.4225 67.4626 73.6952 64.9945L73.9228 65.0651L64.1517 66.562L63.4375 66.6717L63.7985 66.0447L68.6645 57.5806V57.9176C67.5229 55.1433 67.0298 52.1455 67.2229 49.1523C67.416 46.1591 68.2901 43.2492 69.7788 40.6441C71.2674 38.0389 73.3314 35.8071 75.8137 34.1183C78.2961 32.4295 81.1314 31.3282 84.1041 30.8981C87.0768 30.4681 90.1085 30.7207 92.9687 31.6366C95.829 32.5526 98.4423 34.1078 100.61 36.184C102.778 38.2602 104.443 40.8027 105.479 43.6182C106.515 46.4336 106.894 49.4479 106.587 52.4317L106.564 52.4552ZM106.564 52.4552C106.881 49.5119 106.517 46.5353 105.499 43.755C104.481 40.9748 102.837 38.4653 100.693 36.4203C98.5498 34.3754 95.9644 32.8497 93.1367 31.961C90.309 31.0723 87.3146 30.8444 84.3846 31.295C81.482 31.725 78.7166 32.8134 76.3009 34.4768C73.9116 36.1547 71.9165 38.3315 70.4539 40.8562C69.011 43.3869 68.1604 46.2109 67.966 49.1166C67.7852 52.0209 68.2571 54.929 69.3473 57.6277L69.4179 57.8001L69.3237 57.9647L64.395 66.3895L64.0497 65.8801L73.8444 64.5086H73.9778L74.072 64.6027C76.6865 67.0475 79.9314 68.7165 83.4428 69.4225C84.3163 69.5803 85.2004 69.672 86.0877 69.6968C86.9787 69.7595 87.873 69.7595 88.764 69.6968C90.5511 69.5597 92.3103 69.1746 93.991 68.5526C95.6762 67.9399 97.2626 67.0845 98.7 66.0134C99.4216 65.4799 100.111 64.9042 100.764 64.2892C101.399 63.6553 101.994 62.9826 102.546 62.2751C104.762 59.4318 106.152 56.0346 106.564 52.4552Z" fill="#263238"/>
<path d="M88.569 53.2872V55.5051C88.5713 55.7263 88.5286 55.9455 88.4437 56.1498C88.3588 56.354 88.2334 56.5389 88.075 56.6934C87.9166 56.8479 87.7285 56.9688 87.5221 57.0488C87.3156 57.1288 87.0951 57.1662 86.8738 57.1588C86.4283 57.1588 86.0011 56.9821 85.6862 56.6675C85.3712 56.353 85.1942 55.9264 85.1942 55.4816V51.9236C85.1942 51.9236 85.1942 51.9236 85.1942 51.8609C85.1942 51.7982 85.1942 51.8609 85.1942 51.7904C85.2042 51.3479 85.3841 50.9262 85.6967 50.6126C86.0093 50.2989 86.4308 50.1173 86.8738 50.1054C87.8916 50.1054 88.8678 49.7016 89.5875 48.9829C90.3073 48.2642 90.7116 47.2894 90.7116 46.273C90.7116 45.2566 90.3073 44.2818 89.5875 43.5631C88.8678 42.8444 87.8916 42.4407 86.8738 42.4407C86.2084 42.4377 85.554 42.61 84.9767 42.9403C84.3993 43.2705 83.9194 43.747 83.5853 44.3216C83.474 44.5193 83.3241 44.6926 83.1444 44.8313C82.9647 44.97 82.759 45.0712 82.5394 45.1289C82.3198 45.1867 82.0908 45.1998 81.866 45.1674C81.6412 45.1351 81.4252 45.058 81.2308 44.9407C81.0412 44.8285 80.8756 44.68 80.7437 44.5037C80.6117 44.3273 80.516 44.1267 80.462 43.9132C80.408 43.6998 80.3969 43.4778 80.4291 43.2601C80.4614 43.0423 80.5365 42.8331 80.6501 42.6444C81.2483 41.6104 82.0948 40.7414 83.1134 40.1156C84.1319 39.4899 85.2904 39.1272 86.4844 39.0602C87.6784 38.9932 88.8703 39.224 89.9526 39.7318C91.0349 40.2397 91.9737 41.0086 92.6841 41.9691C93.3946 42.9297 93.8544 44.0518 94.0221 45.2341C94.1899 46.4165 94.0603 47.6219 93.645 48.7418C93.2297 49.8616 92.5418 50.8606 91.6433 51.6487C90.7448 52.4367 89.664 52.9891 88.4984 53.2559L88.569 53.2872ZM88.569 60.7795V61.3908C88.5744 61.6125 88.5346 61.833 88.4521 62.0389C88.3696 62.2448 88.2461 62.4319 88.0891 62.5887C87.932 62.7455 87.7447 62.8689 87.5385 62.9512C87.3323 63.0336 87.1115 63.0733 86.8895 63.068C86.444 63.068 86.0168 62.8913 85.7019 62.5767C85.3869 62.2622 85.2099 61.8356 85.2099 61.3908V60.7795C85.216 60.3366 85.3949 59.9135 85.7086 59.6003C86.0223 59.2871 86.4459 59.1085 86.8895 59.1024C87.1106 59.1003 87.33 59.1422 87.5347 59.2258C87.7394 59.3093 87.9254 59.4328 88.0818 59.5889C88.2381 59.7451 88.3618 59.9308 88.4454 60.1352C88.5291 60.3397 88.5711 60.5587 88.569 60.7795Z" fill="#2373E6"/>
</g>
<defs>
<clipPath id="clip0_1611_16791">
<rect width="200" height="200" fill="white" transform="translate(0.5)"/>
</clipPath>
</defs>
</svg>
