<svg width="24" height="24" viewBox="0 0 24 24" fill="none" xmlns="http://www.w3.org/2000/svg">
<path fill-rule="evenodd" clip-rule="evenodd" d="M9.87266 13.9874L9.39079 13.568C9.28371 13.4743 9.0807 13.4899 8.98923 13.6349L8.33559 14.6678C8.24412 14.8128 8.21735 14.9824 8.32443 15.0739L8.66799 15.3728L9.01154 15.6717C9.11863 15.7654 9.28148 15.7164 9.4131 15.6048L10.3434 14.8128C10.475 14.7013 10.4616 14.4983 10.3545 14.4068L9.87266 13.9874Z" fill="#014DAB"/>
<path fill-rule="evenodd" clip-rule="evenodd" d="M2.5959 20.3388C2.64498 19.9417 2.81453 19.8368 3.11347 19.5646L7.69569 15.4063C7.87193 15.2457 8.07271 15.1497 8.17979 15.2434C8.39842 15.4331 8.61704 15.6249 8.8379 15.8145C8.94498 15.9082 8.87806 16.1179 8.7442 16.3165L5.26403 21.4319C5.03648 21.7665 4.95617 21.9472 4.57023 22.0521C2.07165 22.7258 2.27689 22.9043 2.5959 20.3388Z" fill="#014DAB"/>
<path fill-rule="evenodd" clip-rule="evenodd" d="M14.7785 15.1519C13.3998 15.1519 12.068 14.737 10.9257 13.9539C9.759 13.1531 8.88449 12.0242 8.39816 10.6902C7.90514 9.34273 7.84937 7.90158 8.23754 6.5229C8.61679 5.17545 9.38867 3.99308 10.4662 3.10965C10.4684 3.10742 10.4706 3.10742 10.4729 3.10742C10.4751 3.10742 10.4796 3.10965 10.4818 3.11188C10.4863 3.11634 10.4863 3.12304 10.4818 3.1275C8.84657 4.89659 8.34462 7.39963 9.17005 9.66174C10.0869 12.1715 12.4985 13.8603 15.1711 13.8603C15.9185 13.8603 16.6546 13.7286 17.3641 13.4698C19.6998 12.6177 21.3395 10.4626 21.5403 7.98412C21.5403 7.97743 21.5447 7.97297 21.5514 7.97297C21.5581 7.97297 21.5626 7.97743 21.5626 7.98412C21.6027 8.70246 21.5291 9.42081 21.3417 10.1191C21.1566 10.8084 20.8665 11.4598 20.4784 12.0599C19.673 13.3048 18.5085 14.2306 17.112 14.7414C16.3557 15.0114 15.5727 15.1519 14.7785 15.1519Z" fill="#014DAB"/>
<path fill-rule="evenodd" clip-rule="evenodd" d="M18.8486 11.777C18.8463 11.777 18.8419 11.7748 18.8396 11.7726C18.8352 11.7681 18.8352 11.7614 18.8396 11.7569C20.2183 10.2645 20.6422 8.15407 19.9462 6.24667C19.172 4.12957 17.1375 2.70627 14.8843 2.70627C14.2552 2.70627 13.6328 2.81781 13.0349 3.03421C11.065 3.75478 9.68189 5.57072 9.51235 7.66105C9.51235 7.66774 9.50789 7.6722 9.50119 7.6722C9.4945 7.6722 9.49004 7.66774 9.49004 7.66105C9.42311 6.4586 9.74882 5.23831 10.4069 4.22103C11.0873 3.17029 12.0689 2.38725 13.2491 1.95669C13.8849 1.72468 14.5452 1.60645 15.2167 1.60645C16.3812 1.60645 17.5056 1.95669 18.4671 2.61926C19.4509 3.29522 20.1893 4.24781 20.602 5.3744C21.4364 7.65882 20.7359 10.2288 18.8575 11.7726C18.853 11.777 18.8508 11.777 18.8486 11.777Z" fill="#014DAB"/>
</svg>
