<svg width="32" height="32" viewBox="0 0 32 32" fill="none" xmlns="http://www.w3.org/2000/svg">
<circle cx="16" cy="16" r="15.75" fill="#FF9000" stroke="#FFF4E6" stroke-width="0.5"/>
<path fill-rule="evenodd" clip-rule="evenodd" d="M16.6423 10.6664C16.6423 9.19441 17.8423 8.00001 19.3207 8.00001C19.6717 7.99917 20.0194 8.06747 20.344 8.20101C20.6686 8.33456 20.9637 8.53073 21.2125 8.77832C21.4613 9.02592 21.6589 9.3201 21.794 9.64406C21.9291 9.96802 21.9991 10.3154 21.9999 10.6664C21.9999 12.1392 20.7999 13.3336 19.3207 13.3336C18.966 13.334 18.6147 13.264 18.2873 13.1275C17.9599 12.9909 17.6629 12.7907 17.4135 12.5384L13.7055 15.0632C13.8088 15.5776 13.7581 16.111 13.5599 16.5968L17.6255 19.2688C18.1044 18.8783 18.7036 18.6654 19.3215 18.6664C19.6725 18.6657 20.0202 18.7341 20.3448 18.8677C20.6693 19.0014 20.9644 19.1976 21.2131 19.4453C21.4618 19.693 21.6593 19.9872 21.7943 20.3112C21.9293 20.6352 21.9992 20.9826 21.9999 21.3336C21.9999 22.8056 20.7999 24 19.3207 24C18.612 24.0015 17.9317 23.7214 17.4294 23.2214C16.9271 22.7214 16.644 22.0423 16.6423 21.3336C16.6417 20.9597 16.7205 20.59 16.8735 20.2488L12.8399 17.6C12.3514 18.0247 11.7256 18.2581 11.0783 18.2568C10.7273 18.2576 10.3795 18.1893 10.0549 18.0557C9.73031 17.9221 9.43521 17.7259 9.18647 17.4782C8.93774 17.2305 8.74025 16.9362 8.60528 16.6121C8.47032 16.2881 8.40053 15.9406 8.3999 15.5896C8.40064 15.2386 8.4705 14.8913 8.60551 14.5673C8.74052 14.2434 8.93803 13.9492 9.18675 13.7016C9.43548 13.454 9.73054 13.2578 10.0551 13.1242C10.3797 12.9907 10.7273 12.9224 11.0783 12.9232C11.9295 12.9232 12.6863 13.3176 13.1767 13.932L16.7711 11.4848C16.6856 11.2204 16.6421 10.9443 16.6423 10.6664Z" fill="#FFF4E6"/>
</svg>
