<svg width="25" height="25" viewBox="0 0 25 25" fill="none" xmlns="http://www.w3.org/2000/svg">
<g clip-path="url(#clip0_1144_14728)">
<circle opacity="0.8" cx="12.5" cy="12.8613" r="12" fill="#121212"/>
<path fill-rule="evenodd" clip-rule="evenodd" d="M12.9823 8.86162C12.9823 7.75762 13.8823 6.86182 14.9911 6.86182C15.2544 6.86119 15.5152 6.91242 15.7586 7.01257C16.0021 7.11273 16.2234 7.25986 16.41 7.44556C16.5966 7.63126 16.7448 7.85189 16.8461 8.09486C16.9474 8.33783 16.9999 8.59837 17.0005 8.86162C17.0005 9.96622 16.1005 10.862 14.9911 10.862C14.7251 10.8623 14.4616 10.8098 14.2161 10.7074C13.9705 10.605 13.7478 10.4549 13.5607 10.2656L10.7797 12.1592C10.8572 12.545 10.8192 12.9451 10.6705 13.3094L13.7197 15.3134C14.0789 15.0205 14.5283 14.8609 14.9917 14.8616C15.255 14.8611 15.5158 14.9124 15.7592 15.0126C16.0026 15.1128 16.2239 15.26 16.4104 15.4458C16.597 15.6315 16.7451 15.8522 16.8463 16.0952C16.9476 16.3382 17 16.5988 17.0005 16.862C17.0005 17.966 16.1005 18.8618 14.9911 18.8618C14.4596 18.8629 13.9494 18.6529 13.5727 18.2779C13.1959 17.9029 12.9836 17.3936 12.9823 16.862C12.9819 16.5816 13.041 16.3043 13.1557 16.0484L10.1305 14.0618C9.76418 14.3804 9.29481 14.5554 8.80934 14.5544C8.54607 14.5551 8.28525 14.5038 8.0418 14.4036C7.79834 14.3034 7.57701 14.1562 7.39046 13.9704C7.20391 13.7847 7.0558 13.564 6.95457 13.3209C6.85335 13.0779 6.80101 12.8173 6.80054 12.554C6.80109 12.2908 6.85349 12.0303 6.95475 11.7873C7.056 11.5443 7.20413 11.3237 7.39068 11.138C7.57722 10.9523 7.79852 10.8052 8.04193 10.705C8.28535 10.6048 8.54612 10.5536 8.80934 10.5542C9.44774 10.5542 10.0153 10.85 10.3831 11.3108L13.0789 9.47542C13.0148 9.27714 12.9822 9.07002 12.9823 8.86162Z" fill="white"/>
</g>
<defs>
<clipPath id="clip0_1144_14728">
<rect width="24" height="24" fill="white" transform="translate(0.5 0.861328)"/>
</clipPath>
</defs>
</svg>
